M48
METRIC,LZ,000.000
;FILE_FORMAT=3:3
;TYPE=PLATED
;Layer: PTH_Through
;EasyEDA v6.5.22, 2023-02-12 13:27:05
;9d2100fef43045d39f3febf0e37c7303,ed70181f279245e6aff80281ee7dc86a,10
;Gerber Generator version 0.2
;Holesize 1 = 0.701 mm
T01C0.701
;Holesize 2 = 0.702 mm
T02C0.702
;Holesize 3 = 0.712 mm
T03C0.712
;Holesize 4 = 0.901 mm
T04C0.901
;Holesize 5 = 0.915 mm
T05C0.915
;Holesize 6 = 1.000 mm
T06C1.000
;Holesize 7 = 1.301 mm
T07C1.301
;Holesize 8 = 1.524 mm
T08C1.524
%
G05
G90
T01
X027178Y049911
X028448Y049911
X029718Y049911
X061087Y045593
X062357Y045593
X063627Y045593
X054249Y057277
X056749Y059777
X056749Y054777
T02
X057531Y048260
X054991Y048260
X067183Y048260
X069723Y048260
T03
X040894Y045085
X040894Y042545
X040894Y040005
X040894Y037465
X048514Y037465
X048514Y040005
X048514Y042545
X048514Y045085
T04
X053848Y042799
X058928Y042799
X066040Y042799
X071120Y042799
X042037Y034163
X047117Y034163
X036830Y057785
X041910Y057785
X061214Y036703
X061214Y034163
X065532Y036830
X065532Y034290
X069723Y036830
X069723Y034290
T05
X028448Y054737
X020828Y054737
X020828Y052705
X028448Y052705
X041021Y048895
X048641Y048895
X050546Y039243
X058166Y039243
X050546Y034798
X058166Y034798
X050546Y037084
X058166Y037084
X049911Y051308
X049911Y058928
X047752Y058928
X047752Y051308
T06
X063246Y060611
X063246Y051911
X036449Y035020
X036449Y043720
T07
X009271Y034544
X009271Y044704
X009271Y039624
X069723Y054519
X069723Y059527
T08
X018681Y045750
X032881Y039751
X030881Y033751
X030881Y045751
X018681Y033752
M30
