G04 Layer: TopSilkscreenLayer*
G04 EasyEDA v6.5.22, 2023-01-29 20:53:40*
G04 c6a8fbae3ddd42a48997ee186bed8190,ed70181f279245e6aff80281ee7dc86a,10*
G04 Gerber Generator version 0.2*
G04 Scale: 100 percent, Rotated: No, Reflected: No *
G04 Dimensions in millimeters *
G04 leading zeros omitted , absolute positions ,4 integer and 5 decimal *
%FSLAX45Y45*%
%MOMM*%

%ADD10C,0.1524*%
%ADD11C,0.2540*%
%ADD12C,0.3000*%

%LPD*%
G36*
X1385214Y5753608D02*
G01*
X1383639Y5748274D01*
X1381099Y5736336D01*
X1373225Y5694222D01*
X1370736Y5682538D01*
X1369212Y5677458D01*
X1328724Y5661253D01*
X1324864Y5660186D01*
X1321358Y5659729D01*
X1318056Y5659983D01*
X1314551Y5660999D01*
X1310741Y5662777D01*
X1300784Y5669026D01*
X1255623Y5699607D01*
X1202740Y5646775D01*
X1244244Y5586882D01*
X1238453Y5570220D01*
X1232103Y5555386D01*
X1220520Y5531154D01*
X1149908Y5518759D01*
X1148181Y5446572D01*
X1155192Y5443728D01*
X1160170Y5442204D01*
X1179271Y5437886D01*
X1219758Y5430367D01*
X1227937Y5411622D01*
X1234186Y5396534D01*
X1243177Y5373674D01*
X1202232Y5314188D01*
X1255572Y5261864D01*
X1292656Y5287467D01*
X1300429Y5292547D01*
X1306423Y5296001D01*
X1311249Y5297881D01*
X1315415Y5298389D01*
X1319479Y5297678D01*
X1324000Y5295849D01*
X1341577Y5286959D01*
X1345031Y5293563D01*
X1360678Y5330748D01*
X1391920Y5407101D01*
X1375968Y5421071D01*
X1369263Y5427472D01*
X1362760Y5434634D01*
X1357274Y5441645D01*
X1353464Y5447690D01*
X1346860Y5460441D01*
X1346454Y5500319D01*
X1364335Y5532678D01*
X1378204Y5541873D01*
X1384604Y5545734D01*
X1391666Y5549341D01*
X1398625Y5552389D01*
X1404518Y5554421D01*
X1416964Y5557774D01*
X1430070Y5555996D01*
X1436471Y5554827D01*
X1442669Y5553202D01*
X1448612Y5551119D01*
X1454353Y5548579D01*
X1459839Y5545582D01*
X1465072Y5542127D01*
X1469999Y5538216D01*
X1474622Y5533898D01*
X1478991Y5529173D01*
X1483004Y5524042D01*
X1486712Y5518556D01*
X1490065Y5512612D01*
X1496415Y5500319D01*
X1496415Y5460441D01*
X1489760Y5447588D01*
X1486001Y5441543D01*
X1480566Y5434634D01*
X1474216Y5427624D01*
X1456842Y5411470D01*
X1453540Y5407914D01*
X1452321Y5406034D01*
X1457045Y5393486D01*
X1468323Y5365445D01*
X1485341Y5324043D01*
X1499362Y5291226D01*
X1501800Y5287010D01*
X1519275Y5295849D01*
X1523796Y5297678D01*
X1527860Y5298389D01*
X1532077Y5297881D01*
X1536903Y5295950D01*
X1542948Y5292496D01*
X1560880Y5280406D01*
X1588109Y5261559D01*
X1640890Y5314391D01*
X1600098Y5373674D01*
X1609090Y5396534D01*
X1615389Y5411673D01*
X1623618Y5430570D01*
X1666036Y5438241D01*
X1676857Y5440527D01*
X1685086Y5442610D01*
X1689607Y5444134D01*
X1695094Y5446928D01*
X1693316Y5518759D01*
X1622755Y5531256D01*
X1614576Y5548020D01*
X1607769Y5563108D01*
X1604822Y5570220D01*
X1599031Y5586882D01*
X1640484Y5646775D01*
X1587601Y5699658D01*
X1537411Y5665470D01*
X1532890Y5662777D01*
X1528978Y5660948D01*
X1525473Y5659983D01*
X1522120Y5659729D01*
X1518564Y5660186D01*
X1514602Y5661304D01*
X1473911Y5677966D01*
X1471523Y5686856D01*
X1468120Y5704128D01*
X1462176Y5736336D01*
X1459636Y5748274D01*
X1458061Y5753608D01*
G37*
G36*
X1403654Y5207863D02*
G01*
X1387856Y5192064D01*
X1387856Y5176875D01*
X1404061Y5164175D01*
X1413611Y5164124D01*
X1417675Y5163870D01*
X1421638Y5163261D01*
X1425041Y5162397D01*
X1427429Y5161330D01*
X1431747Y5158638D01*
X1429867Y5153812D01*
X1428546Y5151780D01*
X1426311Y5149850D01*
X1423517Y5148173D01*
X1420368Y5147056D01*
X1412697Y5145125D01*
X1393088Y5154930D01*
X1388922Y5151475D01*
X1385671Y5147970D01*
X1385316Y5144820D01*
X1388008Y5141671D01*
X1393850Y5138115D01*
X1402892Y5133441D01*
X1431137Y5133441D01*
X1438656Y5141010D01*
X1443583Y5146751D01*
X1445768Y5152136D01*
X1445361Y5158079D01*
X1442618Y5165598D01*
X1439011Y5173522D01*
X1419707Y5177129D01*
X1403197Y5179771D01*
X1403197Y5184140D01*
X1403654Y5186070D01*
X1404924Y5188153D01*
X1406804Y5190083D01*
X1409039Y5191607D01*
X1414881Y5194757D01*
X1434439Y5187950D01*
X1443431Y5196941D01*
X1438554Y5200954D01*
X1435506Y5202631D01*
X1430731Y5204206D01*
X1424889Y5205526D01*
X1418691Y5206441D01*
G37*
G36*
X1584350Y5207558D02*
G01*
X1570532Y5205577D01*
X1567484Y5150358D01*
X1558848Y5149342D01*
X1555140Y5149240D01*
X1551432Y5149748D01*
X1548180Y5150662D01*
X1545793Y5152034D01*
X1541373Y5155692D01*
X1541373Y5207152D01*
X1525422Y5207152D01*
X1527556Y5145176D01*
X1542034Y5133441D01*
X1551838Y5133441D01*
X1555953Y5133746D01*
X1559814Y5134559D01*
X1563116Y5135727D01*
X1565300Y5137150D01*
X1569008Y5140807D01*
X1569008Y5133441D01*
X1584350Y5133441D01*
G37*
G36*
X1090422Y5207152D02*
G01*
X1073150Y5192318D01*
X1073150Y5156149D01*
X1086967Y5156149D01*
X1086967Y5184394D01*
X1090676Y5188102D01*
X1092758Y5189524D01*
X1095756Y5190693D01*
X1099261Y5191506D01*
X1102817Y5191760D01*
X1111351Y5191760D01*
X1114501Y5185867D01*
X1116787Y5178856D01*
X1117549Y5170271D01*
X1116787Y5161737D01*
X1114501Y5154726D01*
X1111351Y5148783D01*
X1102817Y5148783D01*
X1099261Y5149088D01*
X1095756Y5149900D01*
X1092758Y5151069D01*
X1090676Y5152491D01*
X1086967Y5156149D01*
X1073150Y5156149D01*
X1073150Y5148275D01*
X1090422Y5133441D01*
X1113942Y5133441D01*
X1127201Y5144211D01*
X1129995Y5156454D01*
X1131316Y5163718D01*
X1131824Y5170576D01*
X1131570Y5176926D01*
X1130604Y5182819D01*
X1128928Y5188204D01*
X1126591Y5192979D01*
X1123594Y5197094D01*
X1119936Y5200599D01*
X1115720Y5203393D01*
X1110894Y5205425D01*
X1105509Y5206695D01*
X1099616Y5207152D01*
G37*
G36*
X1145336Y5207152D02*
G01*
X1145336Y5170881D01*
X1158240Y5170881D01*
X1164031Y5191760D01*
X1181963Y5191760D01*
X1185113Y5185867D01*
X1187551Y5178247D01*
X1188161Y5169154D01*
X1187094Y5160365D01*
X1184300Y5153710D01*
X1180338Y5148275D01*
X1162405Y5150358D01*
X1158240Y5170881D01*
X1145336Y5170881D01*
X1145336Y5016804D01*
X1157579Y5016804D01*
X1157579Y5038090D01*
X1157782Y5046827D01*
X1158290Y5054295D01*
X1159154Y5060594D01*
X1160424Y5065725D01*
X1162100Y5069840D01*
X1164234Y5072989D01*
X1166825Y5075224D01*
X1169924Y5076647D01*
X1176477Y5078730D01*
X1188313Y5068011D01*
X1188313Y5016347D01*
X1202131Y5018328D01*
X1202131Y5078730D01*
X1187602Y5090464D01*
X1178560Y5090464D01*
X1174546Y5090210D01*
X1170381Y5089550D01*
X1166571Y5088534D01*
X1163523Y5087264D01*
X1157579Y5084114D01*
X1157579Y5139588D01*
X1160475Y5139588D01*
X1161745Y5139334D01*
X1163066Y5138674D01*
X1164285Y5137708D01*
X1165250Y5136540D01*
X1166825Y5135321D01*
X1169720Y5134356D01*
X1173480Y5133695D01*
X1177747Y5133441D01*
X1188313Y5133441D01*
X1194257Y5139436D01*
X1196848Y5142636D01*
X1199032Y5146598D01*
X1200810Y5151221D01*
X1202080Y5156403D01*
X1202944Y5161991D01*
X1203248Y5167934D01*
X1203045Y5174132D01*
X1202334Y5180380D01*
X1200251Y5193233D01*
X1187246Y5207152D01*
X1179880Y5207152D01*
X1176528Y5206847D01*
X1172768Y5206085D01*
X1169111Y5204968D01*
X1166012Y5203647D01*
X1159408Y5200091D01*
X1158240Y5203647D01*
X1157325Y5204968D01*
X1155700Y5206085D01*
X1153566Y5206847D01*
X1151178Y5207152D01*
G37*
G36*
X1252321Y5207152D02*
G01*
X1242568Y5207050D01*
X1238351Y5206746D01*
X1234084Y5206034D01*
X1230274Y5205018D01*
X1227429Y5203799D01*
X1223416Y5201005D01*
X1219962Y5197703D01*
X1217168Y5194046D01*
X1214983Y5189982D01*
X1213307Y5185664D01*
X1212240Y5181142D01*
X1211732Y5176418D01*
X1228191Y5176418D01*
X1228191Y5180888D01*
X1228699Y5182920D01*
X1230122Y5185308D01*
X1232204Y5187746D01*
X1234694Y5189829D01*
X1241196Y5194401D01*
X1247495Y5192064D01*
X1250137Y5190642D01*
X1252677Y5188458D01*
X1254810Y5185867D01*
X1256233Y5183073D01*
X1258722Y5176418D01*
X1211732Y5176418D01*
X1211732Y5171694D01*
X1212240Y5166969D01*
X1213205Y5162245D01*
X1214678Y5157724D01*
X1216609Y5153355D01*
X1218946Y5149240D01*
X1221689Y5145430D01*
X1224889Y5142077D01*
X1228445Y5139131D01*
X1232357Y5136743D01*
X1236624Y5134965D01*
X1241196Y5133848D01*
X1246073Y5133441D01*
X1258214Y5133441D01*
X1271828Y5144465D01*
X1262278Y5152390D01*
X1240739Y5144566D01*
X1234440Y5150256D01*
X1232052Y5152745D01*
X1230071Y5155438D01*
X1228699Y5157978D01*
X1228191Y5160010D01*
X1228191Y5164175D01*
X1271219Y5164175D01*
X1271219Y5191252D01*
G37*
G36*
X1286560Y5207152D02*
G01*
X1286560Y5133441D01*
X1298803Y5133441D01*
X1298803Y5156657D01*
X1299057Y5166156D01*
X1299768Y5174843D01*
X1300784Y5181701D01*
X1302004Y5185867D01*
X1305204Y5191760D01*
X1323187Y5191760D01*
X1326337Y5185867D01*
X1327607Y5181701D01*
X1328572Y5174843D01*
X1329283Y5166156D01*
X1329537Y5156657D01*
X1329537Y5133441D01*
X1345590Y5133441D01*
X1343050Y5192572D01*
X1334566Y5199888D01*
X1327759Y5204561D01*
X1321155Y5206746D01*
X1314399Y5206441D01*
X1307236Y5203647D01*
X1300632Y5200091D01*
X1299464Y5203647D01*
X1298549Y5204968D01*
X1296924Y5206085D01*
X1294790Y5206847D01*
X1292453Y5207152D01*
G37*
G36*
X1474317Y5207152D02*
G01*
X1455420Y5191252D01*
X1455420Y5165699D01*
X1467205Y5165699D01*
X1468882Y5176164D01*
X1470253Y5181295D01*
X1472590Y5185562D01*
X1475587Y5188864D01*
X1479143Y5191150D01*
X1483055Y5192318D01*
X1487068Y5192268D01*
X1491030Y5190845D01*
X1494688Y5188102D01*
X1498396Y5184394D01*
X1498396Y5156149D01*
X1494688Y5152491D01*
X1492605Y5151069D01*
X1489557Y5149900D01*
X1486001Y5149088D01*
X1482344Y5148783D01*
X1473657Y5148783D01*
X1467205Y5165699D01*
X1455420Y5165699D01*
X1455420Y5149646D01*
X1471574Y5133441D01*
X1495806Y5133441D01*
X1514449Y5152085D01*
X1511858Y5192623D01*
X1494993Y5207152D01*
G37*
G36*
X1670405Y5207152D02*
G01*
X1651507Y5190236D01*
X1649780Y5177383D01*
X1649171Y5171287D01*
X1649069Y5165750D01*
X1649526Y5160670D01*
X1650492Y5156098D01*
X1652016Y5151831D01*
X1654098Y5147970D01*
X1656842Y5144312D01*
X1660143Y5140858D01*
X1668119Y5133441D01*
X1678584Y5133441D01*
X1683410Y5133848D01*
X1688693Y5134864D01*
X1693925Y5136388D01*
X1698396Y5138267D01*
X1707692Y5143093D01*
X1696872Y5155082D01*
X1693722Y5151932D01*
X1691690Y5150713D01*
X1688541Y5149748D01*
X1684680Y5149037D01*
X1680565Y5148783D01*
X1670507Y5148783D01*
X1667357Y5154726D01*
X1666138Y5157876D01*
X1665122Y5162092D01*
X1664411Y5166766D01*
X1664157Y5171389D01*
X1664157Y5182158D01*
X1668983Y5186934D01*
X1674672Y5190185D01*
X1682089Y5191658D01*
X1689049Y5191201D01*
X1693367Y5188712D01*
X1695246Y5185613D01*
X1701190Y5188813D01*
X1704441Y5191404D01*
X1705508Y5194350D01*
X1704644Y5197398D01*
X1702104Y5200345D01*
X1698040Y5202986D01*
X1692859Y5205171D01*
X1686661Y5206593D01*
X1679702Y5207152D01*
G37*
G36*
X1739696Y5207050D02*
G01*
X1734362Y5205984D01*
X1729079Y5203748D01*
X1724050Y5200243D01*
X1716024Y5193334D01*
X1713369Y5181295D01*
X1726234Y5181295D01*
X1729435Y5186222D01*
X1732737Y5189423D01*
X1736547Y5191404D01*
X1740611Y5192268D01*
X1744675Y5192064D01*
X1748485Y5190845D01*
X1751736Y5188610D01*
X1754276Y5185460D01*
X1755749Y5181447D01*
X1756714Y5176418D01*
X1741170Y5176418D01*
X1731568Y5176824D01*
X1726793Y5178298D01*
X1726234Y5181295D01*
X1713369Y5181295D01*
X1710893Y5170271D01*
X1716024Y5147259D01*
X1732076Y5133441D01*
X1755597Y5133441D01*
X1769211Y5144465D01*
X1759762Y5152288D01*
X1753616Y5149037D01*
X1749247Y5147411D01*
X1744573Y5146903D01*
X1739900Y5147411D01*
X1735429Y5148834D01*
X1731518Y5151018D01*
X1728419Y5153863D01*
X1726336Y5157266D01*
X1725574Y5161076D01*
X1725574Y5164175D01*
X1771650Y5164175D01*
X1771650Y5173522D01*
X1771091Y5180177D01*
X1769465Y5186273D01*
X1766925Y5191760D01*
X1763623Y5196484D01*
X1759661Y5200446D01*
X1755139Y5203545D01*
X1750212Y5205730D01*
X1745030Y5206949D01*
G37*
G36*
X1609598Y5207000D02*
G01*
X1605229Y5206847D01*
X1601774Y5205069D01*
X1600962Y5201564D01*
X1600301Y5193436D01*
X1599844Y5181904D01*
X1599692Y5133441D01*
X1615033Y5133441D01*
X1615033Y5181396D01*
X1623314Y5192674D01*
X1639468Y5189575D01*
X1650136Y5201361D01*
X1645615Y5204206D01*
X1639824Y5206390D01*
X1632915Y5206949D01*
X1626311Y5205882D01*
X1621434Y5203291D01*
X1617370Y5199481D01*
X1615948Y5203291D01*
X1613560Y5205780D01*
G37*
G36*
X1381709Y5121605D02*
G01*
X1381709Y5084114D01*
X1375765Y5087264D01*
X1372717Y5088534D01*
X1368806Y5089550D01*
X1364538Y5090210D01*
X1360424Y5090464D01*
X1351026Y5090464D01*
X1338732Y5078171D01*
X1338732Y5062728D01*
X1350213Y5062728D01*
X1360373Y5078171D01*
X1372362Y5078171D01*
X1382522Y5062728D01*
X1380794Y5050028D01*
X1379067Y5041900D01*
X1376172Y5036362D01*
X1372006Y5033213D01*
X1366367Y5032248D01*
X1360728Y5033213D01*
X1356563Y5036362D01*
X1353718Y5041900D01*
X1351940Y5050028D01*
X1350213Y5062728D01*
X1338732Y5062728D01*
X1338732Y5029504D01*
X1346809Y5023154D01*
X1353413Y5018989D01*
X1359814Y5017109D01*
X1366316Y5017516D01*
X1373124Y5020157D01*
X1379423Y5023561D01*
X1381709Y5019852D01*
X1383030Y5018532D01*
X1385011Y5017566D01*
X1387348Y5017160D01*
X1389786Y5017312D01*
X1395526Y5018379D01*
X1395526Y5119624D01*
G37*
G36*
X1319377Y5091379D02*
G01*
X1314297Y5091023D01*
X1309522Y5089499D01*
X1305560Y5086807D01*
X1301902Y5083098D01*
X1301902Y5090464D01*
X1286357Y5090464D01*
X1288084Y5018328D01*
X1301902Y5016347D01*
X1301902Y5068011D01*
X1313434Y5078476D01*
X1329029Y5074564D01*
X1332230Y5080609D01*
X1332992Y5084064D01*
X1331569Y5086959D01*
X1328521Y5089245D01*
X1324254Y5090769D01*
G37*
G36*
X1403654Y5090820D02*
G01*
X1418691Y5042763D01*
X1424279Y5025796D01*
X1426210Y5021173D01*
X1427835Y5018481D01*
X1429461Y5017211D01*
X1431340Y5016804D01*
X1439265Y5016804D01*
X1449120Y5050586D01*
X1451406Y5057140D01*
X1453337Y5061000D01*
X1455115Y5062118D01*
X1456944Y5060543D01*
X1459026Y5056174D01*
X1461465Y5049012D01*
X1471015Y5016804D01*
X1482547Y5016804D01*
X1495755Y5056479D01*
X1502664Y5078831D01*
X1504543Y5086654D01*
X1504543Y5090464D01*
X1490421Y5090464D01*
X1482293Y5058511D01*
X1480007Y5051196D01*
X1478076Y5046218D01*
X1476806Y5044440D01*
X1475486Y5046218D01*
X1473352Y5051196D01*
X1470710Y5058511D01*
X1467866Y5067452D01*
X1461058Y5090464D01*
X1449781Y5090464D01*
X1432915Y5039868D01*
X1419758Y5088940D01*
G37*
G36*
X1618742Y5090718D02*
G01*
X1613560Y5090668D01*
X1608074Y5089550D01*
X1602587Y5087264D01*
X1596644Y5084114D01*
X1596644Y5087264D01*
X1596034Y5088534D01*
X1594358Y5089550D01*
X1591868Y5090210D01*
X1588871Y5090464D01*
X1581099Y5090464D01*
X1582826Y5018328D01*
X1596644Y5016347D01*
X1596644Y5065928D01*
X1608988Y5078272D01*
X1623161Y5074716D01*
X1627073Y5079390D01*
X1628901Y5082844D01*
X1628648Y5085791D01*
X1626616Y5088178D01*
X1623212Y5089855D01*
G37*
G36*
X1225905Y5090464D02*
G01*
X1221994Y5085791D01*
X1219708Y5081473D01*
X1221435Y5078679D01*
X1227531Y5077104D01*
X1238453Y5076647D01*
X1254302Y5076647D01*
X1256233Y5059781D01*
X1225143Y5059781D01*
X1218996Y5053634D01*
X1214780Y5047640D01*
X1214615Y5046980D01*
X1227836Y5046980D01*
X1236268Y5049012D01*
X1243787Y5049926D01*
X1256233Y5050536D01*
X1254302Y5033670D01*
X1229766Y5033670D01*
X1227836Y5046980D01*
X1214615Y5046980D01*
X1213104Y5040934D01*
X1214018Y5033822D01*
X1217574Y5026812D01*
X1222248Y5020106D01*
X1242923Y5016246D01*
X1255471Y5022951D01*
X1257350Y5019852D01*
X1258570Y5018684D01*
X1260449Y5017668D01*
X1262786Y5017008D01*
X1265224Y5016804D01*
X1271219Y5016804D01*
X1271219Y5078171D01*
X1258925Y5090464D01*
G37*
G36*
X1520647Y5090464D02*
G01*
X1516735Y5085791D01*
X1514449Y5081473D01*
X1516176Y5078679D01*
X1522323Y5077104D01*
X1533245Y5076647D01*
X1549044Y5076647D01*
X1550974Y5059781D01*
X1519885Y5059781D01*
X1513738Y5053634D01*
X1509522Y5047640D01*
X1509356Y5046980D01*
X1522577Y5046980D01*
X1530959Y5049012D01*
X1538528Y5049926D01*
X1550974Y5050536D01*
X1549044Y5033670D01*
X1524457Y5033670D01*
X1522577Y5046980D01*
X1509356Y5046980D01*
X1507845Y5040934D01*
X1508760Y5033822D01*
X1512316Y5026812D01*
X1516989Y5020106D01*
X1537665Y5016246D01*
X1550212Y5022951D01*
X1552092Y5019852D01*
X1553311Y5018684D01*
X1555191Y5017668D01*
X1557528Y5017008D01*
X1559966Y5016804D01*
X1565910Y5016804D01*
X1565910Y5078171D01*
X1553667Y5090464D01*
G37*
G36*
X1649374Y5090464D02*
G01*
X1633474Y5071567D01*
X1633474Y5065826D01*
X1647596Y5065826D01*
X1650644Y5071567D01*
X1655318Y5078171D01*
X1662175Y5078171D01*
X1665173Y5077917D01*
X1668170Y5077104D01*
X1670812Y5075936D01*
X1672793Y5074513D01*
X1674215Y5072634D01*
X1675384Y5070297D01*
X1676146Y5067706D01*
X1676450Y5065268D01*
X1676450Y5059781D01*
X1662836Y5059781D01*
X1653336Y5060340D01*
X1648358Y5062220D01*
X1647596Y5065826D01*
X1633474Y5065826D01*
X1633474Y5056682D01*
X1633728Y5050231D01*
X1634337Y5043830D01*
X1635302Y5038090D01*
X1636471Y5033873D01*
X1639468Y5025948D01*
X1660448Y5015992D01*
X1671218Y5017973D01*
X1675688Y5019141D01*
X1679905Y5020767D01*
X1683410Y5022646D01*
X1685747Y5024526D01*
X1689506Y5029047D01*
X1681937Y5038140D01*
X1676349Y5035143D01*
X1673555Y5033975D01*
X1670100Y5033010D01*
X1666443Y5032349D01*
X1663039Y5032146D01*
X1655318Y5032146D01*
X1650644Y5038750D01*
X1648561Y5042103D01*
X1647545Y5044795D01*
X1647698Y5046827D01*
X1649171Y5048351D01*
X1652066Y5049418D01*
X1656486Y5050078D01*
X1662633Y5050434D01*
X1691792Y5050536D01*
X1691792Y5059984D01*
X1691335Y5066842D01*
X1689862Y5072888D01*
X1687423Y5078069D01*
X1684121Y5082387D01*
X1679905Y5085791D01*
X1674825Y5088280D01*
X1668881Y5089804D01*
X1662125Y5090363D01*
G37*
G36*
X1491996Y6141212D02*
G01*
X1491996Y6019800D01*
X1504442Y6019800D01*
X1504442Y6079998D01*
X1510436Y6085840D01*
X1516024Y6090056D01*
X1521714Y6092596D01*
X1527810Y6093460D01*
X1535176Y6092088D01*
X1540205Y6087922D01*
X1543151Y6080810D01*
X1544066Y6070600D01*
X1544066Y6019800D01*
X1556512Y6019800D01*
X1556512Y6072124D01*
X1556156Y6079540D01*
X1554988Y6086043D01*
X1553108Y6091529D01*
X1550416Y6096050D01*
X1546910Y6099556D01*
X1542592Y6102096D01*
X1537411Y6103620D01*
X1531366Y6104128D01*
X1523492Y6103010D01*
X1516430Y6100013D01*
X1509979Y6095542D01*
X1503934Y6090158D01*
X1504442Y6107430D01*
X1504442Y6141212D01*
G37*
G36*
X1675384Y6141212D02*
G01*
X1675384Y6037326D01*
X1687830Y6037326D01*
X1687830Y6081776D01*
X1693824Y6086957D01*
X1699666Y6090716D01*
X1705356Y6092952D01*
X1710943Y6093714D01*
X1716582Y6093104D01*
X1721357Y6091377D01*
X1725320Y6088634D01*
X1728470Y6084925D01*
X1730857Y6080353D01*
X1732534Y6074968D01*
X1733499Y6068872D01*
X1733804Y6062218D01*
X1733296Y6054801D01*
X1731924Y6048146D01*
X1729689Y6042355D01*
X1726692Y6037529D01*
X1723034Y6033617D01*
X1718818Y6030772D01*
X1714042Y6029045D01*
X1708912Y6028436D01*
X1704339Y6028893D01*
X1699107Y6030417D01*
X1693570Y6033160D01*
X1687830Y6037326D01*
X1675384Y6037326D01*
X1675384Y6019800D01*
X1685289Y6019800D01*
X1686560Y6028436D01*
X1686814Y6028436D01*
X1692605Y6023965D01*
X1698650Y6020612D01*
X1704797Y6018530D01*
X1710689Y6017768D01*
X1715414Y6018123D01*
X1719986Y6019088D01*
X1724355Y6020765D01*
X1728520Y6023051D01*
X1732381Y6025946D01*
X1735886Y6029401D01*
X1738985Y6033516D01*
X1741627Y6038138D01*
X1743811Y6043371D01*
X1745386Y6049111D01*
X1746402Y6055410D01*
X1746757Y6062218D01*
X1746504Y6068364D01*
X1745792Y6074156D01*
X1744624Y6079490D01*
X1742998Y6084366D01*
X1740916Y6088786D01*
X1738325Y6092698D01*
X1735328Y6096101D01*
X1731873Y6098895D01*
X1728012Y6101130D01*
X1723694Y6102807D01*
X1718919Y6103772D01*
X1713738Y6104128D01*
X1706727Y6103213D01*
X1699869Y6100673D01*
X1693367Y6096965D01*
X1687322Y6092444D01*
X1687830Y6107430D01*
X1687830Y6141212D01*
G37*
G36*
X2388362Y6141212D02*
G01*
X2388362Y6019800D01*
X2400554Y6019800D01*
X2400554Y6079998D01*
X2406650Y6085840D01*
X2412288Y6090056D01*
X2417927Y6092596D01*
X2424176Y6093460D01*
X2431542Y6092088D01*
X2436571Y6087922D01*
X2439517Y6080810D01*
X2440432Y6070600D01*
X2440432Y6019800D01*
X2452878Y6019800D01*
X2452878Y6072124D01*
X2452522Y6079540D01*
X2451354Y6086043D01*
X2449474Y6091529D01*
X2446782Y6096050D01*
X2443276Y6099556D01*
X2438958Y6102096D01*
X2433777Y6103620D01*
X2427732Y6104128D01*
X2419858Y6103010D01*
X2412746Y6100013D01*
X2406243Y6095542D01*
X2400046Y6090158D01*
X2400554Y6107430D01*
X2400554Y6141212D01*
G37*
G36*
X2146300Y6140450D02*
G01*
X2099056Y5992622D01*
X2108200Y5992622D01*
X2155444Y6140450D01*
G37*
G36*
X3253486Y6140450D02*
G01*
X3206496Y5992622D01*
X3215640Y5992622D01*
X3262629Y6140450D01*
G37*
G36*
X1401064Y6136894D02*
G01*
X1397457Y6136284D01*
X1394764Y6134608D01*
X1393037Y6131966D01*
X1392428Y6128512D01*
X1393037Y6124905D01*
X1394764Y6122212D01*
X1397457Y6120485D01*
X1401064Y6119876D01*
X1404416Y6120485D01*
X1407058Y6122212D01*
X1408836Y6124905D01*
X1409446Y6128512D01*
X1408836Y6131966D01*
X1407058Y6134608D01*
X1404416Y6136284D01*
G37*
G36*
X3504946Y6136894D02*
G01*
X3501339Y6136284D01*
X3498646Y6134608D01*
X3496919Y6131966D01*
X3496310Y6128512D01*
X3496919Y6124905D01*
X3498646Y6122212D01*
X3501339Y6120485D01*
X3504946Y6119876D01*
X3508298Y6120485D01*
X3510940Y6122212D01*
X3512718Y6124905D01*
X3513328Y6128512D01*
X3512718Y6131966D01*
X3510940Y6134608D01*
X3508298Y6136284D01*
G37*
G36*
X2599690Y6133338D02*
G01*
X2594610Y6132931D01*
X2589834Y6131763D01*
X2585415Y6129832D01*
X2581452Y6127089D01*
X2577846Y6123533D01*
X2574645Y6119215D01*
X2571902Y6114034D01*
X2569616Y6108090D01*
X2567787Y6101283D01*
X2566466Y6093663D01*
X2565654Y6085230D01*
X2565400Y6075934D01*
X2577338Y6075934D01*
X2577744Y6087364D01*
X2578963Y6097117D01*
X2580944Y6105296D01*
X2583586Y6111849D01*
X2586837Y6116878D01*
X2590647Y6120384D01*
X2594914Y6122466D01*
X2599690Y6123178D01*
X2604363Y6122466D01*
X2608580Y6120384D01*
X2612288Y6116878D01*
X2615488Y6111849D01*
X2618028Y6105296D01*
X2619959Y6097117D01*
X2621127Y6087364D01*
X2621534Y6075934D01*
X2621127Y6064402D01*
X2619959Y6054496D01*
X2618028Y6046216D01*
X2615488Y6039561D01*
X2612288Y6034430D01*
X2608580Y6030772D01*
X2604363Y6028639D01*
X2599690Y6027928D01*
X2596489Y6028232D01*
X2593441Y6029198D01*
X2590647Y6030772D01*
X2588006Y6033058D01*
X2585669Y6035954D01*
X2583586Y6039561D01*
X2581757Y6043828D01*
X2580182Y6048806D01*
X2578963Y6054496D01*
X2578100Y6060897D01*
X2577541Y6068060D01*
X2577338Y6075934D01*
X2565400Y6075934D01*
X2565654Y6066637D01*
X2566466Y6058154D01*
X2567787Y6050432D01*
X2569616Y6043574D01*
X2571902Y6037529D01*
X2574645Y6032296D01*
X2577846Y6027826D01*
X2581452Y6024219D01*
X2585415Y6021374D01*
X2589834Y6019393D01*
X2594610Y6018174D01*
X2599690Y6017768D01*
X2604719Y6018174D01*
X2609443Y6019393D01*
X2613812Y6021374D01*
X2617774Y6024219D01*
X2621330Y6027826D01*
X2624531Y6032296D01*
X2627274Y6037529D01*
X2629509Y6043574D01*
X2631338Y6050432D01*
X2632659Y6058154D01*
X2633472Y6066637D01*
X2633726Y6075934D01*
X2633472Y6085179D01*
X2632659Y6093612D01*
X2631338Y6101181D01*
X2629509Y6107988D01*
X2627274Y6113932D01*
X2624531Y6119114D01*
X2621330Y6123482D01*
X2617774Y6127038D01*
X2613812Y6129782D01*
X2609443Y6131763D01*
X2604719Y6132931D01*
G37*
G36*
X3818636Y6133338D02*
G01*
X3809492Y6132322D01*
X3801414Y6129578D01*
X3794201Y6125413D01*
X3787648Y6120130D01*
X3794506Y6112256D01*
X3799586Y6116624D01*
X3805275Y6120079D01*
X3811473Y6122365D01*
X3818128Y6123178D01*
X3826205Y6121857D01*
X3832402Y6118148D01*
X3836314Y6112357D01*
X3837686Y6104890D01*
X3837279Y6100368D01*
X3836060Y6096203D01*
X3833876Y6092444D01*
X3830726Y6089192D01*
X3826408Y6086500D01*
X3820972Y6084519D01*
X3814267Y6083249D01*
X3806190Y6082792D01*
X3806190Y6072886D01*
X3815130Y6072479D01*
X3822649Y6071260D01*
X3828745Y6069279D01*
X3833571Y6066586D01*
X3837178Y6063284D01*
X3839616Y6059373D01*
X3841038Y6054953D01*
X3841496Y6050026D01*
X3841038Y6045200D01*
X3839768Y6040932D01*
X3837736Y6037173D01*
X3834942Y6034074D01*
X3831539Y6031534D01*
X3827576Y6029706D01*
X3823055Y6028588D01*
X3818128Y6028182D01*
X3809085Y6029299D01*
X3801567Y6032195D01*
X3795268Y6036310D01*
X3789934Y6041136D01*
X3783584Y6033008D01*
X3786428Y6030163D01*
X3789679Y6027420D01*
X3793337Y6024829D01*
X3797452Y6022543D01*
X3802024Y6020562D01*
X3807104Y6019088D01*
X3812692Y6018123D01*
X3818890Y6017768D01*
X3826001Y6018326D01*
X3832606Y6019952D01*
X3838600Y6022594D01*
X3843731Y6026200D01*
X3847998Y6030772D01*
X3851198Y6036208D01*
X3853230Y6042456D01*
X3853942Y6049518D01*
X3853434Y6055055D01*
X3852062Y6060084D01*
X3849878Y6064504D01*
X3846982Y6068415D01*
X3843477Y6071717D01*
X3839464Y6074410D01*
X3835044Y6076492D01*
X3830320Y6077966D01*
X3830320Y6078728D01*
X3834587Y6080506D01*
X3838448Y6082741D01*
X3841851Y6085433D01*
X3844696Y6088583D01*
X3847033Y6092190D01*
X3848709Y6096254D01*
X3849776Y6100724D01*
X3850132Y6105652D01*
X3849522Y6111849D01*
X3847795Y6117386D01*
X3845001Y6122111D01*
X3841242Y6126073D01*
X3836619Y6129223D01*
X3831285Y6131458D01*
X3825240Y6132880D01*
G37*
G36*
X3000248Y6131306D02*
G01*
X2995625Y6128867D01*
X2990392Y6126835D01*
X2984449Y6125108D01*
X2977642Y6123686D01*
X2977642Y6115558D01*
X2997454Y6115558D01*
X2997454Y6030214D01*
X2972308Y6030214D01*
X2972308Y6019800D01*
X3032506Y6019800D01*
X3032506Y6030214D01*
X3009646Y6030214D01*
X3009646Y6131306D01*
G37*
G36*
X3296665Y6131306D02*
G01*
X3274014Y6065012D01*
X3285744Y6065012D01*
X3296005Y6097117D01*
X3303015Y6120892D01*
X3303524Y6120892D01*
X3309162Y6101791D01*
X3321050Y6065012D01*
X3274014Y6065012D01*
X3258565Y6019800D01*
X3271012Y6019800D01*
X3282442Y6055106D01*
X3324098Y6055106D01*
X3335274Y6019800D01*
X3348736Y6019800D01*
X3310382Y6131306D01*
G37*
G36*
X3345434Y6131306D02*
G01*
X3345434Y6120638D01*
X3379215Y6120638D01*
X3379215Y6019800D01*
X3392170Y6019800D01*
X3392170Y6120638D01*
X3426206Y6120638D01*
X3426206Y6131306D01*
G37*
G36*
X3736848Y6131306D02*
G01*
X3732225Y6128867D01*
X3726992Y6126835D01*
X3721049Y6125108D01*
X3714242Y6123686D01*
X3714242Y6115558D01*
X3734054Y6115558D01*
X3734054Y6030214D01*
X3708908Y6030214D01*
X3708908Y6019800D01*
X3769106Y6019800D01*
X3769106Y6030214D01*
X3746246Y6030214D01*
X3746246Y6131306D01*
G37*
G36*
X3878326Y6131306D02*
G01*
X3878326Y6121400D01*
X3908806Y6121400D01*
X3915156Y6121146D01*
X3920693Y6120384D01*
X3925417Y6119063D01*
X3929278Y6117132D01*
X3932326Y6114592D01*
X3934510Y6111341D01*
X3935780Y6107328D01*
X3936237Y6102604D01*
X3935831Y6098438D01*
X3934663Y6094679D01*
X3932631Y6091428D01*
X3929684Y6088684D01*
X3925773Y6086500D01*
X3920896Y6084874D01*
X3915003Y6083909D01*
X3908044Y6083554D01*
X3891026Y6083554D01*
X3891026Y6121400D01*
X3878326Y6121400D01*
X3878326Y6073648D01*
X3911092Y6073648D01*
X3918305Y6073343D01*
X3924604Y6072428D01*
X3930091Y6070854D01*
X3934561Y6068669D01*
X3938168Y6065774D01*
X3940759Y6062167D01*
X3942334Y6057849D01*
X3942842Y6052820D01*
X3942283Y6047333D01*
X3940657Y6042609D01*
X3938015Y6038646D01*
X3934409Y6035497D01*
X3929837Y6033058D01*
X3924401Y6031331D01*
X3918153Y6030315D01*
X3911092Y6029960D01*
X3891026Y6029960D01*
X3891026Y6073648D01*
X3878326Y6073648D01*
X3878326Y6019800D01*
X3913124Y6019800D01*
X3919169Y6020003D01*
X3924909Y6020714D01*
X3930192Y6021832D01*
X3935120Y6023406D01*
X3939590Y6025489D01*
X3943553Y6027978D01*
X3947007Y6030874D01*
X3949903Y6034278D01*
X3952189Y6038138D01*
X3953916Y6042406D01*
X3954932Y6047130D01*
X3955287Y6052312D01*
X3954881Y6057747D01*
X3953611Y6062573D01*
X3951579Y6066840D01*
X3948887Y6070549D01*
X3945534Y6073597D01*
X3941572Y6076086D01*
X3937101Y6077966D01*
X3932174Y6079236D01*
X3932174Y6079744D01*
X3939235Y6083503D01*
X3944416Y6089091D01*
X3947617Y6096101D01*
X3948684Y6104128D01*
X3947972Y6110833D01*
X3945890Y6116523D01*
X3942587Y6121196D01*
X3938117Y6124956D01*
X3932580Y6127800D01*
X3926078Y6129782D01*
X3918712Y6130950D01*
X3910584Y6131306D01*
G37*
G36*
X4391660Y6131306D02*
G01*
X4391660Y6121146D01*
X4420616Y6121146D01*
X4427829Y6120892D01*
X4434078Y6120028D01*
X4439361Y6118555D01*
X4443679Y6116370D01*
X4447032Y6113424D01*
X4449419Y6109563D01*
X4450892Y6104788D01*
X4451350Y6099048D01*
X4450892Y6093256D01*
X4449521Y6088329D01*
X4447235Y6084214D01*
X4443984Y6080912D01*
X4439767Y6078372D01*
X4434636Y6076594D01*
X4428490Y6075527D01*
X4421378Y6075172D01*
X4404106Y6075172D01*
X4404106Y6121146D01*
X4391660Y6121146D01*
X4391660Y6019800D01*
X4404106Y6019800D01*
X4404106Y6065012D01*
X4423156Y6065012D01*
X4429150Y6065215D01*
X4434738Y6065926D01*
X4439920Y6067094D01*
X4444695Y6068720D01*
X4449013Y6070803D01*
X4452823Y6073343D01*
X4456176Y6076391D01*
X4458919Y6079947D01*
X4461103Y6083960D01*
X4462729Y6088481D01*
X4463694Y6093510D01*
X4464050Y6099048D01*
X4463694Y6104686D01*
X4462729Y6109716D01*
X4461052Y6114186D01*
X4458817Y6118047D01*
X4456023Y6121349D01*
X4452670Y6124143D01*
X4448759Y6126429D01*
X4444390Y6128258D01*
X4439513Y6129629D01*
X4434230Y6130594D01*
X4428490Y6131102D01*
X4422394Y6131306D01*
G37*
G36*
X1439926Y6125464D02*
G01*
X1438402Y6102096D01*
X1425448Y6101334D01*
X1425448Y6091936D01*
X1438148Y6091936D01*
X1438148Y6044692D01*
X1438402Y6038951D01*
X1439265Y6033719D01*
X1440738Y6029147D01*
X1442974Y6025235D01*
X1446022Y6022086D01*
X1449933Y6019749D01*
X1454810Y6018276D01*
X1460754Y6017768D01*
X1464360Y6018022D01*
X1471879Y6019698D01*
X1475486Y6020816D01*
X1472946Y6030214D01*
X1468221Y6028690D01*
X1465681Y6028131D01*
X1463294Y6027928D01*
X1457096Y6029045D01*
X1453083Y6032246D01*
X1450949Y6037376D01*
X1450340Y6044184D01*
X1450340Y6091936D01*
X1473200Y6091936D01*
X1473200Y6102096D01*
X1450340Y6102096D01*
X1450340Y6125464D01*
G37*
G36*
X2177796Y6125464D02*
G01*
X2176272Y6102096D01*
X2163318Y6101334D01*
X2163318Y6091936D01*
X2175764Y6091936D01*
X2175764Y6044692D01*
X2176018Y6038951D01*
X2176881Y6033719D01*
X2178456Y6029147D01*
X2180691Y6025235D01*
X2183790Y6022086D01*
X2187752Y6019749D01*
X2192680Y6018276D01*
X2198624Y6017768D01*
X2202180Y6018022D01*
X2209546Y6019698D01*
X2213102Y6020816D01*
X2210816Y6030214D01*
X2206091Y6028690D01*
X2203551Y6028131D01*
X2201164Y6027928D01*
X2194966Y6029045D01*
X2190953Y6032246D01*
X2188819Y6037376D01*
X2188210Y6044184D01*
X2188210Y6091936D01*
X2210816Y6091936D01*
X2210816Y6102096D01*
X2188210Y6102096D01*
X2188210Y6125464D01*
G37*
G36*
X3446779Y6125464D02*
G01*
X3445256Y6102096D01*
X3432301Y6101334D01*
X3432301Y6091936D01*
X3444748Y6091936D01*
X3444748Y6044692D01*
X3445001Y6038951D01*
X3445865Y6033719D01*
X3447338Y6029147D01*
X3449574Y6025235D01*
X3452622Y6022086D01*
X3456533Y6019749D01*
X3461410Y6018276D01*
X3467354Y6017768D01*
X3470960Y6018022D01*
X3478479Y6019698D01*
X3482086Y6020816D01*
X3479546Y6030214D01*
X3474821Y6028690D01*
X3472281Y6028131D01*
X3469894Y6027928D01*
X3463696Y6029045D01*
X3459683Y6032246D01*
X3457549Y6037376D01*
X3456940Y6044184D01*
X3456940Y6091936D01*
X3479800Y6091936D01*
X3479800Y6102096D01*
X3456940Y6102096D01*
X3456940Y6125464D01*
G37*
G36*
X4063746Y6125464D02*
G01*
X4062222Y6102096D01*
X4049268Y6101334D01*
X4049268Y6091936D01*
X4061714Y6091936D01*
X4061714Y6044692D01*
X4061968Y6038951D01*
X4062831Y6033719D01*
X4064406Y6029147D01*
X4066641Y6025235D01*
X4069740Y6022086D01*
X4073702Y6019749D01*
X4078630Y6018276D01*
X4084574Y6017768D01*
X4088129Y6018022D01*
X4095496Y6019698D01*
X4099051Y6020816D01*
X4096765Y6030214D01*
X4092041Y6028690D01*
X4089501Y6028131D01*
X4087114Y6027928D01*
X4080916Y6029045D01*
X4076903Y6032246D01*
X4074769Y6037376D01*
X4074160Y6044184D01*
X4074160Y6091936D01*
X4096765Y6091936D01*
X4096765Y6102096D01*
X4074160Y6102096D01*
X4074160Y6125464D01*
G37*
G36*
X4116578Y6125464D02*
G01*
X4115054Y6102096D01*
X4102100Y6101334D01*
X4102100Y6091936D01*
X4114546Y6091936D01*
X4114546Y6044692D01*
X4114800Y6038951D01*
X4115663Y6033719D01*
X4117238Y6029147D01*
X4119524Y6025235D01*
X4122572Y6022086D01*
X4126534Y6019749D01*
X4131462Y6018276D01*
X4137406Y6017768D01*
X4140962Y6018022D01*
X4144670Y6018733D01*
X4151884Y6020816D01*
X4149598Y6030214D01*
X4144873Y6028690D01*
X4142333Y6028131D01*
X4139946Y6027928D01*
X4133748Y6029045D01*
X4129735Y6032246D01*
X4127601Y6037376D01*
X4126992Y6044184D01*
X4126992Y6091936D01*
X4149598Y6091936D01*
X4149598Y6102096D01*
X4126992Y6102096D01*
X4126992Y6125464D01*
G37*
G36*
X4635246Y6125464D02*
G01*
X4633722Y6102096D01*
X4620768Y6101334D01*
X4620768Y6091936D01*
X4633214Y6091936D01*
X4633214Y6044692D01*
X4633468Y6038951D01*
X4634331Y6033719D01*
X4635906Y6029147D01*
X4638141Y6025235D01*
X4641240Y6022086D01*
X4645202Y6019749D01*
X4650130Y6018276D01*
X4656074Y6017768D01*
X4659630Y6018022D01*
X4666996Y6019698D01*
X4670552Y6020816D01*
X4668266Y6030214D01*
X4663541Y6028690D01*
X4661001Y6028131D01*
X4658614Y6027928D01*
X4652416Y6029045D01*
X4648403Y6032246D01*
X4646269Y6037376D01*
X4645660Y6044184D01*
X4645660Y6091936D01*
X4668266Y6091936D01*
X4668266Y6102096D01*
X4645660Y6102096D01*
X4645660Y6125464D01*
G37*
G36*
X4848352Y6125464D02*
G01*
X4846828Y6102096D01*
X4833874Y6101334D01*
X4833874Y6091936D01*
X4846320Y6091936D01*
X4846320Y6044692D01*
X4846574Y6038951D01*
X4847437Y6033719D01*
X4848961Y6029147D01*
X4851247Y6025235D01*
X4854295Y6022086D01*
X4858207Y6019749D01*
X4863084Y6018276D01*
X4868926Y6017768D01*
X4872532Y6018022D01*
X4880051Y6019698D01*
X4883658Y6020816D01*
X4881118Y6030214D01*
X4876596Y6028690D01*
X4874107Y6028131D01*
X4871720Y6027928D01*
X4865522Y6029045D01*
X4861509Y6032246D01*
X4859375Y6037376D01*
X4858766Y6044184D01*
X4858766Y6091936D01*
X4881372Y6091936D01*
X4881372Y6102096D01*
X4858766Y6102096D01*
X4858766Y6125464D01*
G37*
G36*
X1337056Y6104128D02*
G01*
X1330909Y6103620D01*
X1325219Y6102045D01*
X1320038Y6099556D01*
X1315516Y6096203D01*
X1311808Y6091986D01*
X1308963Y6086957D01*
X1307185Y6081268D01*
X1306576Y6074918D01*
X1318514Y6074918D01*
X1319987Y6083300D01*
X1324000Y6089599D01*
X1329893Y6093612D01*
X1337056Y6094984D01*
X1344117Y6093612D01*
X1349908Y6089599D01*
X1353870Y6083300D01*
X1355344Y6074918D01*
X1353870Y6066434D01*
X1349908Y6059982D01*
X1344117Y6055817D01*
X1337056Y6054344D01*
X1329994Y6055817D01*
X1324051Y6059982D01*
X1320038Y6066434D01*
X1318514Y6074918D01*
X1306576Y6074918D01*
X1307490Y6067856D01*
X1309928Y6061659D01*
X1313332Y6056579D01*
X1317244Y6052820D01*
X1317244Y6052058D01*
X1314094Y6049365D01*
X1311148Y6045860D01*
X1308963Y6041644D01*
X1308100Y6036818D01*
X1308658Y6032296D01*
X1310182Y6028537D01*
X1312468Y6025591D01*
X1315466Y6023356D01*
X1315466Y6022594D01*
X1310335Y6018631D01*
X1306525Y6014059D01*
X1304086Y6009081D01*
X1303508Y6005322D01*
X1314196Y6005322D01*
X1314754Y6009182D01*
X1316380Y6012992D01*
X1319225Y6016650D01*
X1323340Y6020054D01*
X1329029Y6019139D01*
X1333754Y6018784D01*
X1348994Y6018784D01*
X1356360Y6018225D01*
X1361694Y6016345D01*
X1364945Y6012992D01*
X1366012Y6007862D01*
X1365504Y6004560D01*
X1364081Y6001359D01*
X1361795Y5998413D01*
X1358646Y5995771D01*
X1354734Y5993536D01*
X1350162Y5991809D01*
X1344930Y5990742D01*
X1339088Y5990336D01*
X1328674Y5991402D01*
X1320850Y5994400D01*
X1315923Y5999124D01*
X1314196Y6005322D01*
X1303508Y6005322D01*
X1303274Y6003798D01*
X1303883Y5998768D01*
X1305712Y5994298D01*
X1308709Y5990488D01*
X1312672Y5987288D01*
X1317599Y5984748D01*
X1323441Y5982919D01*
X1329994Y5981801D01*
X1337310Y5981446D01*
X1346200Y5982055D01*
X1354226Y5983782D01*
X1361186Y5986475D01*
X1367078Y5990031D01*
X1371803Y5994247D01*
X1375308Y5999022D01*
X1377492Y6004204D01*
X1378204Y6009640D01*
X1377746Y6014415D01*
X1376426Y6018479D01*
X1374241Y6021832D01*
X1371142Y6024575D01*
X1367180Y6026607D01*
X1362354Y6028080D01*
X1356614Y6028944D01*
X1350010Y6029198D01*
X1333500Y6029198D01*
X1326489Y6029909D01*
X1321968Y6031890D01*
X1319479Y6034887D01*
X1318768Y6038596D01*
X1319225Y6041847D01*
X1320393Y6044539D01*
X1322171Y6046876D01*
X1324356Y6049010D01*
X1327353Y6047689D01*
X1330604Y6046724D01*
X1333906Y6046165D01*
X1337056Y6045962D01*
X1343050Y6046470D01*
X1348689Y6047994D01*
X1353718Y6050432D01*
X1358087Y6053734D01*
X1361744Y6057900D01*
X1364437Y6062776D01*
X1366164Y6068415D01*
X1366774Y6074664D01*
X1366215Y6079998D01*
X1364742Y6084874D01*
X1362506Y6089091D01*
X1359662Y6092444D01*
X1376934Y6092444D01*
X1376934Y6102096D01*
X1348486Y6102096D01*
X1343355Y6103518D01*
X1340358Y6103975D01*
G37*
G36*
X1839214Y6104128D02*
G01*
X1834083Y6103823D01*
X1829104Y6102858D01*
X1824329Y6101232D01*
X1819808Y6099048D01*
X1815642Y6096203D01*
X1811832Y6092799D01*
X1808480Y6088837D01*
X1805635Y6084316D01*
X1803298Y6079286D01*
X1801571Y6073648D01*
X1800453Y6067552D01*
X1800098Y6060948D01*
X1800453Y6054394D01*
X1801418Y6048298D01*
X1803044Y6042710D01*
X1805228Y6037681D01*
X1807972Y6033160D01*
X1811172Y6029147D01*
X1814830Y6025743D01*
X1818893Y6022898D01*
X1823364Y6020714D01*
X1828139Y6019088D01*
X1833168Y6018123D01*
X1838452Y6017768D01*
X1845716Y6018530D01*
X1852625Y6020612D01*
X1859025Y6023965D01*
X1864868Y6028436D01*
X1859534Y6036564D01*
X1855266Y6033312D01*
X1850440Y6030671D01*
X1845157Y6028842D01*
X1839468Y6028182D01*
X1833829Y6028791D01*
X1828698Y6030569D01*
X1824177Y6033414D01*
X1820367Y6037224D01*
X1817268Y6041999D01*
X1814982Y6047587D01*
X1813560Y6053937D01*
X1813052Y6060948D01*
X1813560Y6067958D01*
X1815084Y6074308D01*
X1817471Y6079896D01*
X1820672Y6084671D01*
X1824583Y6088481D01*
X1829104Y6091326D01*
X1834184Y6093104D01*
X1839722Y6093714D01*
X1844598Y6093155D01*
X1848967Y6091631D01*
X1853031Y6089345D01*
X1856739Y6086348D01*
X1863343Y6094222D01*
X1858670Y6098032D01*
X1853184Y6101181D01*
X1846783Y6103315D01*
G37*
G36*
X1911604Y6104128D02*
G01*
X1906625Y6103823D01*
X1901850Y6102858D01*
X1897227Y6101232D01*
X1892858Y6099048D01*
X1888845Y6096203D01*
X1885137Y6092799D01*
X1881886Y6088837D01*
X1879092Y6084316D01*
X1876856Y6079286D01*
X1875180Y6073648D01*
X1874113Y6067552D01*
X1873757Y6060948D01*
X1886457Y6060948D01*
X1886915Y6067958D01*
X1888337Y6074308D01*
X1890522Y6079896D01*
X1893519Y6084671D01*
X1897176Y6088481D01*
X1901443Y6091326D01*
X1906270Y6093104D01*
X1911604Y6093714D01*
X1916938Y6093104D01*
X1921764Y6091326D01*
X1926031Y6088481D01*
X1929688Y6084671D01*
X1932686Y6079896D01*
X1934870Y6074308D01*
X1936292Y6067958D01*
X1936750Y6060948D01*
X1936292Y6053937D01*
X1934870Y6047587D01*
X1932686Y6041999D01*
X1929688Y6037224D01*
X1926031Y6033414D01*
X1921764Y6030569D01*
X1916938Y6028791D01*
X1911604Y6028182D01*
X1906270Y6028791D01*
X1901443Y6030569D01*
X1897176Y6033414D01*
X1893519Y6037224D01*
X1890522Y6041999D01*
X1888337Y6047587D01*
X1886915Y6053937D01*
X1886457Y6060948D01*
X1873757Y6060948D01*
X1874113Y6054394D01*
X1875180Y6048298D01*
X1876856Y6042710D01*
X1879092Y6037681D01*
X1881886Y6033160D01*
X1885137Y6029147D01*
X1888845Y6025743D01*
X1892858Y6022898D01*
X1897227Y6020714D01*
X1901850Y6019088D01*
X1906625Y6018123D01*
X1911604Y6017768D01*
X1916582Y6018123D01*
X1921357Y6019088D01*
X1925980Y6020714D01*
X1930349Y6022898D01*
X1934362Y6025743D01*
X1938070Y6029147D01*
X1941322Y6033160D01*
X1944116Y6037681D01*
X1946351Y6042710D01*
X1948027Y6048298D01*
X1949094Y6054394D01*
X1949450Y6060948D01*
X1949094Y6067552D01*
X1948027Y6073648D01*
X1946351Y6079286D01*
X1944116Y6084316D01*
X1941322Y6088837D01*
X1938070Y6092850D01*
X1934362Y6096203D01*
X1930349Y6099048D01*
X1925980Y6101232D01*
X1921357Y6102858D01*
X1916582Y6103823D01*
G37*
G36*
X2009139Y6104128D02*
G01*
X2002231Y6103010D01*
X1995576Y6099962D01*
X1989378Y6095441D01*
X1983739Y6089904D01*
X1983232Y6089904D01*
X1981962Y6102096D01*
X1971802Y6102096D01*
X1971802Y6019800D01*
X1984248Y6019800D01*
X1984248Y6079998D01*
X1990039Y6085840D01*
X1995525Y6090056D01*
X2000808Y6092596D01*
X2005838Y6093460D01*
X2012950Y6092088D01*
X2017928Y6087922D01*
X2020874Y6080810D01*
X2021839Y6070600D01*
X2021839Y6019800D01*
X2034286Y6019800D01*
X2034286Y6079998D01*
X2040077Y6085840D01*
X2045563Y6090056D01*
X2050846Y6092596D01*
X2055875Y6093460D01*
X2062988Y6092088D01*
X2067966Y6087922D01*
X2070912Y6080810D01*
X2071878Y6070600D01*
X2071878Y6019800D01*
X2084324Y6019800D01*
X2084324Y6072124D01*
X2083917Y6079540D01*
X2082800Y6086043D01*
X2080869Y6091529D01*
X2078177Y6096050D01*
X2074672Y6099556D01*
X2070404Y6102096D01*
X2065324Y6103620D01*
X2059432Y6104128D01*
X2052218Y6103010D01*
X2045360Y6099759D01*
X2038654Y6094679D01*
X2032000Y6088126D01*
X2028850Y6094780D01*
X2024176Y6099860D01*
X2017725Y6103010D01*
G37*
G36*
X2257806Y6104128D02*
G01*
X2253132Y6103772D01*
X2248560Y6102756D01*
X2244140Y6101130D01*
X2239924Y6098844D01*
X2235962Y6096000D01*
X2232355Y6092545D01*
X2229104Y6088532D01*
X2226360Y6084011D01*
X2224074Y6078931D01*
X2222398Y6073394D01*
X2221326Y6067298D01*
X2233168Y6067298D01*
X2234234Y6073343D01*
X2236114Y6078677D01*
X2238603Y6083300D01*
X2241702Y6087160D01*
X2245309Y6090208D01*
X2249271Y6092393D01*
X2253538Y6093764D01*
X2258060Y6094222D01*
X2262784Y6093764D01*
X2266950Y6092494D01*
X2270607Y6090310D01*
X2273655Y6087313D01*
X2276144Y6083503D01*
X2277922Y6078880D01*
X2279040Y6073495D01*
X2279396Y6067298D01*
X2221326Y6067298D01*
X2220976Y6060948D01*
X2221331Y6054394D01*
X2222398Y6048298D01*
X2224074Y6042710D01*
X2226310Y6037681D01*
X2229154Y6033160D01*
X2232456Y6029147D01*
X2236216Y6025743D01*
X2240330Y6022898D01*
X2244852Y6020714D01*
X2249678Y6019088D01*
X2254808Y6018123D01*
X2260092Y6017768D01*
X2268118Y6018428D01*
X2275179Y6020257D01*
X2281428Y6022898D01*
X2287016Y6026150D01*
X2282444Y6034532D01*
X2277770Y6031636D01*
X2272792Y6029502D01*
X2267458Y6028131D01*
X2261616Y6027674D01*
X2255672Y6028232D01*
X2250338Y6029858D01*
X2245664Y6032500D01*
X2241600Y6036056D01*
X2238349Y6040475D01*
X2235809Y6045657D01*
X2234184Y6051600D01*
X2233422Y6058154D01*
X2289556Y6058154D01*
X2290114Y6061659D01*
X2290318Y6065774D01*
X2289759Y6074206D01*
X2288133Y6081725D01*
X2285441Y6088278D01*
X2281783Y6093815D01*
X2277110Y6098235D01*
X2271572Y6101435D01*
X2265121Y6103467D01*
G37*
G36*
X2343912Y6104128D02*
G01*
X2338781Y6103823D01*
X2333802Y6102858D01*
X2329027Y6101232D01*
X2324506Y6099048D01*
X2320340Y6096203D01*
X2316530Y6092799D01*
X2313178Y6088837D01*
X2310333Y6084316D01*
X2307996Y6079286D01*
X2306269Y6073648D01*
X2305151Y6067552D01*
X2304796Y6060948D01*
X2305151Y6054394D01*
X2306116Y6048298D01*
X2307691Y6042710D01*
X2309876Y6037681D01*
X2312568Y6033160D01*
X2315768Y6029147D01*
X2319375Y6025743D01*
X2323439Y6022898D01*
X2327859Y6020714D01*
X2332583Y6019088D01*
X2337612Y6018123D01*
X2342896Y6017768D01*
X2350312Y6018530D01*
X2357272Y6020612D01*
X2363724Y6023965D01*
X2369566Y6028436D01*
X2363978Y6036564D01*
X2359812Y6033312D01*
X2355037Y6030671D01*
X2349754Y6028842D01*
X2344166Y6028182D01*
X2338425Y6028791D01*
X2333244Y6030569D01*
X2328672Y6033414D01*
X2324811Y6037224D01*
X2321712Y6041999D01*
X2319426Y6047587D01*
X2318004Y6053937D01*
X2317496Y6060948D01*
X2318004Y6067958D01*
X2319528Y6074308D01*
X2321915Y6079896D01*
X2325166Y6084671D01*
X2329078Y6088481D01*
X2333701Y6091326D01*
X2338832Y6093104D01*
X2344420Y6093714D01*
X2349296Y6093155D01*
X2353665Y6091631D01*
X2357729Y6089345D01*
X2361438Y6086348D01*
X2368042Y6094222D01*
X2363368Y6098032D01*
X2357882Y6101181D01*
X2351481Y6103315D01*
G37*
G36*
X2519426Y6104128D02*
G01*
X2511501Y6103010D01*
X2504338Y6100013D01*
X2497836Y6095542D01*
X2491740Y6090158D01*
X2491232Y6090158D01*
X2489962Y6102096D01*
X2480056Y6102096D01*
X2480056Y6019800D01*
X2492248Y6019800D01*
X2492248Y6079998D01*
X2498344Y6085840D01*
X2504084Y6090056D01*
X2509774Y6092596D01*
X2515870Y6093460D01*
X2523236Y6092088D01*
X2528265Y6087922D01*
X2531211Y6080810D01*
X2532126Y6070600D01*
X2532126Y6019800D01*
X2544572Y6019800D01*
X2544572Y6072124D01*
X2544216Y6079540D01*
X2543048Y6086043D01*
X2541168Y6091529D01*
X2538476Y6096050D01*
X2534970Y6099556D01*
X2530652Y6102096D01*
X2525471Y6103620D01*
G37*
G36*
X2693162Y6104128D02*
G01*
X2686100Y6103010D01*
X2679496Y6099962D01*
X2673248Y6095441D01*
X2667508Y6089904D01*
X2667254Y6089904D01*
X2665984Y6102096D01*
X2655824Y6102096D01*
X2655824Y6019800D01*
X2668270Y6019800D01*
X2668270Y6079998D01*
X2673908Y6085840D01*
X2679395Y6090056D01*
X2684678Y6092596D01*
X2689606Y6093460D01*
X2696870Y6092088D01*
X2701950Y6087922D01*
X2704896Y6080810D01*
X2705862Y6070600D01*
X2705862Y6019800D01*
X2718308Y6019800D01*
X2718308Y6079998D01*
X2724048Y6085840D01*
X2729484Y6090056D01*
X2734716Y6092596D01*
X2739898Y6093460D01*
X2747010Y6092088D01*
X2751988Y6087922D01*
X2754934Y6080810D01*
X2755900Y6070600D01*
X2755900Y6019800D01*
X2768346Y6019800D01*
X2768346Y6072124D01*
X2767939Y6079540D01*
X2766822Y6086043D01*
X2764891Y6091529D01*
X2762199Y6096050D01*
X2758694Y6099556D01*
X2754426Y6102096D01*
X2749346Y6103620D01*
X2743454Y6104128D01*
X2736189Y6103010D01*
X2729280Y6099759D01*
X2722575Y6094679D01*
X2716022Y6088126D01*
X2712872Y6094780D01*
X2708198Y6099860D01*
X2701747Y6103010D01*
G37*
G36*
X2826004Y6104128D02*
G01*
X2816453Y6103112D01*
X2807817Y6100521D01*
X2800248Y6097066D01*
X2794000Y6093460D01*
X2799080Y6084824D01*
X2804312Y6088075D01*
X2810306Y6091021D01*
X2817012Y6093155D01*
X2824226Y6093968D01*
X2832862Y6092037D01*
X2838246Y6087008D01*
X2840990Y6079947D01*
X2841752Y6071870D01*
X2833268Y6070752D01*
X2825648Y6069431D01*
X2818790Y6067856D01*
X2812694Y6066028D01*
X2807411Y6063945D01*
X2802890Y6061608D01*
X2799080Y6058966D01*
X2796032Y6056020D01*
X2793695Y6052769D01*
X2792018Y6049162D01*
X2791002Y6045200D01*
X2790751Y6041644D01*
X2802636Y6041644D01*
X2803144Y6045708D01*
X2804617Y6049365D01*
X2807309Y6052616D01*
X2811221Y6055512D01*
X2816555Y6058052D01*
X2823311Y6060186D01*
X2831693Y6062014D01*
X2841752Y6063488D01*
X2841752Y6039358D01*
X2835656Y6034379D01*
X2829814Y6030772D01*
X2823972Y6028639D01*
X2817876Y6027928D01*
X2811983Y6028690D01*
X2807106Y6031077D01*
X2803855Y6035344D01*
X2802636Y6041644D01*
X2790751Y6041644D01*
X2791155Y6035649D01*
X2792476Y6031077D01*
X2794660Y6027115D01*
X2797505Y6023813D01*
X2801010Y6021222D01*
X2805074Y6019292D01*
X2809595Y6018174D01*
X2814574Y6017768D01*
X2822194Y6018733D01*
X2829356Y6021273D01*
X2836062Y6025184D01*
X2842260Y6029960D01*
X2842768Y6029960D01*
X2843784Y6019800D01*
X2853944Y6019800D01*
X2853944Y6070854D01*
X2853588Y6077966D01*
X2852420Y6084417D01*
X2850388Y6090107D01*
X2847492Y6094933D01*
X2843682Y6098844D01*
X2838856Y6101740D01*
X2832963Y6103518D01*
G37*
G36*
X2920492Y6104128D02*
G01*
X2912567Y6103010D01*
X2905404Y6100013D01*
X2898902Y6095542D01*
X2892806Y6090158D01*
X2892298Y6090158D01*
X2891282Y6102096D01*
X2881122Y6102096D01*
X2881122Y6019800D01*
X2893568Y6019800D01*
X2893568Y6079998D01*
X2899562Y6085840D01*
X2905150Y6090056D01*
X2910840Y6092596D01*
X2916936Y6093460D01*
X2924302Y6092088D01*
X2929331Y6087922D01*
X2932277Y6080810D01*
X2933192Y6070600D01*
X2933192Y6019800D01*
X2945638Y6019800D01*
X2945638Y6072124D01*
X2945282Y6079540D01*
X2944114Y6086043D01*
X2942234Y6091529D01*
X2939542Y6096050D01*
X2936036Y6099556D01*
X2931718Y6102096D01*
X2926537Y6103620D01*
G37*
G36*
X3087116Y6104128D02*
G01*
X3077565Y6103112D01*
X3068828Y6100521D01*
X3061258Y6097066D01*
X3055112Y6093460D01*
X3060192Y6084824D01*
X3065373Y6088075D01*
X3071317Y6091021D01*
X3077921Y6093155D01*
X3085084Y6093968D01*
X3093872Y6092037D01*
X3099257Y6087008D01*
X3102000Y6079947D01*
X3102610Y6071870D01*
X3094177Y6070752D01*
X3086557Y6069431D01*
X3079750Y6067856D01*
X3073704Y6066028D01*
X3068370Y6063945D01*
X3063849Y6061608D01*
X3060039Y6058966D01*
X3056940Y6056020D01*
X3054553Y6052769D01*
X3052876Y6049162D01*
X3051911Y6045200D01*
X3051618Y6041644D01*
X3063748Y6041644D01*
X3064205Y6045708D01*
X3065729Y6049365D01*
X3068421Y6052616D01*
X3072333Y6055512D01*
X3077565Y6058052D01*
X3084322Y6060186D01*
X3092602Y6062014D01*
X3102610Y6063488D01*
X3102610Y6039358D01*
X3096564Y6034379D01*
X3090824Y6030772D01*
X3085033Y6028639D01*
X3078988Y6027928D01*
X3073095Y6028690D01*
X3068218Y6031077D01*
X3064967Y6035344D01*
X3063748Y6041644D01*
X3051618Y6041644D01*
X3052013Y6035649D01*
X3053384Y6031077D01*
X3055569Y6027115D01*
X3058464Y6023813D01*
X3062020Y6021222D01*
X3066135Y6019292D01*
X3070707Y6018174D01*
X3075686Y6017768D01*
X3083204Y6018733D01*
X3090367Y6021273D01*
X3097174Y6025184D01*
X3103372Y6029960D01*
X3103880Y6029960D01*
X3104896Y6019800D01*
X3115056Y6019800D01*
X3115056Y6070854D01*
X3114700Y6077966D01*
X3113532Y6084417D01*
X3111500Y6090107D01*
X3108604Y6094933D01*
X3104794Y6098844D01*
X3099968Y6101740D01*
X3094075Y6103518D01*
G37*
G36*
X3175000Y6104128D02*
G01*
X3169869Y6103823D01*
X3164890Y6102858D01*
X3160115Y6101232D01*
X3155594Y6099048D01*
X3151428Y6096203D01*
X3147618Y6092799D01*
X3144266Y6088837D01*
X3141421Y6084316D01*
X3139084Y6079286D01*
X3137357Y6073648D01*
X3136239Y6067552D01*
X3135884Y6060948D01*
X3136239Y6054394D01*
X3137204Y6048298D01*
X3138779Y6042710D01*
X3140964Y6037681D01*
X3143656Y6033160D01*
X3146856Y6029147D01*
X3150463Y6025743D01*
X3154527Y6022898D01*
X3158947Y6020714D01*
X3163671Y6019088D01*
X3168700Y6018123D01*
X3173984Y6017768D01*
X3181400Y6018530D01*
X3188360Y6020612D01*
X3194812Y6023965D01*
X3200654Y6028436D01*
X3195066Y6036564D01*
X3190900Y6033312D01*
X3186074Y6030671D01*
X3180740Y6028842D01*
X3175000Y6028182D01*
X3169361Y6028791D01*
X3164230Y6030569D01*
X3159709Y6033414D01*
X3155899Y6037224D01*
X3152800Y6041999D01*
X3150514Y6047587D01*
X3149092Y6053937D01*
X3148584Y6060948D01*
X3149092Y6067958D01*
X3150616Y6074308D01*
X3153003Y6079896D01*
X3156254Y6084671D01*
X3160166Y6088481D01*
X3164789Y6091326D01*
X3169920Y6093104D01*
X3175508Y6093714D01*
X3180384Y6093155D01*
X3184804Y6091631D01*
X3188817Y6089345D01*
X3192526Y6086348D01*
X3199130Y6094222D01*
X3194405Y6098032D01*
X3188868Y6101181D01*
X3182467Y6103315D01*
G37*
G36*
X3579114Y6104128D02*
G01*
X3571189Y6103010D01*
X3564026Y6100013D01*
X3557524Y6095542D01*
X3551428Y6090158D01*
X3550920Y6090158D01*
X3549650Y6102096D01*
X3539744Y6102096D01*
X3539744Y6019800D01*
X3551936Y6019800D01*
X3551936Y6079998D01*
X3558032Y6085840D01*
X3563670Y6090056D01*
X3569309Y6092596D01*
X3575558Y6093460D01*
X3582924Y6092088D01*
X3587953Y6087922D01*
X3590899Y6080810D01*
X3591814Y6070600D01*
X3591814Y6019800D01*
X3604260Y6019800D01*
X3604260Y6072124D01*
X3603904Y6079540D01*
X3602736Y6086043D01*
X3600856Y6091529D01*
X3598164Y6096050D01*
X3594658Y6099556D01*
X3590340Y6102096D01*
X3585159Y6103620D01*
G37*
G36*
X4006850Y6104128D02*
G01*
X3997147Y6103112D01*
X3988460Y6100521D01*
X3980942Y6097066D01*
X3974846Y6093460D01*
X3979672Y6084824D01*
X3984904Y6088075D01*
X3990898Y6091021D01*
X3997604Y6093155D01*
X4004818Y6093968D01*
X4013555Y6092037D01*
X4018889Y6087008D01*
X4021582Y6079947D01*
X4022344Y6071870D01*
X4013911Y6070752D01*
X4006291Y6069431D01*
X3999484Y6067856D01*
X3993438Y6066028D01*
X3988104Y6063945D01*
X3983583Y6061608D01*
X3979773Y6058966D01*
X3976674Y6056020D01*
X3974287Y6052769D01*
X3972610Y6049162D01*
X3971645Y6045200D01*
X3971352Y6041644D01*
X3983228Y6041644D01*
X3983736Y6045708D01*
X3985209Y6049365D01*
X3987901Y6052616D01*
X3991813Y6055512D01*
X3997147Y6058052D01*
X4003903Y6060186D01*
X4012285Y6062014D01*
X4022344Y6063488D01*
X4022344Y6039358D01*
X4016248Y6034379D01*
X4010406Y6030772D01*
X4004564Y6028639D01*
X3998468Y6027928D01*
X3992575Y6028690D01*
X3987698Y6031077D01*
X3984447Y6035344D01*
X3983228Y6041644D01*
X3971352Y6041644D01*
X3971747Y6035649D01*
X3973118Y6031077D01*
X3975303Y6027115D01*
X3978198Y6023813D01*
X3981704Y6021222D01*
X3985768Y6019292D01*
X3990289Y6018174D01*
X3995165Y6017768D01*
X4002786Y6018733D01*
X4009948Y6021273D01*
X4016654Y6025184D01*
X4022851Y6029960D01*
X4023360Y6029960D01*
X4024376Y6019800D01*
X4034536Y6019800D01*
X4034536Y6070854D01*
X4034180Y6077966D01*
X4033012Y6084417D01*
X4030979Y6090107D01*
X4028135Y6094933D01*
X4024325Y6098844D01*
X4019550Y6101740D01*
X4013708Y6103518D01*
G37*
G36*
X4196588Y6104128D02*
G01*
X4191914Y6103772D01*
X4187342Y6102756D01*
X4182922Y6101130D01*
X4178757Y6098844D01*
X4174845Y6096000D01*
X4171238Y6092545D01*
X4168038Y6088532D01*
X4165295Y6084011D01*
X4163060Y6078931D01*
X4161434Y6073394D01*
X4160362Y6067298D01*
X4172204Y6067298D01*
X4173220Y6073343D01*
X4174998Y6078677D01*
X4177436Y6083300D01*
X4180535Y6087160D01*
X4184091Y6090208D01*
X4188053Y6092393D01*
X4192320Y6093764D01*
X4196842Y6094222D01*
X4201617Y6093764D01*
X4205833Y6092494D01*
X4209491Y6090310D01*
X4212539Y6087313D01*
X4214977Y6083503D01*
X4216755Y6078880D01*
X4217822Y6073495D01*
X4218178Y6067298D01*
X4160362Y6067298D01*
X4160012Y6060948D01*
X4160367Y6054394D01*
X4161383Y6048298D01*
X4163060Y6042710D01*
X4165295Y6037681D01*
X4168089Y6033160D01*
X4171340Y6029147D01*
X4175048Y6025743D01*
X4179214Y6022898D01*
X4183684Y6020714D01*
X4188510Y6019088D01*
X4193590Y6018123D01*
X4198874Y6017768D01*
X4206900Y6018428D01*
X4213961Y6020257D01*
X4220210Y6022898D01*
X4225798Y6026150D01*
X4221226Y6034532D01*
X4216552Y6031636D01*
X4211574Y6029502D01*
X4206240Y6028131D01*
X4200398Y6027674D01*
X4194454Y6028232D01*
X4189120Y6029858D01*
X4184446Y6032500D01*
X4180382Y6036056D01*
X4177131Y6040475D01*
X4174591Y6045657D01*
X4172965Y6051600D01*
X4172204Y6058154D01*
X4228592Y6058154D01*
X4229100Y6065774D01*
X4228541Y6074206D01*
X4226915Y6081725D01*
X4224223Y6088278D01*
X4220565Y6093815D01*
X4215892Y6098235D01*
X4210354Y6101435D01*
X4203903Y6103467D01*
G37*
G36*
X4284980Y6104128D02*
G01*
X4278274Y6102908D01*
X4272076Y6099454D01*
X4266438Y6094069D01*
X4261612Y6087110D01*
X4261358Y6087110D01*
X4260088Y6102096D01*
X4249928Y6102096D01*
X4249928Y6019800D01*
X4262374Y6019800D01*
X4262374Y6073394D01*
X4267047Y6082538D01*
X4272432Y6088583D01*
X4278071Y6091936D01*
X4283456Y6092952D01*
X4287570Y6092596D01*
X4291330Y6091682D01*
X4293616Y6102350D01*
X4291685Y6103264D01*
X4289704Y6103823D01*
G37*
G36*
X4520946Y6104128D02*
G01*
X4514138Y6102908D01*
X4507839Y6099454D01*
X4502251Y6094069D01*
X4497578Y6087110D01*
X4497070Y6087110D01*
X4496054Y6102096D01*
X4485894Y6102096D01*
X4485894Y6019800D01*
X4498340Y6019800D01*
X4498340Y6073394D01*
X4503013Y6082538D01*
X4508296Y6088583D01*
X4513935Y6091936D01*
X4519422Y6092952D01*
X4523536Y6092596D01*
X4527296Y6091682D01*
X4529582Y6102350D01*
X4527550Y6103264D01*
X4525568Y6103823D01*
G37*
G36*
X4573270Y6104128D02*
G01*
X4568291Y6103823D01*
X4563516Y6102858D01*
X4558944Y6101232D01*
X4554626Y6099048D01*
X4550613Y6096203D01*
X4546955Y6092799D01*
X4543704Y6088837D01*
X4540961Y6084316D01*
X4538726Y6079286D01*
X4537049Y6073648D01*
X4536033Y6067552D01*
X4535678Y6060948D01*
X4548378Y6060948D01*
X4548835Y6067958D01*
X4550206Y6074308D01*
X4552391Y6079896D01*
X4555286Y6084671D01*
X4558944Y6088481D01*
X4563160Y6091326D01*
X4567986Y6093104D01*
X4573270Y6093714D01*
X4578654Y6093104D01*
X4583531Y6091326D01*
X4587798Y6088481D01*
X4591456Y6084671D01*
X4594402Y6079896D01*
X4596587Y6074308D01*
X4597958Y6067958D01*
X4598416Y6060948D01*
X4597958Y6053937D01*
X4596587Y6047587D01*
X4594402Y6041999D01*
X4591456Y6037224D01*
X4587798Y6033414D01*
X4583531Y6030569D01*
X4578654Y6028791D01*
X4573270Y6028182D01*
X4567986Y6028791D01*
X4563160Y6030569D01*
X4558944Y6033414D01*
X4555286Y6037224D01*
X4552391Y6041999D01*
X4550206Y6047587D01*
X4548835Y6053937D01*
X4548378Y6060948D01*
X4535678Y6060948D01*
X4536033Y6054394D01*
X4537049Y6048298D01*
X4538726Y6042710D01*
X4540961Y6037681D01*
X4543704Y6033160D01*
X4546955Y6029147D01*
X4550613Y6025743D01*
X4554626Y6022898D01*
X4558944Y6020714D01*
X4563516Y6019088D01*
X4568291Y6018123D01*
X4573270Y6017768D01*
X4578299Y6018123D01*
X4583125Y6019088D01*
X4587798Y6020714D01*
X4592167Y6022898D01*
X4596231Y6025743D01*
X4599940Y6029147D01*
X4603191Y6033160D01*
X4605985Y6037681D01*
X4608271Y6042710D01*
X4609947Y6048298D01*
X4611014Y6054394D01*
X4611370Y6060948D01*
X4611014Y6067552D01*
X4609947Y6073648D01*
X4608271Y6079286D01*
X4605985Y6084316D01*
X4603191Y6088837D01*
X4599940Y6092850D01*
X4596231Y6096203D01*
X4592167Y6099048D01*
X4587798Y6101232D01*
X4583125Y6102858D01*
X4578299Y6103823D01*
G37*
G36*
X4715256Y6104128D02*
G01*
X4710582Y6103772D01*
X4706010Y6102756D01*
X4701590Y6101130D01*
X4697374Y6098844D01*
X4693412Y6096000D01*
X4689805Y6092545D01*
X4686554Y6088532D01*
X4683810Y6084011D01*
X4681524Y6078931D01*
X4679848Y6073394D01*
X4678776Y6067298D01*
X4690618Y6067298D01*
X4691684Y6073343D01*
X4693564Y6078677D01*
X4696053Y6083300D01*
X4699152Y6087160D01*
X4702759Y6090208D01*
X4706721Y6092393D01*
X4710988Y6093764D01*
X4715510Y6094222D01*
X4720234Y6093764D01*
X4724400Y6092494D01*
X4728057Y6090310D01*
X4731105Y6087313D01*
X4733594Y6083503D01*
X4735372Y6078880D01*
X4736490Y6073495D01*
X4736846Y6067298D01*
X4678776Y6067298D01*
X4678426Y6060948D01*
X4678781Y6054394D01*
X4679848Y6048298D01*
X4681524Y6042710D01*
X4683760Y6037681D01*
X4686604Y6033160D01*
X4689906Y6029147D01*
X4693666Y6025743D01*
X4697780Y6022898D01*
X4702302Y6020714D01*
X4707128Y6019088D01*
X4712258Y6018123D01*
X4717542Y6017768D01*
X4725568Y6018428D01*
X4732629Y6020257D01*
X4738878Y6022898D01*
X4744466Y6026150D01*
X4739894Y6034532D01*
X4735220Y6031636D01*
X4730242Y6029502D01*
X4724908Y6028131D01*
X4719066Y6027674D01*
X4713122Y6028232D01*
X4707788Y6029858D01*
X4703114Y6032500D01*
X4699050Y6036056D01*
X4695799Y6040475D01*
X4693259Y6045657D01*
X4691634Y6051600D01*
X4690872Y6058154D01*
X4747006Y6058154D01*
X4747564Y6061659D01*
X4747768Y6065774D01*
X4747209Y6074206D01*
X4745583Y6081725D01*
X4742891Y6088278D01*
X4739233Y6093815D01*
X4734560Y6098235D01*
X4729022Y6101435D01*
X4722571Y6103467D01*
G37*
G36*
X4801362Y6104128D02*
G01*
X4796231Y6103823D01*
X4791252Y6102858D01*
X4786477Y6101232D01*
X4781956Y6099048D01*
X4777790Y6096203D01*
X4773980Y6092799D01*
X4770628Y6088837D01*
X4767783Y6084316D01*
X4765446Y6079286D01*
X4763719Y6073648D01*
X4762601Y6067552D01*
X4762246Y6060948D01*
X4762601Y6054394D01*
X4763566Y6048298D01*
X4765141Y6042710D01*
X4767326Y6037681D01*
X4770018Y6033160D01*
X4773218Y6029147D01*
X4776825Y6025743D01*
X4780889Y6022898D01*
X4785309Y6020714D01*
X4790033Y6019088D01*
X4795062Y6018123D01*
X4800346Y6017768D01*
X4807762Y6018530D01*
X4814722Y6020612D01*
X4821174Y6023965D01*
X4827016Y6028436D01*
X4821428Y6036564D01*
X4817262Y6033312D01*
X4812487Y6030671D01*
X4807204Y6028842D01*
X4801616Y6028182D01*
X4795875Y6028791D01*
X4790694Y6030569D01*
X4786122Y6033414D01*
X4782261Y6037224D01*
X4779162Y6041999D01*
X4776876Y6047587D01*
X4775454Y6053937D01*
X4774946Y6060948D01*
X4775454Y6067958D01*
X4776978Y6074308D01*
X4779365Y6079896D01*
X4782616Y6084671D01*
X4786528Y6088481D01*
X4791151Y6091326D01*
X4796282Y6093104D01*
X4801870Y6093714D01*
X4806746Y6093155D01*
X4811115Y6091631D01*
X4815179Y6089345D01*
X4818888Y6086348D01*
X4825492Y6094222D01*
X4820818Y6098032D01*
X4815332Y6101181D01*
X4808931Y6103315D01*
G37*
G36*
X1394714Y6102096D02*
G01*
X1394714Y6019800D01*
X1407160Y6019800D01*
X1407160Y6102096D01*
G37*
G36*
X1582420Y6102096D02*
G01*
X1582420Y6049772D01*
X1582775Y6042355D01*
X1583944Y6035852D01*
X1585823Y6030366D01*
X1588516Y6025845D01*
X1592021Y6022340D01*
X1596339Y6019800D01*
X1601520Y6018276D01*
X1607566Y6017768D01*
X1615592Y6018885D01*
X1622602Y6021984D01*
X1629003Y6026759D01*
X1634998Y6033008D01*
X1635506Y6033008D01*
X1636522Y6019800D01*
X1646682Y6019800D01*
X1646682Y6102096D01*
X1634236Y6102096D01*
X1634236Y6043168D01*
X1628394Y6036614D01*
X1622856Y6032093D01*
X1617218Y6029502D01*
X1611122Y6028690D01*
X1603756Y6030010D01*
X1598726Y6034074D01*
X1595780Y6041136D01*
X1594866Y6051296D01*
X1594866Y6102096D01*
G37*
G36*
X3498596Y6102096D02*
G01*
X3498596Y6019800D01*
X3511042Y6019800D01*
X3511042Y6102096D01*
G37*
G36*
X3619246Y6102096D02*
G01*
X3652520Y6019292D01*
X3650742Y6012942D01*
X3647592Y6005525D01*
X3643376Y5999683D01*
X3638042Y5995822D01*
X3631437Y5994400D01*
X3628085Y5994755D01*
X3625087Y5995670D01*
X3622548Y5985510D01*
X3626865Y5984240D01*
X3631946Y5983732D01*
X3637584Y5984290D01*
X3642614Y5985967D01*
X3647033Y5988558D01*
X3650945Y5992063D01*
X3654298Y5996279D01*
X3657244Y6001105D01*
X3659733Y6006439D01*
X3661918Y6012180D01*
X3693414Y6102096D01*
X3681222Y6102096D01*
X3664000Y6049416D01*
X3658870Y6031738D01*
X3658108Y6031738D01*
X3649726Y6055106D01*
X3632200Y6102096D01*
G37*
G36*
X4299966Y6102096D02*
G01*
X4333240Y6019292D01*
X4331462Y6012942D01*
X4328160Y6005525D01*
X4323892Y5999683D01*
X4318609Y5995822D01*
X4312158Y5994400D01*
X4308703Y5994755D01*
X4305808Y5995670D01*
X4303268Y5985510D01*
X4307484Y5984240D01*
X4312666Y5983732D01*
X4318304Y5984290D01*
X4323334Y5985967D01*
X4327702Y5988558D01*
X4331563Y5992063D01*
X4334916Y5996279D01*
X4337862Y6001105D01*
X4340402Y6006439D01*
X4342638Y6012180D01*
X4374134Y6102096D01*
X4361942Y6102096D01*
X4344670Y6049416D01*
X4339336Y6031738D01*
X4338574Y6031738D01*
X4330446Y6055106D01*
X4312920Y6102096D01*
G37*
G36*
X1773428Y6037580D02*
G01*
X1769821Y6036868D01*
X1766824Y6034938D01*
X1764792Y6031788D01*
X1764030Y6027674D01*
X1764792Y6023660D01*
X1766824Y6020511D01*
X1769821Y6018479D01*
X1773428Y6017768D01*
X1777034Y6018479D01*
X1780032Y6020511D01*
X1782064Y6023660D01*
X1782825Y6027674D01*
X1782064Y6031788D01*
X1780032Y6034887D01*
X1777034Y6036868D01*
G37*
D10*
X3505200Y4979415D02*
G01*
X3505200Y4870450D01*
X3505200Y4979415D02*
G01*
X3551936Y4979415D01*
X3567429Y4974336D01*
X3572763Y4969002D01*
X3577843Y4958587D01*
X3577843Y4948173D01*
X3572763Y4937760D01*
X3567429Y4932679D01*
X3551936Y4927600D01*
X3505200Y4927600D01*
X3541522Y4927600D02*
G01*
X3577843Y4870450D01*
X3612134Y4979415D02*
G01*
X3612134Y4870450D01*
X3612134Y4979415D02*
G01*
X3679697Y4979415D01*
X3612134Y4927600D02*
G01*
X3653790Y4927600D01*
X3612134Y4870450D02*
G01*
X3679697Y4870450D01*
X3786886Y4963921D02*
G01*
X3776472Y4974336D01*
X3760724Y4979415D01*
X3740150Y4979415D01*
X3724402Y4974336D01*
X3713988Y4963921D01*
X3713988Y4953507D01*
X3719322Y4943094D01*
X3724402Y4937760D01*
X3734815Y4932679D01*
X3766058Y4922265D01*
X3776472Y4917186D01*
X3781552Y4911852D01*
X3786886Y4901437D01*
X3786886Y4885944D01*
X3776472Y4875529D01*
X3760724Y4870450D01*
X3740150Y4870450D01*
X3724402Y4875529D01*
X3713988Y4885944D01*
X3821175Y4979415D02*
G01*
X3821175Y4870450D01*
X3821175Y4979415D02*
G01*
X3888740Y4979415D01*
X3821175Y4927600D02*
G01*
X3862577Y4927600D01*
X3821175Y4870450D02*
G01*
X3888740Y4870450D01*
X3959352Y4979415D02*
G01*
X3959352Y4870450D01*
X3923029Y4979415D02*
G01*
X3995674Y4979415D01*
X5983477Y4115307D02*
G01*
X5978143Y4125721D01*
X5967729Y4136136D01*
X5957570Y4141215D01*
X5936741Y4141215D01*
X5926327Y4136136D01*
X5915913Y4125721D01*
X5910579Y4115307D01*
X5905500Y4099560D01*
X5905500Y4073652D01*
X5910579Y4058157D01*
X5915913Y4047744D01*
X5926327Y4037329D01*
X5936741Y4032250D01*
X5957570Y4032250D01*
X5967729Y4037329D01*
X5978143Y4047744D01*
X5983477Y4058157D01*
X6017768Y4120387D02*
G01*
X6028181Y4125721D01*
X6043675Y4141215D01*
X6043675Y4032250D01*
X6491477Y4115307D02*
G01*
X6486143Y4125721D01*
X6475729Y4136136D01*
X6465570Y4141215D01*
X6444741Y4141215D01*
X6434327Y4136136D01*
X6423913Y4125721D01*
X6418579Y4115307D01*
X6413500Y4099560D01*
X6413500Y4073652D01*
X6418579Y4058157D01*
X6423913Y4047744D01*
X6434327Y4037329D01*
X6444741Y4032250D01*
X6465570Y4032250D01*
X6475729Y4037329D01*
X6486143Y4047744D01*
X6491477Y4058157D01*
X6530847Y4115307D02*
G01*
X6530847Y4120387D01*
X6536181Y4130802D01*
X6541261Y4136136D01*
X6551675Y4141215D01*
X6572504Y4141215D01*
X6582918Y4136136D01*
X6587997Y4130802D01*
X6593331Y4120387D01*
X6593331Y4109973D01*
X6587997Y4099560D01*
X6577584Y4084065D01*
X6525768Y4032250D01*
X6598411Y4032250D01*
X4040377Y3315207D02*
G01*
X4035043Y3325621D01*
X4024629Y3336036D01*
X4014470Y3341115D01*
X3993641Y3341115D01*
X3983227Y3336036D01*
X3972813Y3325621D01*
X3967479Y3315207D01*
X3962400Y3299460D01*
X3962400Y3273552D01*
X3967479Y3258057D01*
X3972813Y3247644D01*
X3983227Y3237229D01*
X3993641Y3232150D01*
X4014470Y3232150D01*
X4024629Y3237229D01*
X4035043Y3247644D01*
X4040377Y3258057D01*
X4085081Y3341115D02*
G01*
X4142231Y3341115D01*
X4110990Y3299460D01*
X4126484Y3299460D01*
X4136897Y3294379D01*
X4142231Y3289300D01*
X4147311Y3273552D01*
X4147311Y3263137D01*
X4142231Y3247644D01*
X4131818Y3237229D01*
X4116070Y3232150D01*
X4100575Y3232150D01*
X4085081Y3237229D01*
X4079747Y3242310D01*
X4074668Y3252723D01*
X3938777Y5537707D02*
G01*
X3933443Y5548121D01*
X3923029Y5558536D01*
X3912870Y5563615D01*
X3892041Y5563615D01*
X3881627Y5558536D01*
X3871213Y5548121D01*
X3865879Y5537707D01*
X3860800Y5521960D01*
X3860800Y5496052D01*
X3865879Y5480557D01*
X3871213Y5470144D01*
X3881627Y5459729D01*
X3892041Y5454650D01*
X3912870Y5454650D01*
X3923029Y5459729D01*
X3933443Y5470144D01*
X3938777Y5480557D01*
X4024884Y5563615D02*
G01*
X3973068Y5490971D01*
X4051045Y5490971D01*
X4024884Y5563615D02*
G01*
X4024884Y5454650D01*
X5157977Y4839207D02*
G01*
X5152643Y4849621D01*
X5142229Y4860036D01*
X5132070Y4865115D01*
X5111241Y4865115D01*
X5100827Y4860036D01*
X5090413Y4849621D01*
X5085079Y4839207D01*
X5080000Y4823460D01*
X5080000Y4797552D01*
X5085079Y4782057D01*
X5090413Y4771644D01*
X5100827Y4761229D01*
X5111241Y4756150D01*
X5132070Y4756150D01*
X5142229Y4761229D01*
X5152643Y4771644D01*
X5157977Y4782057D01*
X5254497Y4865115D02*
G01*
X5202681Y4865115D01*
X5197347Y4818379D01*
X5202681Y4823460D01*
X5218175Y4828794D01*
X5233670Y4828794D01*
X5249418Y4823460D01*
X5259831Y4813300D01*
X5264911Y4797552D01*
X5264911Y4787137D01*
X5259831Y4771644D01*
X5249418Y4761229D01*
X5233670Y4756150D01*
X5218175Y4756150D01*
X5202681Y4761229D01*
X5197347Y4766310D01*
X5192268Y4776723D01*
X6377177Y4864607D02*
G01*
X6371843Y4875021D01*
X6361429Y4885436D01*
X6351270Y4890515D01*
X6330441Y4890515D01*
X6320027Y4885436D01*
X6309613Y4875021D01*
X6304279Y4864607D01*
X6299200Y4848860D01*
X6299200Y4822952D01*
X6304279Y4807457D01*
X6309613Y4797044D01*
X6320027Y4786629D01*
X6330441Y4781550D01*
X6351270Y4781550D01*
X6361429Y4786629D01*
X6371843Y4797044D01*
X6377177Y4807457D01*
X6473697Y4875021D02*
G01*
X6468618Y4885436D01*
X6452870Y4890515D01*
X6442709Y4890515D01*
X6426961Y4885436D01*
X6416547Y4869687D01*
X6411468Y4843779D01*
X6411468Y4817871D01*
X6416547Y4797044D01*
X6426961Y4786629D01*
X6442709Y4781550D01*
X6447790Y4781550D01*
X6463284Y4786629D01*
X6473697Y4797044D01*
X6479031Y4812537D01*
X6479031Y4817871D01*
X6473697Y4833365D01*
X6463284Y4843779D01*
X6447790Y4848860D01*
X6442709Y4848860D01*
X6426961Y4843779D01*
X6416547Y4833365D01*
X6411468Y4817871D01*
X6069584Y5080000D02*
G01*
X6178550Y5080000D01*
X6069584Y5080000D02*
G01*
X6069584Y5116321D01*
X6074663Y5132070D01*
X6085077Y5142229D01*
X6095491Y5147563D01*
X6111240Y5152644D01*
X6137147Y5152644D01*
X6152641Y5147563D01*
X6163056Y5142229D01*
X6173470Y5132070D01*
X6178550Y5116321D01*
X6178550Y5080000D01*
X6090411Y5186934D02*
G01*
X6085077Y5197347D01*
X6069584Y5213095D01*
X6178550Y5213095D01*
X3938015Y3946499D02*
G01*
X3829050Y3946499D01*
X3938015Y3946499D02*
G01*
X3938015Y3910177D01*
X3932936Y3894429D01*
X3922522Y3884269D01*
X3912108Y3878935D01*
X3896359Y3873855D01*
X3870452Y3873855D01*
X3854958Y3878935D01*
X3844543Y3884269D01*
X3834129Y3894429D01*
X3829050Y3910177D01*
X3829050Y3946499D01*
X3912108Y3834231D02*
G01*
X3917188Y3834231D01*
X3927602Y3829151D01*
X3932936Y3823817D01*
X3938015Y3813403D01*
X3938015Y3792829D01*
X3932936Y3782415D01*
X3927602Y3777081D01*
X3917188Y3772001D01*
X3906774Y3772001D01*
X3896359Y3777081D01*
X3880865Y3787495D01*
X3829050Y3839565D01*
X3829050Y3766667D01*
X901700Y4865115D02*
G01*
X901700Y4756150D01*
X901700Y4865115D02*
G01*
X948436Y4865115D01*
X963929Y4860036D01*
X969263Y4854702D01*
X974344Y4844287D01*
X974344Y4828794D01*
X969263Y4818379D01*
X963929Y4813300D01*
X948436Y4807965D01*
X901700Y4807965D01*
X1008634Y4844287D02*
G01*
X1019047Y4849621D01*
X1034795Y4865115D01*
X1034795Y4756150D01*
X6388100Y5119115D02*
G01*
X6388100Y5010150D01*
X6388100Y5119115D02*
G01*
X6434836Y5119115D01*
X6450329Y5114036D01*
X6455663Y5108702D01*
X6460743Y5098287D01*
X6460743Y5082794D01*
X6455663Y5072379D01*
X6450329Y5067300D01*
X6434836Y5061965D01*
X6388100Y5061965D01*
X6500368Y5093207D02*
G01*
X6500368Y5098287D01*
X6505447Y5108702D01*
X6510781Y5114036D01*
X6521195Y5119115D01*
X6541770Y5119115D01*
X6552184Y5114036D01*
X6557518Y5108702D01*
X6562597Y5098287D01*
X6562597Y5087873D01*
X6557518Y5077460D01*
X6547104Y5061965D01*
X6495034Y5010150D01*
X6567931Y5010150D01*
X2838958Y4558284D02*
G01*
X2849372Y4563363D01*
X2859786Y4573778D01*
X2865120Y4584192D01*
X2870200Y4599939D01*
X2870200Y4625847D01*
X2865120Y4641342D01*
X2859786Y4651755D01*
X2849372Y4662170D01*
X2838958Y4667250D01*
X2818129Y4667250D01*
X2807970Y4662170D01*
X2797556Y4651755D01*
X2792222Y4641342D01*
X2787141Y4625847D01*
X2787141Y4599939D01*
X2792222Y4584192D01*
X2797556Y4573778D01*
X2807970Y4563363D01*
X2818129Y4558284D01*
X2838958Y4558284D01*
X2823463Y4646676D02*
G01*
X2792222Y4677663D01*
X2752852Y4579112D02*
G01*
X2742438Y4573778D01*
X2726690Y4558284D01*
X2726690Y4667250D01*
X6146800Y4293615D02*
G01*
X6146800Y4215637D01*
X6151879Y4200144D01*
X6162293Y4189729D01*
X6178041Y4184650D01*
X6188456Y4184650D01*
X6203950Y4189729D01*
X6214363Y4200144D01*
X6219443Y4215637D01*
X6219443Y4293615D01*
X6259068Y4267707D02*
G01*
X6259068Y4272787D01*
X6264147Y4283202D01*
X6269481Y4288536D01*
X6279895Y4293615D01*
X6300470Y4293615D01*
X6310884Y4288536D01*
X6316218Y4283202D01*
X6321297Y4272787D01*
X6321297Y4262373D01*
X6316218Y4251960D01*
X6305804Y4236465D01*
X6253734Y4184650D01*
X6326631Y4184650D01*
X2400300Y5157215D02*
G01*
X2400300Y5048250D01*
X2400300Y5157215D02*
G01*
X2447036Y5157215D01*
X2462529Y5152136D01*
X2467863Y5146802D01*
X2472943Y5136387D01*
X2472943Y5125973D01*
X2467863Y5115560D01*
X2462529Y5110479D01*
X2447036Y5105400D01*
X2400300Y5105400D01*
X2436622Y5105400D02*
G01*
X2472943Y5048250D01*
X2507234Y5136387D02*
G01*
X2517647Y5141721D01*
X2533395Y5157215D01*
X2533395Y5048250D01*
X2374900Y5703315D02*
G01*
X2374900Y5594350D01*
X2374900Y5703315D02*
G01*
X2421636Y5703315D01*
X2437129Y5698236D01*
X2442463Y5692902D01*
X2447543Y5682487D01*
X2447543Y5672073D01*
X2442463Y5661660D01*
X2437129Y5656579D01*
X2421636Y5651500D01*
X2374900Y5651500D01*
X2411222Y5651500D02*
G01*
X2447543Y5594350D01*
X2487168Y5677407D02*
G01*
X2487168Y5682487D01*
X2492247Y5692902D01*
X2497581Y5698236D01*
X2507995Y5703315D01*
X2528570Y5703315D01*
X2538984Y5698236D01*
X2544318Y5692902D01*
X2549397Y5682487D01*
X2549397Y5672073D01*
X2544318Y5661660D01*
X2533904Y5646165D01*
X2481834Y5594350D01*
X2554731Y5594350D01*
X4406900Y5106415D02*
G01*
X4406900Y4997450D01*
X4406900Y5106415D02*
G01*
X4453636Y5106415D01*
X4469129Y5101336D01*
X4474463Y5096002D01*
X4479543Y5085587D01*
X4479543Y5075173D01*
X4474463Y5064760D01*
X4469129Y5059679D01*
X4453636Y5054600D01*
X4406900Y5054600D01*
X4443222Y5054600D02*
G01*
X4479543Y4997450D01*
X4524247Y5106415D02*
G01*
X4581397Y5106415D01*
X4550409Y5064760D01*
X4565904Y5064760D01*
X4576318Y5059679D01*
X4581397Y5054600D01*
X4586731Y5038852D01*
X4586731Y5028437D01*
X4581397Y5012944D01*
X4570984Y5002529D01*
X4555490Y4997450D01*
X4539995Y4997450D01*
X4524247Y5002529D01*
X4519168Y5007610D01*
X4513834Y5018023D01*
X5422900Y3366515D02*
G01*
X5422900Y3257550D01*
X5422900Y3366515D02*
G01*
X5469636Y3366515D01*
X5485129Y3361436D01*
X5490463Y3356102D01*
X5495543Y3345687D01*
X5495543Y3335273D01*
X5490463Y3324860D01*
X5485129Y3319779D01*
X5469636Y3314700D01*
X5422900Y3314700D01*
X5459222Y3314700D02*
G01*
X5495543Y3257550D01*
X5581904Y3366515D02*
G01*
X5529834Y3293871D01*
X5607811Y3293871D01*
X5581904Y3366515D02*
G01*
X5581904Y3257550D01*
X4813300Y3658615D02*
G01*
X4813300Y3549650D01*
X4813300Y3658615D02*
G01*
X4860036Y3658615D01*
X4875529Y3653536D01*
X4880863Y3648202D01*
X4885943Y3637787D01*
X4885943Y3627373D01*
X4880863Y3616960D01*
X4875529Y3611879D01*
X4860036Y3606800D01*
X4813300Y3606800D01*
X4849622Y3606800D02*
G01*
X4885943Y3549650D01*
X4982718Y3658615D02*
G01*
X4930647Y3658615D01*
X4925568Y3611879D01*
X4930647Y3616960D01*
X4946395Y3622294D01*
X4961890Y3622294D01*
X4977384Y3616960D01*
X4987797Y3606800D01*
X4993131Y3591052D01*
X4993131Y3580637D01*
X4987797Y3565144D01*
X4977384Y3554729D01*
X4961890Y3549650D01*
X4946395Y3549650D01*
X4930647Y3554729D01*
X4925568Y3559810D01*
X4920234Y3570223D01*
X5092700Y4141215D02*
G01*
X5092700Y4032250D01*
X5092700Y4141215D02*
G01*
X5139436Y4141215D01*
X5154929Y4136136D01*
X5160263Y4130802D01*
X5165343Y4120387D01*
X5165343Y4109973D01*
X5160263Y4099560D01*
X5154929Y4094479D01*
X5139436Y4089400D01*
X5092700Y4089400D01*
X5129022Y4089400D02*
G01*
X5165343Y4032250D01*
X5262118Y4125721D02*
G01*
X5256784Y4136136D01*
X5241290Y4141215D01*
X5230875Y4141215D01*
X5215381Y4136136D01*
X5204968Y4120387D01*
X5199634Y4094479D01*
X5199634Y4068571D01*
X5204968Y4047744D01*
X5215381Y4037329D01*
X5230875Y4032250D01*
X5236209Y4032250D01*
X5251704Y4037329D01*
X5262118Y4047744D01*
X5267197Y4063237D01*
X5267197Y4068571D01*
X5262118Y4084065D01*
X5251704Y4094479D01*
X5236209Y4099560D01*
X5230875Y4099560D01*
X5215381Y4094479D01*
X5204968Y4084065D01*
X5199634Y4068571D01*
X5104384Y5486400D02*
G01*
X5213350Y5486400D01*
X5104384Y5486400D02*
G01*
X5104384Y5533136D01*
X5109463Y5548629D01*
X5114797Y5553963D01*
X5125211Y5559044D01*
X5135625Y5559044D01*
X5146040Y5553963D01*
X5151120Y5548629D01*
X5156200Y5533136D01*
X5156200Y5486400D01*
X5156200Y5522721D02*
G01*
X5213350Y5559044D01*
X5104384Y5666231D02*
G01*
X5213350Y5614162D01*
X5104384Y5593334D02*
G01*
X5104384Y5666231D01*
X4545584Y5461000D02*
G01*
X4654550Y5461000D01*
X4545584Y5461000D02*
G01*
X4545584Y5507736D01*
X4550663Y5523229D01*
X4555997Y5528563D01*
X4566411Y5533644D01*
X4576825Y5533644D01*
X4587240Y5528563D01*
X4592320Y5523229D01*
X4597400Y5507736D01*
X4597400Y5461000D01*
X4597400Y5497321D02*
G01*
X4654550Y5533644D01*
X4545584Y5594095D02*
G01*
X4550663Y5578347D01*
X4561077Y5573268D01*
X4571491Y5573268D01*
X4581906Y5578347D01*
X4587240Y5588762D01*
X4592320Y5609589D01*
X4597400Y5625084D01*
X4607813Y5635497D01*
X4618227Y5640831D01*
X4633975Y5640831D01*
X4644390Y5635497D01*
X4649470Y5630418D01*
X4654550Y5614670D01*
X4654550Y5594095D01*
X4649470Y5578347D01*
X4644390Y5573268D01*
X4633975Y5567934D01*
X4618227Y5567934D01*
X4607813Y5573268D01*
X4597400Y5583681D01*
X4592320Y5599176D01*
X4587240Y5620004D01*
X4581906Y5630418D01*
X4571491Y5635497D01*
X4561077Y5635497D01*
X4550663Y5630418D01*
X4545584Y5614670D01*
X4545584Y5594095D01*
X1816100Y4915915D02*
G01*
X1816100Y4806950D01*
X1816100Y4915915D02*
G01*
X1862836Y4915915D01*
X1878329Y4910836D01*
X1883663Y4905502D01*
X1888744Y4895087D01*
X1888744Y4884673D01*
X1883663Y4874260D01*
X1878329Y4869179D01*
X1862836Y4864100D01*
X1816100Y4864100D01*
X1852421Y4864100D02*
G01*
X1888744Y4806950D01*
X1923034Y4915915D02*
G01*
X1923034Y4806950D01*
X1923034Y4915915D02*
G01*
X1990597Y4915915D01*
X1923034Y4864100D02*
G01*
X1964690Y4864100D01*
X1923034Y4806950D02*
G01*
X1990597Y4806950D01*
X2024888Y4915915D02*
G01*
X2024888Y4806950D01*
X2024888Y4806950D02*
G01*
X2087372Y4806950D01*
X2163063Y4915915D02*
G01*
X2121661Y4806950D01*
X2163063Y4915915D02*
G01*
X2204720Y4806950D01*
X2137156Y4843271D02*
G01*
X2189225Y4843271D01*
X2239009Y4915915D02*
G01*
X2280665Y4864100D01*
X2280665Y4806950D01*
X2322068Y4915915D02*
G01*
X2280665Y4864100D01*
X2356358Y4895087D02*
G01*
X2366772Y4900421D01*
X2382520Y4915915D01*
X2382520Y4806950D01*
X5181600Y5208015D02*
G01*
X5181600Y5099050D01*
X5181600Y5208015D02*
G01*
X5228336Y5208015D01*
X5243829Y5202936D01*
X5249163Y5197602D01*
X5254243Y5187187D01*
X5254243Y5176773D01*
X5249163Y5166360D01*
X5243829Y5161279D01*
X5228336Y5156200D01*
X5181600Y5156200D01*
X5217922Y5156200D02*
G01*
X5254243Y5099050D01*
X5288534Y5208015D02*
G01*
X5288534Y5099050D01*
X5288534Y5208015D02*
G01*
X5335270Y5208015D01*
X5351018Y5202936D01*
X5356097Y5197602D01*
X5361431Y5187187D01*
X5361431Y5171694D01*
X5356097Y5161279D01*
X5351018Y5156200D01*
X5335270Y5150865D01*
X5288534Y5150865D01*
X5395722Y5187187D02*
G01*
X5406136Y5192521D01*
X5421629Y5208015D01*
X5421629Y5099050D01*
X4419600Y4776215D02*
G01*
X4419600Y4698237D01*
X4424679Y4682744D01*
X4435093Y4672329D01*
X4450841Y4667250D01*
X4461256Y4667250D01*
X4476750Y4672329D01*
X4487163Y4682744D01*
X4492243Y4698237D01*
X4492243Y4776215D01*
X4526534Y4755387D02*
G01*
X4536947Y4760721D01*
X4552695Y4776215D01*
X4552695Y4667250D01*
X5930900Y3887215D02*
G01*
X5930900Y3778250D01*
X5930900Y3778250D02*
G01*
X5993129Y3778250D01*
X6027420Y3887215D02*
G01*
X6027420Y3778250D01*
X6027420Y3887215D02*
G01*
X6094984Y3887215D01*
X6027420Y3835400D02*
G01*
X6069075Y3835400D01*
X6027420Y3778250D02*
G01*
X6094984Y3778250D01*
X6129274Y3887215D02*
G01*
X6129274Y3778250D01*
X6129274Y3887215D02*
G01*
X6165850Y3887215D01*
X6181343Y3882136D01*
X6191758Y3871721D01*
X6196838Y3861307D01*
X6202172Y3845560D01*
X6202172Y3819652D01*
X6196838Y3804157D01*
X6191758Y3793744D01*
X6181343Y3783329D01*
X6165850Y3778250D01*
X6129274Y3778250D01*
X6236461Y3866387D02*
G01*
X6246875Y3871721D01*
X6262370Y3887215D01*
X6262370Y3778250D01*
X6337300Y3887215D02*
G01*
X6337300Y3778250D01*
X6337300Y3778250D02*
G01*
X6399529Y3778250D01*
X6433820Y3887215D02*
G01*
X6433820Y3778250D01*
X6433820Y3887215D02*
G01*
X6501384Y3887215D01*
X6433820Y3835400D02*
G01*
X6475475Y3835400D01*
X6433820Y3778250D02*
G01*
X6501384Y3778250D01*
X6535674Y3887215D02*
G01*
X6535674Y3778250D01*
X6535674Y3887215D02*
G01*
X6572250Y3887215D01*
X6587743Y3882136D01*
X6598158Y3871721D01*
X6603238Y3861307D01*
X6608572Y3845560D01*
X6608572Y3819652D01*
X6603238Y3804157D01*
X6598158Y3793744D01*
X6587743Y3783329D01*
X6572250Y3778250D01*
X6535674Y3778250D01*
X6647941Y3861307D02*
G01*
X6647941Y3866387D01*
X6653275Y3876802D01*
X6658356Y3882136D01*
X6668770Y3887215D01*
X6689597Y3887215D01*
X6700011Y3882136D01*
X6705091Y3876802D01*
X6710425Y3866387D01*
X6710425Y3855973D01*
X6705091Y3845560D01*
X6694677Y3830065D01*
X6642861Y3778250D01*
X6715506Y3778250D01*
X6769100Y3887215D02*
G01*
X6769100Y3778250D01*
X6769100Y3778250D02*
G01*
X6831329Y3778250D01*
X6865620Y3887215D02*
G01*
X6865620Y3778250D01*
X6865620Y3887215D02*
G01*
X6933184Y3887215D01*
X6865620Y3835400D02*
G01*
X6907275Y3835400D01*
X6865620Y3778250D02*
G01*
X6933184Y3778250D01*
X6967474Y3887215D02*
G01*
X6967474Y3778250D01*
X6967474Y3887215D02*
G01*
X7004050Y3887215D01*
X7019543Y3882136D01*
X7029958Y3871721D01*
X7035038Y3861307D01*
X7040372Y3845560D01*
X7040372Y3819652D01*
X7035038Y3804157D01*
X7029958Y3793744D01*
X7019543Y3783329D01*
X7004050Y3778250D01*
X6967474Y3778250D01*
X7085075Y3887215D02*
G01*
X7142225Y3887215D01*
X7110984Y3845560D01*
X7126477Y3845560D01*
X7136891Y3840479D01*
X7142225Y3835400D01*
X7147306Y3819652D01*
X7147306Y3809237D01*
X7142225Y3793744D01*
X7131811Y3783329D01*
X7116063Y3778250D01*
X7100570Y3778250D01*
X7085075Y3783329D01*
X7079741Y3788410D01*
X7074661Y3798823D01*
D11*
X3601598Y5412399D02*
G01*
X4221591Y5412399D01*
X4221591Y5052395D02*
G01*
X3601598Y5052395D01*
X3606794Y5105397D02*
G01*
X3657594Y5054597D01*
X3606794Y5359397D02*
G01*
X3657594Y5410197D01*
X4165594Y5410197D02*
G01*
X4216394Y5359397D01*
X4165594Y5054597D02*
G01*
X4216394Y5105397D01*
X4221591Y5412399D02*
G01*
X4221591Y5330512D01*
X4221591Y5134284D02*
G01*
X4221591Y5052395D01*
X3601598Y5412399D02*
G01*
X3601598Y5330512D01*
X3601598Y5134284D02*
G01*
X3601598Y5052395D01*
X5393796Y4464898D02*
G01*
X5883803Y4464898D01*
X5883803Y4094901D02*
G01*
X5393796Y4094901D01*
X5883803Y4167144D02*
G01*
X5883803Y4094901D01*
X5393796Y4094901D02*
G01*
X5393796Y4167144D01*
X5393796Y4392655D02*
G01*
X5393796Y4464898D01*
X5883803Y4464898D02*
G01*
X5883803Y4392655D01*
X6612996Y4464898D02*
G01*
X7103003Y4464898D01*
X7103003Y4094901D02*
G01*
X6612996Y4094901D01*
X7103003Y4167144D02*
G01*
X7103003Y4094901D01*
X6612996Y4094901D02*
G01*
X6612996Y4167144D01*
X6612996Y4392655D02*
G01*
X6612996Y4464898D01*
X7103003Y4464898D02*
G01*
X7103003Y4392655D01*
X4212696Y3601298D02*
G01*
X4702703Y3601298D01*
X4702703Y3231301D02*
G01*
X4212696Y3231301D01*
X4702703Y3303544D02*
G01*
X4702703Y3231301D01*
X4212696Y3231301D02*
G01*
X4212696Y3303544D01*
X4212696Y3529055D02*
G01*
X4212696Y3601298D01*
X4702703Y3601298D02*
G01*
X4702703Y3529055D01*
X3691996Y5963498D02*
G01*
X4182003Y5963498D01*
X4182003Y5593501D02*
G01*
X3691996Y5593501D01*
X4182003Y5665744D02*
G01*
X4182003Y5593501D01*
X3691996Y5593501D02*
G01*
X3691996Y5665744D01*
X3691996Y5891255D02*
G01*
X3691996Y5963498D01*
X4182003Y5963498D02*
G01*
X4182003Y5891255D01*
X5689600Y4699000D02*
G01*
X5816600Y4699000D01*
X6781800Y4953000D02*
G01*
X6654800Y4953000D01*
X6184600Y5346700D02*
G01*
X6184600Y5334000D01*
X6464300Y5334000D02*
G01*
X6184600Y5334000D01*
X6464300Y5359400D02*
G01*
X6464300Y5334000D01*
X6184600Y5366100D02*
G01*
X6184600Y5346700D01*
X6464300Y5346700D01*
X6464300Y5366100D01*
X6184600Y5366100D02*
G01*
X6184600Y5886099D01*
X6184600Y5886099D02*
G01*
X6464599Y5886099D01*
X6464599Y5366100D02*
G01*
X6464599Y5886099D01*
X6184600Y5366100D02*
G01*
X6464599Y5366100D01*
X6184600Y5462026D02*
G01*
X6464599Y5462026D01*
X3784899Y4216400D02*
G01*
X3784899Y4229100D01*
X3505200Y4229100D02*
G01*
X3784899Y4229100D01*
X3505200Y4203700D02*
G01*
X3505200Y4229100D01*
X3784899Y4196999D02*
G01*
X3784899Y4216400D01*
X3505200Y4216400D01*
X3505200Y4196999D01*
X3784899Y4196999D02*
G01*
X3784899Y3677000D01*
X3784899Y3677000D02*
G01*
X3504900Y3677000D01*
X3504900Y4196999D02*
G01*
X3504900Y3677000D01*
X3784899Y4196999D02*
G01*
X3504900Y4196999D01*
X3784899Y4101073D02*
G01*
X3504900Y4101073D01*
X1319728Y4724400D02*
G01*
X1337091Y4764397D01*
X1237096Y4764397D01*
X1256784Y4724400D01*
X1387094Y4724402D02*
G01*
X1387094Y3200400D01*
X1387094Y4724400D02*
G01*
X627095Y4724400D01*
X1387094Y3200400D02*
G01*
X627095Y3200400D01*
X705302Y4724402D02*
G01*
X705302Y3200400D01*
X627095Y4724402D02*
G01*
X627095Y3200400D01*
X1167175Y4724402D02*
G01*
X1167175Y3200400D01*
X7194092Y5202301D02*
G01*
X7194092Y6202298D01*
X6579666Y5201767D02*
G01*
X6562300Y5162295D01*
X6662300Y5162295D01*
X6642608Y5201767D01*
X6512300Y5202301D02*
G01*
X6512300Y6202298D01*
X6512300Y5202301D02*
G01*
X7272299Y5202301D01*
X6512300Y6202298D02*
G01*
X7272299Y6202298D01*
X7272299Y5202301D02*
G01*
X7272299Y6202298D01*
X6732219Y5202301D02*
G01*
X6732219Y6202298D01*
X2646809Y5141087D02*
G01*
X3042790Y5141087D01*
X6037709Y4709287D02*
G01*
X6433690Y4709287D01*
X2633799Y5388701D02*
G01*
X2293800Y5388701D01*
X2293800Y5388701D02*
G01*
X2293800Y5558701D01*
X2633799Y5388701D02*
G01*
X2633799Y5558701D01*
X2293800Y5558701D01*
X2293800Y5355498D02*
G01*
X2633799Y5355498D01*
X2633799Y5355498D02*
G01*
X2633799Y5185498D01*
X2293800Y5355498D02*
G01*
X2293800Y5185498D01*
X2633799Y5185498D01*
X4313100Y4974498D02*
G01*
X4653099Y4974498D01*
X4653099Y4974498D02*
G01*
X4653099Y4804498D01*
X4313100Y4974498D02*
G01*
X4313100Y4804498D01*
X4653099Y4804498D01*
X5265600Y4009298D02*
G01*
X5605599Y4009298D01*
X5605599Y4009298D02*
G01*
X5605599Y3839298D01*
X5265600Y4009298D02*
G01*
X5265600Y3839298D01*
X5605599Y3839298D01*
X5265600Y3564798D02*
G01*
X5605599Y3564798D01*
X5605599Y3564798D02*
G01*
X5605599Y3394798D01*
X5265600Y3564798D02*
G01*
X5265600Y3394798D01*
X5605599Y3394798D01*
X5265600Y3793398D02*
G01*
X5605599Y3793398D01*
X5605599Y3793398D02*
G01*
X5605599Y3623398D01*
X5265600Y3793398D02*
G01*
X5265600Y3623398D01*
X5605599Y3623398D01*
X4906101Y5341800D02*
G01*
X4906101Y5681799D01*
X4906101Y5681799D02*
G01*
X5076101Y5681799D01*
X4906101Y5341800D02*
G01*
X5076101Y5341800D01*
X5076101Y5681799D01*
X4860198Y5681799D02*
G01*
X4860198Y5341800D01*
X4860198Y5341800D02*
G01*
X4690198Y5341800D01*
X4860198Y5681799D02*
G01*
X4690198Y5681799D01*
X4690198Y5341800D01*
D12*
X2807299Y3870015D02*
G01*
X2807299Y3375101D01*
X2807299Y4575098D02*
G01*
X2807299Y4080225D01*
X2807299Y4575096D02*
G01*
X2909087Y4575098D01*
X2807299Y3375103D02*
G01*
X2909087Y3375101D01*
X1861261Y4400804D02*
G01*
X1861261Y4006342D01*
X1963089Y3904995D02*
G01*
X1798040Y3744213D01*
X3281273Y3795100D02*
G01*
X3281273Y3602380D01*
X2417673Y3602380D01*
X2417673Y3902379D01*
X2415260Y3904795D01*
X2013661Y3904795D01*
X1962861Y3904795D01*
D11*
X1527990Y4755098D02*
G01*
X3448001Y4755098D01*
X1528003Y3195096D02*
G01*
X3448014Y3195096D01*
X1528000Y4755100D02*
G01*
X1528000Y3195099D01*
X1868170Y3550412D02*
G01*
X1868170Y3773170D01*
X3448014Y3195096D02*
G01*
X3448014Y3945630D01*
X3448014Y4004569D02*
G01*
X3448014Y4755098D01*
X2955594Y3875100D02*
G01*
X2655595Y3875100D01*
X2655595Y4075099D01*
X2955594Y4075099D01*
X2955594Y3875100D01*
X5189999Y5245100D02*
G01*
X6129799Y5245100D01*
X6129799Y6197600D01*
X5177299Y6197600D01*
X5177299Y6159500D01*
X5228099Y6159500D01*
X5228099Y5308600D01*
X5189999Y5308600D01*
X5189999Y5245100D01*
X5709892Y5863046D02*
G01*
X5709892Y5592000D01*
X4790399Y4627498D02*
G01*
X4150400Y4627498D01*
X4790399Y3627501D02*
G01*
X4150400Y3627501D01*
X4790399Y4627498D02*
G01*
X4790399Y4578568D01*
X4790399Y4438431D02*
G01*
X4790399Y4324568D01*
X4790399Y4184431D02*
G01*
X4790399Y4070568D01*
X4790399Y3930431D02*
G01*
X4790399Y3816568D01*
X4790399Y3676431D02*
G01*
X4790399Y3627501D01*
X4150400Y4627498D02*
G01*
X4150400Y4601463D01*
X4150400Y4415536D02*
G01*
X4150400Y4324568D01*
X4150400Y4184431D02*
G01*
X4150400Y4070568D01*
X4150400Y3930431D02*
G01*
X4150400Y3816568D01*
X4150400Y3676431D02*
G01*
X4150400Y3627501D01*
X5989111Y3393300D02*
G01*
X6016337Y3393300D01*
X6226462Y3393300D02*
G01*
X6253688Y3393300D01*
X6420911Y3406000D02*
G01*
X6448137Y3406000D01*
X6658262Y3406000D02*
G01*
X6685488Y3406000D01*
X6840011Y3406000D02*
G01*
X6867237Y3406000D01*
X7077362Y3406000D02*
G01*
X7104588Y3406000D01*
G75*
G01*
X2646680Y5141214D02*
G03*
X3042920Y5141214I198120J-149840D01*
G75*
G01*
X6037580Y4709414D02*
G03*
X6433820Y4709414I198120J-149840D01*
G75*
G01*
X5574510Y5727636D02*
G03*
X5574510Y5730176I135343J1270D01*
G75*
G01*
X6025378Y3718740D02*
G03*
X5989112Y3393300I96022J-175441D01*
G75*
G01*
X6253688Y3393300D02*
G03*
X6217422Y3718740I-132288J149999D01*
G75*
G01*
X6457178Y3731440D02*
G03*
X6420912Y3406000I96022J-175441D01*
G75*
G01*
X6685488Y3406000D02*
G03*
X6649222Y3731440I-132288J149999D01*
G75*
G01*
X6876278Y3731440D02*
G03*
X6840012Y3406000I96022J-175441D01*
G75*
G01*
X7104588Y3406000D02*
G03*
X7068322Y3731440I-132288J149999D01*
G75*
G01
X3968394Y5232400D02*
G03X3968394Y5232400I-56794J0D01*
G75*
G01
X4013200Y5232400D02*
G03X4013200Y5232400I-101600J0D01*
G75*
G01
X4171594Y5232400D02*
G03X4171594Y5232400I-56794J0D01*
G75*
G01
X3765194Y5232400D02*
G03X3765194Y5232400I-56794J0D01*
G75*
G01
X5951220Y4826000D02*
G03X5951220Y4826000I-325120J0D01*
G75*
G01
X7170420Y4826000D02*
G03X7170420Y4826000I-325120J0D01*
G75*
G01
X3388106Y4655109D02*
G03X3388106Y4655109I-50013J0D01*
G75*
G01
X4267200Y4533900D02*
G03X4267200Y4533900I-25400J0D01*
M02*
