G04 Layer: TopLayer*
G04 EasyEDA v6.5.22, 2023-02-12 13:27:05*
G04 9d2100fef43045d39f3febf0e37c7303,ed70181f279245e6aff80281ee7dc86a,10*
G04 Gerber Generator version 0.2*
G04 Scale: 100 percent, Rotated: No, Reflected: No *
G04 Dimensions in millimeters *
G04 leading zeros omitted , absolute positions ,4 integer and 5 decimal *
%FSLAX45Y45*%
%MOMM*%

%ADD10C,0.3000*%
%ADD11C,0.6000*%
%ADD12C,1.0000*%
%ADD13R,1.4000X1.5000*%
%ADD14C,1.6000*%
%ADD15C,1.6510*%
%ADD16R,1.6510X1.6510*%
%ADD17C,1.8000*%
%ADD18C,2.0000*%
%ADD19O,0.8999982X1.5999968*%
%ADD20R,0.9000X1.6000*%
%ADD21C,1.5240*%
%ADD22C,2.7940*%
%ADD23R,1.3970X1.3970*%
%ADD24C,1.3970*%
%ADD25C,0.0151*%

%LPD*%
G36*
X740664Y3230473D02*
G01*
X736752Y3231286D01*
X733501Y3233470D01*
X731266Y3236772D01*
X730504Y3240633D01*
X730504Y6159296D01*
X731266Y6163208D01*
X733501Y6166510D01*
X736752Y6168694D01*
X740664Y6169456D01*
X6238646Y6169456D01*
X6242659Y6168644D01*
X6246063Y6166256D01*
X6248196Y6162700D01*
X6248755Y6158585D01*
X6247638Y6154623D01*
X6244996Y6151422D01*
X6243421Y6150152D01*
X6238138Y6144717D01*
X6234785Y6142431D01*
X6230823Y6141618D01*
X5755487Y6141567D01*
X5743498Y6140246D01*
X5734354Y6137960D01*
X5731865Y6137148D01*
X5723178Y6133541D01*
X5720842Y6132372D01*
X5712764Y6127496D01*
X5710631Y6125972D01*
X5703366Y6119977D01*
X5682030Y6098692D01*
X5678728Y6096508D01*
X5674868Y6095746D01*
X5670956Y6096508D01*
X5667654Y6098692D01*
X5649518Y6116777D01*
X5642254Y6122771D01*
X5640120Y6124295D01*
X5632043Y6129172D01*
X5629706Y6130340D01*
X5621020Y6133947D01*
X5618530Y6134760D01*
X5609386Y6137046D01*
X5597448Y6138367D01*
X4010355Y6138367D01*
X3998417Y6137046D01*
X3989273Y6134760D01*
X3986784Y6133947D01*
X3978097Y6130340D01*
X3975760Y6129172D01*
X3967683Y6124295D01*
X3965549Y6122771D01*
X3958285Y6116777D01*
X3827322Y5985814D01*
X3821328Y5978550D01*
X3819804Y5976416D01*
X3814927Y5968339D01*
X3813759Y5966002D01*
X3810152Y5957316D01*
X3809339Y5954826D01*
X3807053Y5945682D01*
X3805732Y5933744D01*
X3805682Y5821730D01*
X3804970Y5818276D01*
X3805682Y5814669D01*
X3805682Y5742330D01*
X3804970Y5738723D01*
X3805682Y5735269D01*
X3805682Y4736541D01*
X3804920Y4732680D01*
X3802735Y4729378D01*
X3586022Y4512614D01*
X3580028Y4505350D01*
X3578504Y4503216D01*
X3573627Y4495139D01*
X3572459Y4492802D01*
X3568852Y4484116D01*
X3568039Y4481626D01*
X3565855Y4472736D01*
X3564991Y4465269D01*
X3563924Y4461814D01*
X3561740Y4458919D01*
X3558387Y4455871D01*
X3555796Y4452874D01*
X3552342Y4450232D01*
X3548075Y4449318D01*
X3390341Y4449318D01*
X3386480Y4450080D01*
X3383178Y4452264D01*
X3260953Y4574540D01*
X3258820Y4577588D01*
X3257956Y4581194D01*
X3257346Y4592878D01*
X3254552Y4610506D01*
X3249980Y4627676D01*
X3243580Y4644339D01*
X3235502Y4660188D01*
X3225800Y4675124D01*
X3214573Y4688992D01*
X3201974Y4701590D01*
X3188157Y4712766D01*
X3173171Y4722469D01*
X3157321Y4730597D01*
X3140710Y4736947D01*
X3123488Y4741570D01*
X3105912Y4744364D01*
X3088081Y4745278D01*
X3070301Y4744364D01*
X3052724Y4741570D01*
X3035503Y4736947D01*
X3018891Y4730597D01*
X3002991Y4722469D01*
X2988056Y4712766D01*
X2974238Y4701590D01*
X2961640Y4688992D01*
X2950413Y4675124D01*
X2940710Y4660188D01*
X2932633Y4644339D01*
X2926232Y4627676D01*
X2921609Y4610506D01*
X2918815Y4592878D01*
X2917901Y4575098D01*
X2918815Y4557318D01*
X2921609Y4539691D01*
X2926232Y4522520D01*
X2932633Y4505858D01*
X2940710Y4490008D01*
X2950413Y4475073D01*
X2961640Y4461205D01*
X2974238Y4448606D01*
X2988056Y4437430D01*
X3002991Y4427728D01*
X3018891Y4419600D01*
X3035503Y4413250D01*
X3052724Y4408627D01*
X3070301Y4405833D01*
X3088081Y4404918D01*
X3105912Y4405833D01*
X3123488Y4408627D01*
X3140710Y4413250D01*
X3157321Y4419600D01*
X3171139Y4426661D01*
X3175254Y4427778D01*
X3179419Y4427118D01*
X3182924Y4424781D01*
X3297885Y4309922D01*
X3305149Y4303928D01*
X3307283Y4302404D01*
X3315360Y4297527D01*
X3317697Y4296359D01*
X3326384Y4292752D01*
X3328873Y4291939D01*
X3338017Y4289653D01*
X3349955Y4288332D01*
X3554272Y4288282D01*
X3558235Y4287469D01*
X3561537Y4285183D01*
X3563721Y4282948D01*
X3575304Y4273651D01*
X3587902Y4265828D01*
X3601364Y4259630D01*
X3615486Y4255160D01*
X3630117Y4252417D01*
X3644900Y4251502D01*
X3659682Y4252417D01*
X3674313Y4255160D01*
X3688435Y4259630D01*
X3701897Y4265828D01*
X3714496Y4273651D01*
X3726078Y4282948D01*
X3736390Y4293616D01*
X3745331Y4305452D01*
X3752748Y4318304D01*
X3758539Y4331970D01*
X3762603Y4346244D01*
X3764889Y4360875D01*
X3765346Y4375708D01*
X3763975Y4390491D01*
X3760774Y4404969D01*
X3755847Y4418990D01*
X3749243Y4432249D01*
X3747465Y4434890D01*
X3746093Y4438091D01*
X3745839Y4441545D01*
X3746754Y4444898D01*
X3748786Y4447692D01*
X3945077Y4644085D01*
X3951071Y4651349D01*
X3952595Y4653483D01*
X3957472Y4661560D01*
X3958640Y4663897D01*
X3962247Y4672584D01*
X3963060Y4675073D01*
X3965346Y4684217D01*
X3966667Y4696155D01*
X3966718Y5893358D01*
X3967479Y5897219D01*
X3969664Y5900521D01*
X4043578Y5974435D01*
X4046880Y5976620D01*
X4050741Y5977382D01*
X4685385Y5977382D01*
X4689144Y5976670D01*
X4692396Y5974588D01*
X4694631Y5971438D01*
X4695494Y5967679D01*
X4694936Y5963869D01*
X4693005Y5960516D01*
X4690567Y5957722D01*
X4682794Y5946140D01*
X4678426Y5937250D01*
X4730750Y5937250D01*
X4730750Y5967222D01*
X4731512Y5971133D01*
X4733747Y5974435D01*
X4736998Y5976620D01*
X4740910Y5977382D01*
X4809490Y5977382D01*
X4813401Y5976620D01*
X4816652Y5974435D01*
X4818888Y5971133D01*
X4819650Y5967222D01*
X4819650Y5937250D01*
X4871974Y5937250D01*
X4867605Y5946140D01*
X4859832Y5957722D01*
X4857394Y5960516D01*
X4855464Y5963869D01*
X4854905Y5967679D01*
X4855768Y5971438D01*
X4858004Y5974588D01*
X4861255Y5976670D01*
X4865014Y5977382D01*
X4901285Y5977382D01*
X4905044Y5976670D01*
X4908296Y5974588D01*
X4910531Y5971438D01*
X4911394Y5967679D01*
X4910836Y5963869D01*
X4908905Y5960516D01*
X4906467Y5957722D01*
X4898694Y5946140D01*
X4892243Y5933084D01*
X4889246Y5929528D01*
X4889754Y5927598D01*
X4889195Y5923838D01*
X4888026Y5920435D01*
X4885334Y5906719D01*
X4884420Y5892800D01*
X4885334Y5878880D01*
X4888026Y5865164D01*
X4889195Y5861761D01*
X4889754Y5858002D01*
X4889449Y5856020D01*
X4892243Y5852515D01*
X4898694Y5839460D01*
X4906467Y5827877D01*
X4915662Y5817362D01*
X4926177Y5808167D01*
X4937760Y5800394D01*
X4950256Y5794248D01*
X4963464Y5789726D01*
X4977180Y5787034D01*
X4991100Y5786120D01*
X5005019Y5787034D01*
X5018735Y5789726D01*
X5021021Y5790539D01*
X5024729Y5791047D01*
X5028336Y5790184D01*
X5031435Y5788101D01*
X5125262Y5694324D01*
X5132273Y5689041D01*
X5139740Y5685332D01*
X5147818Y5683046D01*
X5156657Y5682183D01*
X5322316Y5682183D01*
X5325973Y5681522D01*
X5329174Y5679541D01*
X5331409Y5676544D01*
X5332476Y5674360D01*
X5340248Y5662777D01*
X5349443Y5652262D01*
X5359958Y5643067D01*
X5371541Y5635294D01*
X5384038Y5629148D01*
X5397296Y5624677D01*
X5410962Y5621934D01*
X5424881Y5621020D01*
X5438800Y5621934D01*
X5452516Y5624677D01*
X5454802Y5625439D01*
X5458510Y5625998D01*
X5462168Y5625134D01*
X5465267Y5623001D01*
X5570169Y5518099D01*
X5572302Y5515000D01*
X5573166Y5511342D01*
X5572607Y5507634D01*
X5571845Y5505297D01*
X5569102Y5491632D01*
X5568188Y5477713D01*
X5569102Y5463794D01*
X5571845Y5450078D01*
X5576316Y5436870D01*
X5582513Y5424373D01*
X5590235Y5412740D01*
X5599430Y5402275D01*
X5609945Y5393080D01*
X5621528Y5385308D01*
X5634075Y5379110D01*
X5647283Y5374640D01*
X5660948Y5371947D01*
X5674868Y5371033D01*
X5688838Y5371947D01*
X5702503Y5374640D01*
X5715711Y5379110D01*
X5728208Y5385308D01*
X5739841Y5393080D01*
X5750306Y5402275D01*
X5759551Y5412740D01*
X5767273Y5424373D01*
X5773470Y5436870D01*
X5777941Y5450078D01*
X5780684Y5463794D01*
X5781598Y5477713D01*
X5780684Y5491632D01*
X5777941Y5505297D01*
X5773470Y5518505D01*
X5767273Y5531053D01*
X5759551Y5542635D01*
X5750306Y5553151D01*
X5739841Y5562346D01*
X5728208Y5570118D01*
X5715711Y5576265D01*
X5702503Y5580735D01*
X5688838Y5583478D01*
X5674868Y5584393D01*
X5660948Y5583478D01*
X5647283Y5580735D01*
X5644997Y5579973D01*
X5641289Y5579465D01*
X5637682Y5580329D01*
X5634583Y5582412D01*
X5529580Y5687364D01*
X5527497Y5690463D01*
X5526633Y5694121D01*
X5527192Y5697829D01*
X5527954Y5700115D01*
X5530646Y5713780D01*
X5531561Y5727700D01*
X5530646Y5741619D01*
X5527954Y5755335D01*
X5523433Y5768543D01*
X5517286Y5781040D01*
X5509514Y5792673D01*
X5500319Y5803138D01*
X5489854Y5812332D01*
X5478221Y5820105D01*
X5465724Y5826302D01*
X5452516Y5830773D01*
X5438800Y5833465D01*
X5424881Y5834380D01*
X5410962Y5833465D01*
X5397296Y5830773D01*
X5384038Y5826302D01*
X5371541Y5820105D01*
X5359958Y5812332D01*
X5349443Y5803138D01*
X5340248Y5792673D01*
X5332476Y5781040D01*
X5331409Y5778906D01*
X5329174Y5775909D01*
X5325973Y5773928D01*
X5322316Y5773216D01*
X5179263Y5773216D01*
X5175351Y5773978D01*
X5172049Y5776214D01*
X5095798Y5852464D01*
X5093716Y5855563D01*
X5092852Y5859170D01*
X5093360Y5862878D01*
X5094173Y5865164D01*
X5096865Y5878880D01*
X5097780Y5892800D01*
X5096865Y5906719D01*
X5094173Y5920435D01*
X5089652Y5933643D01*
X5083505Y5946140D01*
X5075732Y5957722D01*
X5073294Y5960516D01*
X5071364Y5963869D01*
X5070805Y5967679D01*
X5071668Y5971438D01*
X5073904Y5974588D01*
X5077155Y5976670D01*
X5080914Y5977382D01*
X5557062Y5977382D01*
X5560923Y5976620D01*
X5564225Y5974435D01*
X5566003Y5972657D01*
X5568086Y5969660D01*
X5568950Y5966104D01*
X5569102Y5963767D01*
X5571845Y5950102D01*
X5576316Y5936894D01*
X5582513Y5924346D01*
X5590235Y5912764D01*
X5599430Y5902248D01*
X5609945Y5893054D01*
X5621528Y5885281D01*
X5634075Y5879134D01*
X5647283Y5874664D01*
X5660948Y5871921D01*
X5674868Y5871006D01*
X5688838Y5871921D01*
X5702503Y5874664D01*
X5715711Y5879134D01*
X5728208Y5885281D01*
X5739841Y5893054D01*
X5750306Y5902248D01*
X5759551Y5912764D01*
X5767273Y5924346D01*
X5773470Y5936894D01*
X5777941Y5950102D01*
X5780684Y5963767D01*
X5780836Y5966206D01*
X5781700Y5969762D01*
X5783783Y5972759D01*
X5788660Y5977636D01*
X5791962Y5979820D01*
X5795822Y5980582D01*
X6230569Y5980582D01*
X6234226Y5979922D01*
X6237427Y5977940D01*
X6249060Y5967222D01*
X6261150Y5958687D01*
X6274257Y5951626D01*
X6288074Y5946292D01*
X6302451Y5942685D01*
X6317183Y5940856D01*
X6326784Y5940856D01*
X6330696Y5940094D01*
X6333998Y5937859D01*
X6378041Y5893866D01*
X6385306Y5887872D01*
X6387439Y5886348D01*
X6395516Y5881471D01*
X6397853Y5880303D01*
X6406540Y5876696D01*
X6409029Y5875883D01*
X6418173Y5873597D01*
X6430111Y5872276D01*
X6864908Y5872226D01*
X6869023Y5871362D01*
X6872427Y5868924D01*
X6881418Y5859119D01*
X6893102Y5849010D01*
X6905955Y5840374D01*
X6919722Y5833313D01*
X6934200Y5827928D01*
X6949236Y5824321D01*
X6964578Y5822492D01*
X6980021Y5822492D01*
X6995363Y5824321D01*
X7010400Y5827928D01*
X7024928Y5833313D01*
X7038644Y5840374D01*
X7051497Y5849010D01*
X7063181Y5859119D01*
X7073646Y5870498D01*
X7082637Y5883097D01*
X7090105Y5896610D01*
X7095896Y5910935D01*
X7100011Y5925870D01*
X7102297Y5941161D01*
X7102754Y5956604D01*
X7101382Y5971997D01*
X7098182Y5987135D01*
X7093203Y6001766D01*
X7086600Y6015736D01*
X7078319Y6028791D01*
X7068566Y6040831D01*
X7057491Y6051600D01*
X7045198Y6060948D01*
X7031888Y6068822D01*
X7017715Y6075070D01*
X7002932Y6079591D01*
X6987743Y6082334D01*
X6972300Y6083249D01*
X6956856Y6082334D01*
X6941667Y6079591D01*
X6926884Y6075070D01*
X6912711Y6068822D01*
X6899402Y6060948D01*
X6887108Y6051600D01*
X6876034Y6040831D01*
X6872935Y6037021D01*
X6869430Y6034227D01*
X6865061Y6033262D01*
X6470497Y6033262D01*
X6466636Y6034024D01*
X6463334Y6036208D01*
X6447993Y6051600D01*
X6445808Y6054750D01*
X6444996Y6058458D01*
X6444589Y6072225D01*
X6442303Y6086906D01*
X6438239Y6101130D01*
X6432448Y6114796D01*
X6425031Y6127648D01*
X6416090Y6139484D01*
X6405778Y6150152D01*
X6404203Y6151422D01*
X6401562Y6154623D01*
X6400444Y6158585D01*
X6401003Y6162700D01*
X6403136Y6166256D01*
X6406540Y6168644D01*
X6410553Y6169456D01*
X7159345Y6169456D01*
X7163206Y6168694D01*
X7166508Y6166510D01*
X7168692Y6163208D01*
X7169505Y6159296D01*
X7169505Y4459528D01*
X7168692Y4455617D01*
X7166508Y4452315D01*
X7163206Y4450130D01*
X7159345Y4449368D01*
X7155434Y4450130D01*
X7152131Y4452315D01*
X7006285Y4598162D01*
X7004100Y4601464D01*
X7003338Y4605375D01*
X7003338Y4702759D01*
X7004100Y4706670D01*
X7006285Y4709972D01*
X7009587Y4712157D01*
X7013498Y4712919D01*
X7054342Y4712919D01*
X7060793Y4713579D01*
X7066483Y4715306D01*
X7071766Y4718100D01*
X7076389Y4721910D01*
X7080199Y4726533D01*
X7082993Y4731816D01*
X7084720Y4737506D01*
X7085380Y4743958D01*
X7085380Y4908042D01*
X7084720Y4914493D01*
X7082993Y4920183D01*
X7080199Y4925466D01*
X7076389Y4930089D01*
X7071766Y4933899D01*
X7066483Y4936693D01*
X7060793Y4938420D01*
X7054342Y4939080D01*
X6890258Y4939080D01*
X6883806Y4938420D01*
X6878116Y4936693D01*
X6872833Y4933899D01*
X6868210Y4930089D01*
X6864400Y4925466D01*
X6861606Y4920183D01*
X6859879Y4914493D01*
X6859219Y4908042D01*
X6859219Y4743958D01*
X6859879Y4737506D01*
X6861606Y4731816D01*
X6864400Y4726533D01*
X6868210Y4721910D01*
X6872833Y4718100D01*
X6876948Y4715916D01*
X6879793Y4713681D01*
X6881672Y4710531D01*
X6882333Y4706975D01*
X6882333Y4629962D01*
X6881520Y4626102D01*
X6879336Y4622800D01*
X6876034Y4620564D01*
X6872173Y4619802D01*
X6448348Y4619802D01*
X6444488Y4620564D01*
X6441186Y4622800D01*
X6439001Y4626102D01*
X6438188Y4629962D01*
X6438188Y4638802D01*
X6437579Y4645253D01*
X6435852Y4650943D01*
X6433007Y4656226D01*
X6429248Y4660849D01*
X6424625Y4664608D01*
X6419342Y4667453D01*
X6413652Y4669180D01*
X6407200Y4669790D01*
X6318199Y4669790D01*
X6311747Y4669180D01*
X6306058Y4667453D01*
X6300774Y4664608D01*
X6296152Y4660849D01*
X6293307Y4657344D01*
X6290411Y4654956D01*
X6286906Y4653737D01*
X6283147Y4653889D01*
X6279692Y4655413D01*
X6273444Y4659680D01*
X6264554Y4663948D01*
X6264554Y4605629D01*
X6277051Y4605629D01*
X6280912Y4604867D01*
X6284214Y4602683D01*
X6286398Y4599381D01*
X6287211Y4595469D01*
X6287211Y4523130D01*
X6286398Y4519218D01*
X6284214Y4515916D01*
X6280912Y4513732D01*
X6277051Y4512970D01*
X6264554Y4512970D01*
X6264554Y4454652D01*
X6273444Y4458919D01*
X6279692Y4463186D01*
X6283147Y4464710D01*
X6286906Y4464862D01*
X6290411Y4463643D01*
X6293307Y4461256D01*
X6296152Y4457750D01*
X6300774Y4453991D01*
X6306058Y4451146D01*
X6311747Y4449419D01*
X6318199Y4448810D01*
X6407200Y4448810D01*
X6413652Y4449419D01*
X6419342Y4451146D01*
X6424625Y4453991D01*
X6429248Y4457750D01*
X6433007Y4462373D01*
X6435852Y4467656D01*
X6437579Y4473346D01*
X6438188Y4479798D01*
X6438188Y4488637D01*
X6439001Y4492498D01*
X6441186Y4495800D01*
X6444488Y4498035D01*
X6448348Y4498797D01*
X6930339Y4498797D01*
X6934200Y4498035D01*
X6937502Y4495800D01*
X7048500Y4384802D01*
X7050836Y4381246D01*
X7051497Y4377080D01*
X7050379Y4372965D01*
X7047687Y4369714D01*
X7037730Y4361688D01*
X7027875Y4351528D01*
X7019391Y4340199D01*
X7012431Y4327855D01*
X7007148Y4314698D01*
X7003542Y4301032D01*
X7001764Y4286961D01*
X7001764Y4272838D01*
X7003135Y4262170D01*
X7003034Y4259072D01*
X7002068Y4256176D01*
X7000240Y4253687D01*
X6924802Y4178300D01*
X6921500Y4176064D01*
X6917639Y4175302D01*
X6679082Y4175302D01*
X6675120Y4176115D01*
X6671818Y4178401D01*
X6669633Y4181805D01*
X6668973Y4185818D01*
X6669887Y4189729D01*
X6672275Y4192981D01*
X6683349Y4203039D01*
X6692544Y4213809D01*
X6700266Y4225696D01*
X6704075Y4233570D01*
X6650329Y4233570D01*
X6650329Y4185462D01*
X6649567Y4181601D01*
X6647383Y4178300D01*
X6644081Y4176064D01*
X6640169Y4175302D01*
X6567830Y4175302D01*
X6563918Y4176064D01*
X6560616Y4178300D01*
X6558432Y4181601D01*
X6557670Y4185462D01*
X6557670Y4233570D01*
X6503822Y4233570D01*
X6504431Y4231944D01*
X6511391Y4219600D01*
X6519875Y4208272D01*
X6529730Y4198112D01*
X6535623Y4193387D01*
X6538264Y4190237D01*
X6539382Y4186224D01*
X6538874Y4182110D01*
X6536740Y4178554D01*
X6533337Y4176166D01*
X6529273Y4175302D01*
X5967882Y4175302D01*
X5963920Y4176115D01*
X5960618Y4178401D01*
X5958433Y4181805D01*
X5957773Y4185818D01*
X5958687Y4189729D01*
X5961075Y4192981D01*
X5972149Y4203039D01*
X5981344Y4213809D01*
X5989066Y4225696D01*
X5992876Y4233570D01*
X5939129Y4233570D01*
X5939129Y4185462D01*
X5938367Y4181601D01*
X5936183Y4178300D01*
X5932881Y4176064D01*
X5928969Y4175302D01*
X5856630Y4175302D01*
X5852718Y4176064D01*
X5849416Y4178300D01*
X5847232Y4181601D01*
X5846470Y4185462D01*
X5846470Y4233570D01*
X5792622Y4233570D01*
X5793232Y4231944D01*
X5800191Y4219600D01*
X5808675Y4208272D01*
X5818530Y4198112D01*
X5824423Y4193387D01*
X5827064Y4190237D01*
X5828182Y4186224D01*
X5827674Y4182110D01*
X5825540Y4178554D01*
X5822137Y4176166D01*
X5818073Y4175302D01*
X5459882Y4175302D01*
X5455920Y4176115D01*
X5452618Y4178401D01*
X5450433Y4181805D01*
X5449773Y4185818D01*
X5450687Y4189729D01*
X5453075Y4192981D01*
X5464149Y4203039D01*
X5473344Y4213809D01*
X5481066Y4225696D01*
X5487212Y4238447D01*
X5491683Y4251858D01*
X5494375Y4265777D01*
X5495290Y4279900D01*
X5494375Y4294022D01*
X5493816Y4296968D01*
X5493715Y4300270D01*
X5494680Y4303420D01*
X5496610Y4306112D01*
X5541670Y4351172D01*
X5548223Y4358894D01*
X5553354Y4367428D01*
X5556402Y4374743D01*
X5558790Y4384446D01*
X5559094Y4386529D01*
X5559602Y4394504D01*
X5559602Y4488637D01*
X5560364Y4492498D01*
X5562600Y4495800D01*
X5565902Y4498035D01*
X5569762Y4498797D01*
X6030925Y4498797D01*
X6034887Y4497984D01*
X6038189Y4495749D01*
X6046317Y4481779D01*
X6053378Y4472940D01*
X6061659Y4465269D01*
X6070955Y4458919D01*
X6081115Y4454042D01*
X6091885Y4450689D01*
X6103061Y4449013D01*
X6114338Y4449013D01*
X6125514Y4450689D01*
X6136284Y4454042D01*
X6146444Y4458919D01*
X6155740Y4465269D01*
X6164580Y4473498D01*
X6167780Y4475480D01*
X6172911Y4476191D01*
X6176619Y4475480D01*
X6179820Y4473498D01*
X6188659Y4465269D01*
X6197955Y4458919D01*
X6206845Y4454652D01*
X6206845Y4512970D01*
X6194298Y4512970D01*
X6190234Y4513783D01*
X6186830Y4516221D01*
X6184696Y4519777D01*
X6184188Y4524705D01*
X6184188Y4593894D01*
X6184696Y4598822D01*
X6186830Y4602378D01*
X6190234Y4604816D01*
X6194298Y4605629D01*
X6206845Y4605629D01*
X6206845Y4663948D01*
X6197955Y4659680D01*
X6188659Y4653330D01*
X6186271Y4651146D01*
X6182969Y4649063D01*
X6179108Y4648403D01*
X6175298Y4649266D01*
X6172098Y4651451D01*
X6169964Y4654753D01*
X6169202Y4658563D01*
X6169202Y4847539D01*
X6169964Y4851400D01*
X6172200Y4854702D01*
X6367170Y5049672D01*
X6373723Y5057394D01*
X6378854Y5065928D01*
X6381902Y5073243D01*
X6384290Y5082844D01*
X6385712Y5086197D01*
X6388303Y5088839D01*
X6400139Y5097221D01*
X6411112Y5107228D01*
X6420764Y5118506D01*
X6428943Y5130850D01*
X6435547Y5144109D01*
X6440474Y5158130D01*
X6443675Y5172608D01*
X6445046Y5187391D01*
X6444589Y5202224D01*
X6442303Y5216855D01*
X6438239Y5231130D01*
X6432448Y5244795D01*
X6425031Y5257647D01*
X6416090Y5269484D01*
X6405778Y5280152D01*
X6394196Y5289448D01*
X6381597Y5297220D01*
X6368135Y5303469D01*
X6354013Y5307939D01*
X6339382Y5310682D01*
X6324600Y5311597D01*
X6309817Y5310682D01*
X6295186Y5307939D01*
X6281064Y5303469D01*
X6267602Y5297220D01*
X6255004Y5289448D01*
X6243421Y5280152D01*
X6233109Y5269484D01*
X6224168Y5257647D01*
X6216751Y5244795D01*
X6210960Y5231130D01*
X6206896Y5216855D01*
X6204610Y5202224D01*
X6204153Y5187391D01*
X6205524Y5172608D01*
X6208725Y5158130D01*
X6213652Y5144109D01*
X6220256Y5130850D01*
X6228435Y5118506D01*
X6238341Y5107025D01*
X6240729Y5103723D01*
X6241643Y5099761D01*
X6240881Y5095748D01*
X6238646Y5092344D01*
X6066129Y4919827D01*
X6059576Y4912106D01*
X6054445Y4903571D01*
X6051397Y4896256D01*
X6049010Y4886553D01*
X6048705Y4884470D01*
X6048197Y4876495D01*
X6048197Y4642713D01*
X6047841Y4640072D01*
X6046825Y4637582D01*
X6038189Y4622850D01*
X6034887Y4620615D01*
X6030925Y4619802D01*
X5569762Y4619802D01*
X5565902Y4620564D01*
X5562600Y4622800D01*
X5560364Y4626102D01*
X5559602Y4629962D01*
X5559602Y4702759D01*
X5560364Y4706670D01*
X5562600Y4709972D01*
X5565902Y4712157D01*
X5569762Y4712919D01*
X5581142Y4712919D01*
X5587593Y4713579D01*
X5593283Y4715306D01*
X5598566Y4718100D01*
X5603189Y4721910D01*
X5606999Y4726533D01*
X5609793Y4731816D01*
X5611520Y4737506D01*
X5612180Y4743958D01*
X5612180Y4908042D01*
X5611520Y4914493D01*
X5609793Y4920183D01*
X5606999Y4925466D01*
X5603189Y4930089D01*
X5598566Y4933899D01*
X5593283Y4936693D01*
X5587593Y4938420D01*
X5581142Y4939080D01*
X5417058Y4939080D01*
X5410606Y4938420D01*
X5404916Y4936693D01*
X5399633Y4933899D01*
X5395010Y4930089D01*
X5391200Y4925466D01*
X5388406Y4920183D01*
X5386679Y4914493D01*
X5386019Y4908042D01*
X5386019Y4743958D01*
X5386679Y4737506D01*
X5388406Y4731816D01*
X5391200Y4726533D01*
X5395010Y4721910D01*
X5399633Y4718100D01*
X5404916Y4715306D01*
X5410606Y4713579D01*
X5417058Y4712919D01*
X5428437Y4712919D01*
X5432298Y4712157D01*
X5435600Y4709972D01*
X5437835Y4706670D01*
X5438597Y4702759D01*
X5438597Y4423460D01*
X5437835Y4419600D01*
X5435600Y4416298D01*
X5411165Y4391863D01*
X5407406Y4389475D01*
X5403037Y4388916D01*
X5388356Y4390339D01*
X5374182Y4389882D01*
X5360212Y4387596D01*
X5346649Y4383582D01*
X5333695Y4377842D01*
X5321604Y4370527D01*
X5310530Y4361688D01*
X5300675Y4351528D01*
X5292191Y4340199D01*
X5285232Y4327855D01*
X5279948Y4314698D01*
X5276342Y4301032D01*
X5274564Y4286961D01*
X5274564Y4272838D01*
X5276342Y4258767D01*
X5279948Y4245102D01*
X5285232Y4231944D01*
X5292191Y4219600D01*
X5300675Y4208272D01*
X5310530Y4198112D01*
X5316423Y4193387D01*
X5319064Y4190237D01*
X5320182Y4186224D01*
X5319674Y4182110D01*
X5317540Y4178554D01*
X5314137Y4176166D01*
X5310073Y4175302D01*
X5261660Y4175302D01*
X5257800Y4176064D01*
X5254498Y4178300D01*
X4952492Y4480255D01*
X4950612Y4482896D01*
X4949647Y4485944D01*
X4949647Y4489145D01*
X4951222Y4498441D01*
X4951679Y4511852D01*
X4950358Y4525213D01*
X4947208Y4538218D01*
X4942433Y4550714D01*
X4935982Y4562500D01*
X4928006Y4573270D01*
X4918710Y4582922D01*
X4913477Y4587036D01*
X4911394Y4589272D01*
X4910074Y4592015D01*
X4909616Y4595012D01*
X4909616Y4786934D01*
X4910277Y4790592D01*
X4912258Y4793792D01*
X4915255Y4796028D01*
X4917440Y4797094D01*
X4929022Y4804867D01*
X4939538Y4814062D01*
X4948732Y4824577D01*
X4956505Y4836160D01*
X4962652Y4848656D01*
X4967173Y4861864D01*
X4969865Y4875580D01*
X4970780Y4889500D01*
X4969865Y4903419D01*
X4967173Y4917135D01*
X4962652Y4930343D01*
X4956505Y4942840D01*
X4948732Y4954422D01*
X4939538Y4964938D01*
X4929022Y4974132D01*
X4917440Y4981905D01*
X4904943Y4988052D01*
X4891735Y4992573D01*
X4878019Y4995265D01*
X4864100Y4996180D01*
X4850180Y4995265D01*
X4836464Y4992573D01*
X4823256Y4988052D01*
X4810760Y4981905D01*
X4799177Y4974132D01*
X4788662Y4964938D01*
X4779467Y4954422D01*
X4771694Y4942840D01*
X4765548Y4930343D01*
X4761026Y4917135D01*
X4758334Y4903419D01*
X4757420Y4889500D01*
X4758334Y4875580D01*
X4761026Y4861864D01*
X4765548Y4848656D01*
X4771694Y4836160D01*
X4779467Y4824577D01*
X4788662Y4814062D01*
X4799177Y4804867D01*
X4810760Y4797094D01*
X4812944Y4796028D01*
X4815941Y4793792D01*
X4817922Y4790592D01*
X4818583Y4786934D01*
X4818583Y4610049D01*
X4817821Y4606188D01*
X4815636Y4602886D01*
X4812385Y4600702D01*
X4806137Y4598060D01*
X4794605Y4591202D01*
X4784090Y4582922D01*
X4774793Y4573270D01*
X4766818Y4562500D01*
X4762652Y4554880D01*
X4760264Y4551984D01*
X4749495Y4545990D01*
X4742688Y4540351D01*
X4627524Y4425086D01*
X4622241Y4418126D01*
X4618482Y4410608D01*
X4616196Y4402531D01*
X4615383Y4393742D01*
X4615383Y3472637D01*
X4615078Y3470097D01*
X4614062Y3467658D01*
X4612132Y3464255D01*
X4606848Y3451098D01*
X4603242Y3437432D01*
X4601464Y3423361D01*
X4601464Y3409238D01*
X4603242Y3395167D01*
X4606848Y3381501D01*
X4612132Y3368344D01*
X4619091Y3356000D01*
X4627575Y3344672D01*
X4637430Y3334512D01*
X4648504Y3325672D01*
X4660595Y3318357D01*
X4673549Y3312617D01*
X4687112Y3308604D01*
X4701082Y3306318D01*
X4715256Y3305860D01*
X4729327Y3307232D01*
X4743145Y3310382D01*
X4756404Y3315258D01*
X4768951Y3321812D01*
X4780584Y3329940D01*
X4791049Y3339439D01*
X4800244Y3350209D01*
X4807966Y3362096D01*
X4814112Y3374847D01*
X4818583Y3388258D01*
X4821275Y3402177D01*
X4822190Y3416300D01*
X4821275Y3430422D01*
X4818583Y3444341D01*
X4814112Y3457752D01*
X4807966Y3470503D01*
X4800244Y3482390D01*
X4791049Y3493160D01*
X4780584Y3502660D01*
X4768951Y3510787D01*
X4756404Y3517341D01*
X4743145Y3522218D01*
X4729327Y3525367D01*
X4715611Y3526688D01*
X4712004Y3527704D01*
X4709058Y3529990D01*
X4707077Y3533140D01*
X4706416Y3536797D01*
X4706416Y4371136D01*
X4707178Y4375048D01*
X4709363Y4378350D01*
X4767478Y4436414D01*
X4770628Y4438548D01*
X4774387Y4439361D01*
X4778197Y4438751D01*
X4781448Y4436770D01*
X4789220Y4429760D01*
X4800244Y4422190D01*
X4812233Y4416145D01*
X4824882Y4411726D01*
X4838039Y4409084D01*
X4849825Y4408271D01*
X4853330Y4407408D01*
X4856327Y4405325D01*
X4896053Y4365548D01*
X4898288Y4362246D01*
X4899050Y4358335D01*
X4898237Y4354474D01*
X4896002Y4351172D01*
X4892700Y4348988D01*
X4888788Y4348226D01*
X4871364Y4352848D01*
X4858105Y4354626D01*
X4844694Y4354626D01*
X4831435Y4352848D01*
X4818481Y4349292D01*
X4806137Y4344060D01*
X4794605Y4337202D01*
X4784090Y4328922D01*
X4774793Y4319270D01*
X4766818Y4308500D01*
X4760366Y4296714D01*
X4755591Y4284218D01*
X4752441Y4271213D01*
X4751120Y4257852D01*
X4751578Y4244441D01*
X4753813Y4231233D01*
X4757775Y4218432D01*
X4763414Y4206290D01*
X4770628Y4194962D01*
X4779264Y4184751D01*
X4789220Y4175760D01*
X4800244Y4168190D01*
X4812233Y4162145D01*
X4824882Y4157726D01*
X4838039Y4155084D01*
X4851400Y4154170D01*
X4864760Y4155084D01*
X4877460Y4157624D01*
X4880813Y4157776D01*
X4883962Y4156811D01*
X4886655Y4154881D01*
X5006136Y4035450D01*
X5008321Y4032148D01*
X5009083Y4026865D01*
X5008422Y4023207D01*
X5006441Y4020007D01*
X5003444Y4017772D01*
X5001260Y4016705D01*
X4989677Y4008932D01*
X4979162Y3999737D01*
X4969205Y3988257D01*
X4965903Y3985768D01*
X4961890Y3984802D01*
X4957826Y3985463D01*
X4954371Y3987749D01*
X4952085Y3991203D01*
X4951374Y3995267D01*
X4951679Y4003852D01*
X4950358Y4017213D01*
X4947208Y4030218D01*
X4942433Y4042714D01*
X4935982Y4054500D01*
X4928006Y4065270D01*
X4918710Y4074922D01*
X4908194Y4083202D01*
X4896662Y4090060D01*
X4884318Y4095292D01*
X4871364Y4098848D01*
X4858105Y4100626D01*
X4844694Y4100626D01*
X4831435Y4098848D01*
X4818481Y4095292D01*
X4806137Y4090060D01*
X4794605Y4083202D01*
X4784090Y4074922D01*
X4774793Y4065270D01*
X4766818Y4054500D01*
X4760366Y4042714D01*
X4755591Y4030218D01*
X4752441Y4017213D01*
X4751120Y4003852D01*
X4751578Y3990441D01*
X4753813Y3977233D01*
X4757775Y3964432D01*
X4763414Y3952290D01*
X4770628Y3940962D01*
X4779264Y3930751D01*
X4789220Y3921760D01*
X4800244Y3914190D01*
X4812233Y3908145D01*
X4817719Y3905961D01*
X4819548Y3904538D01*
X4860086Y3863949D01*
X4862271Y3860647D01*
X4863084Y3856786D01*
X4862271Y3852875D01*
X4860086Y3849573D01*
X4856784Y3847388D01*
X4852924Y3846626D01*
X4844694Y3846626D01*
X4831435Y3844848D01*
X4818481Y3841292D01*
X4806137Y3836060D01*
X4794605Y3829202D01*
X4784090Y3820922D01*
X4774793Y3811270D01*
X4766818Y3800500D01*
X4760366Y3788714D01*
X4755591Y3776218D01*
X4752441Y3763213D01*
X4751120Y3749852D01*
X4751578Y3736441D01*
X4753813Y3723233D01*
X4757775Y3710432D01*
X4763414Y3698290D01*
X4770628Y3686962D01*
X4779264Y3676751D01*
X4789220Y3667760D01*
X4803292Y3657904D01*
X4805222Y3654755D01*
X4805883Y3651097D01*
X4805934Y3617772D01*
X4807153Y3609086D01*
X4809794Y3601161D01*
X4813909Y3593795D01*
X4819548Y3586987D01*
X4948682Y3457854D01*
X4950460Y3455466D01*
X4956048Y3438956D01*
X4962194Y3426460D01*
X4969967Y3414877D01*
X4979162Y3404362D01*
X4989677Y3395167D01*
X5001260Y3387394D01*
X5013756Y3381248D01*
X5026964Y3376726D01*
X5040680Y3374034D01*
X5054600Y3373120D01*
X5068519Y3374034D01*
X5082235Y3376726D01*
X5095443Y3381248D01*
X5107940Y3387394D01*
X5119522Y3395167D01*
X5130038Y3404362D01*
X5139232Y3414877D01*
X5147005Y3426460D01*
X5153152Y3438956D01*
X5157673Y3452164D01*
X5160365Y3465880D01*
X5161280Y3479800D01*
X5160365Y3493719D01*
X5157673Y3507435D01*
X5153152Y3520643D01*
X5147005Y3533140D01*
X5139232Y3544722D01*
X5130038Y3555237D01*
X5119522Y3564432D01*
X5107940Y3572205D01*
X5095443Y3578351D01*
X5082235Y3582873D01*
X5075732Y3584143D01*
X5072075Y3585667D01*
X5069281Y3588461D01*
X5067757Y3592118D01*
X5067757Y3596081D01*
X5069281Y3599738D01*
X5072075Y3602532D01*
X5075732Y3604056D01*
X5082235Y3605326D01*
X5095443Y3609848D01*
X5107940Y3615994D01*
X5119522Y3623767D01*
X5130038Y3632962D01*
X5139232Y3643477D01*
X5147005Y3655060D01*
X5153152Y3667556D01*
X5157673Y3680764D01*
X5160365Y3694480D01*
X5161280Y3708400D01*
X5160365Y3722319D01*
X5157673Y3736035D01*
X5153152Y3749243D01*
X5147005Y3761740D01*
X5139232Y3773322D01*
X5130038Y3783837D01*
X5119522Y3793032D01*
X5107940Y3800805D01*
X5094884Y3807256D01*
X5091379Y3810050D01*
X5089448Y3814114D01*
X5089448Y3818585D01*
X5091379Y3822649D01*
X5094884Y3825443D01*
X5107940Y3831894D01*
X5119522Y3839667D01*
X5130038Y3848862D01*
X5139232Y3859377D01*
X5147005Y3870960D01*
X5153152Y3883456D01*
X5157673Y3896664D01*
X5160365Y3910380D01*
X5161280Y3924300D01*
X5160365Y3938219D01*
X5157673Y3951935D01*
X5153152Y3965143D01*
X5147005Y3977640D01*
X5139232Y3989222D01*
X5130038Y3999737D01*
X5119522Y4008932D01*
X5107940Y4016705D01*
X5105755Y4017772D01*
X5102758Y4020007D01*
X5100777Y4023207D01*
X5100116Y4026865D01*
X5100066Y4053027D01*
X5098846Y4061714D01*
X5096205Y4069638D01*
X5092090Y4077004D01*
X5086451Y4083812D01*
X4950968Y4219295D01*
X4948885Y4222292D01*
X4948021Y4225848D01*
X4951222Y4244441D01*
X4951679Y4257852D01*
X4950358Y4271213D01*
X4947208Y4284218D01*
X4945532Y4288586D01*
X4944872Y4292447D01*
X4945735Y4296257D01*
X4947970Y4299508D01*
X4951272Y4301642D01*
X4955133Y4302404D01*
X4958943Y4301591D01*
X4962245Y4299407D01*
X5189372Y4072229D01*
X5197094Y4065676D01*
X5205628Y4060545D01*
X5212943Y4057497D01*
X5222646Y4055110D01*
X5224729Y4054805D01*
X5232704Y4054297D01*
X6946595Y4054297D01*
X6954570Y4054805D01*
X6956653Y4055110D01*
X6966356Y4057497D01*
X6973671Y4060545D01*
X6982206Y4065676D01*
X6989927Y4072229D01*
X7085838Y4168190D01*
X7088428Y4170019D01*
X7091476Y4171035D01*
X7094626Y4171035D01*
X7101382Y4169918D01*
X7115556Y4169460D01*
X7129627Y4170832D01*
X7143445Y4173982D01*
X7155789Y4178554D01*
X7159650Y4179163D01*
X7163409Y4178300D01*
X7166609Y4176064D01*
X7168743Y4172813D01*
X7169505Y4169003D01*
X7169505Y3240633D01*
X7168692Y3236772D01*
X7166508Y3233470D01*
X7163206Y3231286D01*
X7159345Y3230473D01*
X3208274Y3230473D01*
X3204413Y3231286D01*
X3201111Y3233470D01*
X3198876Y3236772D01*
X3198114Y3240684D01*
X3198926Y3244596D01*
X3201111Y3247847D01*
X3214573Y3261207D01*
X3225800Y3275076D01*
X3235502Y3290011D01*
X3243580Y3305860D01*
X3249980Y3322523D01*
X3254552Y3339693D01*
X3257346Y3357321D01*
X3258312Y3375101D01*
X3257346Y3392881D01*
X3254705Y3409746D01*
X3254959Y3414064D01*
X3256991Y3417925D01*
X3260496Y3420567D01*
X3264712Y3421481D01*
X3551123Y3421481D01*
X3555085Y3420668D01*
X3558438Y3418382D01*
X3563721Y3412947D01*
X3575304Y3403650D01*
X3587902Y3395827D01*
X3601364Y3389629D01*
X3615486Y3385159D01*
X3630117Y3382416D01*
X3644900Y3381501D01*
X3659682Y3382416D01*
X3674313Y3385159D01*
X3688435Y3389629D01*
X3701897Y3395827D01*
X3714496Y3403650D01*
X3726078Y3412947D01*
X3736390Y3423615D01*
X3745331Y3435451D01*
X3752748Y3448304D01*
X3758539Y3461969D01*
X3762603Y3476193D01*
X3764889Y3490874D01*
X3765346Y3505708D01*
X3763975Y3520490D01*
X3760774Y3534968D01*
X3755847Y3548938D01*
X3749243Y3562248D01*
X3741064Y3574592D01*
X3731412Y3585870D01*
X3720439Y3595878D01*
X3708349Y3604412D01*
X3695242Y3611473D01*
X3681425Y3616807D01*
X3667048Y3620414D01*
X3652316Y3622243D01*
X3637483Y3622243D01*
X3622751Y3620414D01*
X3608374Y3616807D01*
X3594557Y3611473D01*
X3581450Y3604412D01*
X3569360Y3595878D01*
X3557727Y3585159D01*
X3554526Y3583178D01*
X3550869Y3582517D01*
X3212185Y3582466D01*
X3200247Y3581146D01*
X3191103Y3578860D01*
X3188614Y3578047D01*
X3179927Y3574440D01*
X3177540Y3573272D01*
X3169513Y3568395D01*
X3167329Y3566871D01*
X3160115Y3560876D01*
X3141218Y3542080D01*
X3138322Y3540048D01*
X3134918Y3539134D01*
X3131413Y3539439D01*
X3123488Y3541572D01*
X3105912Y3544366D01*
X3088081Y3545281D01*
X3070301Y3544366D01*
X3052724Y3541572D01*
X3035503Y3536950D01*
X3024530Y3532733D01*
X3020720Y3532073D01*
X3016910Y3532886D01*
X3013710Y3535070D01*
X2781300Y3767480D01*
X2779064Y3770782D01*
X2778302Y3774694D01*
X2778302Y4891836D01*
X2779064Y4895646D01*
X2781198Y4898948D01*
X2784398Y4901133D01*
X2788208Y4901996D01*
X2792069Y4901336D01*
X2795371Y4899253D01*
X2797759Y4897069D01*
X2807055Y4890719D01*
X2817215Y4885842D01*
X2827985Y4882489D01*
X2839161Y4880813D01*
X2850438Y4880813D01*
X2861614Y4882489D01*
X2872384Y4885842D01*
X2882544Y4890719D01*
X2888792Y4894986D01*
X2892247Y4896510D01*
X2896006Y4896662D01*
X2899511Y4895443D01*
X2902407Y4893056D01*
X2905252Y4889550D01*
X2909874Y4885791D01*
X2915158Y4882946D01*
X2920847Y4881219D01*
X2927299Y4880610D01*
X2942945Y4880610D01*
X2942945Y4944770D01*
X2930398Y4944770D01*
X2926334Y4945583D01*
X2922930Y4948021D01*
X2920796Y4951577D01*
X2920288Y4956505D01*
X2920288Y5025694D01*
X2920796Y5030622D01*
X2922930Y5034178D01*
X2926334Y5036616D01*
X2930398Y5037429D01*
X2942945Y5037429D01*
X2942945Y5101590D01*
X2927299Y5101590D01*
X2920847Y5100980D01*
X2918409Y5100218D01*
X2914650Y5099812D01*
X2911043Y5100828D01*
X2907995Y5103063D01*
X2906014Y5106263D01*
X2905302Y5109972D01*
X2905302Y5177485D01*
X2906217Y5181701D01*
X2908808Y5185156D01*
X2920238Y5195062D01*
X2929432Y5205577D01*
X2937205Y5217160D01*
X2943352Y5229656D01*
X2947873Y5242864D01*
X2950565Y5256580D01*
X2951480Y5270500D01*
X2950565Y5284419D01*
X2947873Y5298135D01*
X2943352Y5311343D01*
X2937205Y5323840D01*
X2929432Y5335422D01*
X2920238Y5345938D01*
X2908808Y5355844D01*
X2906217Y5359298D01*
X2905302Y5363514D01*
X2905302Y5380685D01*
X2906217Y5384901D01*
X2908808Y5388356D01*
X2920238Y5398262D01*
X2929432Y5408777D01*
X2937205Y5420360D01*
X2943352Y5432856D01*
X2947873Y5446064D01*
X2950565Y5459780D01*
X2951480Y5473700D01*
X2950565Y5487619D01*
X2947873Y5501335D01*
X2943352Y5514543D01*
X2937205Y5527040D01*
X2929432Y5538622D01*
X2920238Y5549138D01*
X2909722Y5558332D01*
X2898140Y5566105D01*
X2885643Y5572252D01*
X2872435Y5576773D01*
X2858719Y5579465D01*
X2844800Y5580380D01*
X2830880Y5579465D01*
X2817164Y5576773D01*
X2803956Y5572252D01*
X2791460Y5566105D01*
X2779877Y5558332D01*
X2769362Y5549138D01*
X2760167Y5538622D01*
X2752394Y5527040D01*
X2746248Y5514543D01*
X2741726Y5501335D01*
X2739034Y5487619D01*
X2738120Y5473700D01*
X2739034Y5459780D01*
X2741726Y5446064D01*
X2746248Y5432856D01*
X2752394Y5420360D01*
X2760167Y5408777D01*
X2769362Y5398262D01*
X2780792Y5388356D01*
X2783382Y5384901D01*
X2784297Y5380685D01*
X2784297Y5363514D01*
X2783382Y5359298D01*
X2780792Y5355844D01*
X2769362Y5345938D01*
X2760167Y5335422D01*
X2752394Y5323840D01*
X2746248Y5311343D01*
X2741726Y5298135D01*
X2739034Y5284419D01*
X2738120Y5270500D01*
X2739034Y5256580D01*
X2741726Y5242864D01*
X2746248Y5229656D01*
X2752394Y5217160D01*
X2760167Y5205577D01*
X2769362Y5195062D01*
X2780792Y5185156D01*
X2783382Y5181701D01*
X2784297Y5177485D01*
X2784297Y5090363D01*
X2783535Y5086553D01*
X2781401Y5083251D01*
X2778201Y5081066D01*
X2774391Y5080203D01*
X2770530Y5080863D01*
X2767228Y5082946D01*
X2764840Y5085130D01*
X2755544Y5091480D01*
X2745384Y5096357D01*
X2734614Y5099710D01*
X2723438Y5101386D01*
X2712161Y5101386D01*
X2700985Y5099710D01*
X2690215Y5096357D01*
X2680055Y5091480D01*
X2670759Y5085130D01*
X2662478Y5077460D01*
X2655417Y5068620D01*
X2649778Y5058867D01*
X2645664Y5048351D01*
X2643174Y5037328D01*
X2642311Y5025694D01*
X2642311Y4956505D01*
X2643174Y4944872D01*
X2645664Y4933848D01*
X2649778Y4923383D01*
X2655925Y4912817D01*
X2656941Y4910328D01*
X2657297Y4907686D01*
X2657297Y3745737D01*
X2657805Y3737711D01*
X2659888Y3727958D01*
X2660497Y3725976D01*
X2663545Y3718661D01*
X2664510Y3716782D01*
X2668676Y3710076D01*
X2675229Y3702405D01*
X2928162Y3449472D01*
X2930296Y3446272D01*
X2931109Y3442462D01*
X2930448Y3438651D01*
X2926232Y3427679D01*
X2921609Y3410508D01*
X2918815Y3392881D01*
X2917901Y3375101D01*
X2918815Y3357321D01*
X2921609Y3339693D01*
X2926232Y3322523D01*
X2932633Y3305860D01*
X2940710Y3290011D01*
X2950413Y3275076D01*
X2961589Y3261207D01*
X2975051Y3247847D01*
X2977286Y3244596D01*
X2978048Y3240684D01*
X2977286Y3236772D01*
X2975102Y3233470D01*
X2971800Y3231286D01*
X2967888Y3230473D01*
X1988210Y3230473D01*
X1984197Y3231337D01*
X1980793Y3233724D01*
X1978660Y3237280D01*
X1978101Y3241344D01*
X1979218Y3245358D01*
X1981962Y3248660D01*
X1994560Y3261258D01*
X2005787Y3275126D01*
X2015489Y3290062D01*
X2023567Y3305911D01*
X2029968Y3322574D01*
X2034590Y3339744D01*
X2037384Y3357372D01*
X2038299Y3375151D01*
X2037384Y3392932D01*
X2034590Y3410559D01*
X2029968Y3427729D01*
X2023567Y3444392D01*
X2015489Y3460242D01*
X2005787Y3475177D01*
X1994560Y3489045D01*
X1981962Y3501644D01*
X1968144Y3512820D01*
X1953209Y3522522D01*
X1937308Y3530650D01*
X1920697Y3537000D01*
X1903475Y3541623D01*
X1885899Y3544417D01*
X1868119Y3545332D01*
X1850288Y3544417D01*
X1832711Y3541623D01*
X1815490Y3537000D01*
X1798878Y3530650D01*
X1782978Y3522522D01*
X1768043Y3512820D01*
X1754225Y3501644D01*
X1741627Y3489045D01*
X1730400Y3475177D01*
X1720697Y3460242D01*
X1712620Y3444392D01*
X1706219Y3427729D01*
X1701647Y3410559D01*
X1698853Y3392932D01*
X1697888Y3375151D01*
X1698853Y3357372D01*
X1701647Y3339744D01*
X1706219Y3322574D01*
X1712620Y3305911D01*
X1720697Y3290062D01*
X1730400Y3275126D01*
X1741627Y3261258D01*
X1754378Y3248558D01*
X1756968Y3245358D01*
X1758086Y3241344D01*
X1757527Y3237280D01*
X1755393Y3233724D01*
X1752041Y3231337D01*
X1747977Y3230473D01*
G37*

%LPC*%
G36*
X6169050Y3313887D02*
G01*
X6170422Y3314446D01*
X6183071Y3321558D01*
X6194653Y3330244D01*
X6205067Y3340303D01*
X6214110Y3351631D01*
X6221628Y3364026D01*
X6223660Y3368649D01*
X6169050Y3368649D01*
G37*
G36*
X6073800Y3313887D02*
G01*
X6073800Y3368649D01*
X6019139Y3368649D01*
X6021171Y3364026D01*
X6028690Y3351631D01*
X6037732Y3340303D01*
X6048146Y3330244D01*
X6059728Y3321558D01*
X6072378Y3314446D01*
G37*
G36*
X4250029Y3316122D02*
G01*
X4260951Y3321812D01*
X4272584Y3329940D01*
X4283049Y3339439D01*
X4292244Y3350209D01*
X4299966Y3362096D01*
X4303776Y3369970D01*
X4250029Y3369970D01*
G37*
G36*
X4157370Y3316224D02*
G01*
X4157370Y3369970D01*
X4103522Y3369970D01*
X4104132Y3368344D01*
X4111091Y3356000D01*
X4119575Y3344672D01*
X4129430Y3334512D01*
X4140504Y3325672D01*
X4152595Y3318357D01*
G37*
G36*
X927100Y3323945D02*
G01*
X942543Y3324860D01*
X957732Y3327552D01*
X972515Y3332073D01*
X986688Y3338322D01*
X999998Y3346196D01*
X1012291Y3355543D01*
X1023366Y3366312D01*
X1033119Y3378352D01*
X1041349Y3391408D01*
X1048003Y3405378D01*
X1052982Y3420008D01*
X1056132Y3435146D01*
X1057503Y3450539D01*
X1057046Y3465982D01*
X1054811Y3481273D01*
X1050696Y3496208D01*
X1044905Y3510534D01*
X1037437Y3524097D01*
X1028446Y3536645D01*
X1017981Y3548024D01*
X1006297Y3558133D01*
X993444Y3566769D01*
X979678Y3573830D01*
X965200Y3579215D01*
X950163Y3582822D01*
X934821Y3584651D01*
X919378Y3584651D01*
X904036Y3582822D01*
X889000Y3579215D01*
X874471Y3573830D01*
X860755Y3566769D01*
X847902Y3558133D01*
X836218Y3548024D01*
X825753Y3536645D01*
X816762Y3524097D01*
X809294Y3510534D01*
X803503Y3496208D01*
X799388Y3481273D01*
X797102Y3465982D01*
X796645Y3450539D01*
X798017Y3435146D01*
X801217Y3420008D01*
X806196Y3405378D01*
X812800Y3391408D01*
X821080Y3378352D01*
X830834Y3366312D01*
X841908Y3355543D01*
X854202Y3346196D01*
X867511Y3338322D01*
X881634Y3332073D01*
X896467Y3327552D01*
X911656Y3324860D01*
G37*
G36*
X6924700Y3326587D02*
G01*
X6924700Y3381349D01*
X6870039Y3381349D01*
X6872071Y3376726D01*
X6879590Y3364331D01*
X6888632Y3353003D01*
X6899046Y3342944D01*
X6910628Y3334258D01*
X6923278Y3327146D01*
G37*
G36*
X7019950Y3326587D02*
G01*
X7021322Y3327146D01*
X7033971Y3334258D01*
X7045553Y3342944D01*
X7055967Y3353003D01*
X7065009Y3364331D01*
X7072528Y3376726D01*
X7074560Y3381349D01*
X7019950Y3381349D01*
G37*
G36*
X6600850Y3326587D02*
G01*
X6602222Y3327146D01*
X6614871Y3334258D01*
X6626453Y3342944D01*
X6636867Y3353003D01*
X6645909Y3364331D01*
X6653428Y3376726D01*
X6655460Y3381349D01*
X6600850Y3381349D01*
G37*
G36*
X6505600Y3326587D02*
G01*
X6505600Y3381349D01*
X6450939Y3381349D01*
X6452971Y3376726D01*
X6460490Y3364331D01*
X6469532Y3353003D01*
X6479946Y3342944D01*
X6491528Y3334258D01*
X6504178Y3327146D01*
G37*
G36*
X5816600Y3373120D02*
G01*
X5830519Y3374034D01*
X5844235Y3376726D01*
X5857443Y3381248D01*
X5869940Y3387394D01*
X5881522Y3395167D01*
X5892038Y3404362D01*
X5901232Y3414877D01*
X5909005Y3426460D01*
X5915152Y3438956D01*
X5919673Y3452164D01*
X5922365Y3465880D01*
X5923280Y3479800D01*
X5922365Y3493719D01*
X5919673Y3507435D01*
X5918860Y3509721D01*
X5918352Y3513429D01*
X5919216Y3517036D01*
X5921298Y3520135D01*
X6011265Y3610101D01*
X6014262Y3612184D01*
X6017818Y3613048D01*
X6021476Y3612642D01*
X6024727Y3610914D01*
X6027115Y3608171D01*
X6028690Y3605631D01*
X6037732Y3594303D01*
X6048146Y3584244D01*
X6059728Y3575558D01*
X6072378Y3568446D01*
X6085789Y3563010D01*
X6099810Y3559352D01*
X6114135Y3557473D01*
X6128664Y3557473D01*
X6142990Y3559352D01*
X6157010Y3563010D01*
X6170422Y3568446D01*
X6183071Y3575558D01*
X6194653Y3584244D01*
X6205067Y3594303D01*
X6214110Y3605631D01*
X6221628Y3618026D01*
X6227470Y3631285D01*
X6231585Y3645154D01*
X6233922Y3659428D01*
X6234379Y3673906D01*
X6233007Y3688334D01*
X6229756Y3702456D01*
X6224778Y3716070D01*
X6218072Y3728872D01*
X6209792Y3740759D01*
X6203645Y3747515D01*
X6201664Y3750818D01*
X6201054Y3754678D01*
X6201918Y3758437D01*
X6204102Y3761638D01*
X6207353Y3763772D01*
X6211214Y3764483D01*
X6428536Y3764483D01*
X6432448Y3763721D01*
X6435750Y3761536D01*
X6450939Y3746296D01*
X6453276Y3742690D01*
X6453936Y3738524D01*
X6452768Y3734409D01*
X6449822Y3728770D01*
X6444843Y3715156D01*
X6441592Y3701034D01*
X6440220Y3686606D01*
X6440678Y3672128D01*
X6443014Y3657854D01*
X6447129Y3643985D01*
X6452971Y3630726D01*
X6460490Y3618331D01*
X6469532Y3607003D01*
X6479946Y3596944D01*
X6491528Y3588258D01*
X6504178Y3581146D01*
X6517589Y3575710D01*
X6531609Y3572052D01*
X6545935Y3570173D01*
X6560464Y3570173D01*
X6574790Y3572052D01*
X6588810Y3575710D01*
X6602222Y3581146D01*
X6614871Y3588258D01*
X6626453Y3596944D01*
X6636867Y3607003D01*
X6645909Y3618331D01*
X6653428Y3630726D01*
X6659270Y3643985D01*
X6663385Y3657854D01*
X6665722Y3672128D01*
X6666179Y3686606D01*
X6664807Y3701034D01*
X6661556Y3715156D01*
X6656578Y3728770D01*
X6649872Y3741572D01*
X6641592Y3753459D01*
X6631838Y3764178D01*
X6620814Y3773576D01*
X6608673Y3781501D01*
X6595618Y3787800D01*
X6581851Y3792321D01*
X6567678Y3795115D01*
X6553200Y3796029D01*
X6534150Y3794760D01*
X6531000Y3795725D01*
X6528307Y3797655D01*
X6482537Y3843375D01*
X6476644Y3847846D01*
X6473901Y3850995D01*
X6472631Y3855008D01*
X6473139Y3859174D01*
X6475272Y3862781D01*
X6478676Y3865219D01*
X6482740Y3866083D01*
X6746036Y3866083D01*
X6749948Y3865321D01*
X6753250Y3863136D01*
X6870039Y3746296D01*
X6872376Y3742690D01*
X6873036Y3738524D01*
X6871868Y3734409D01*
X6868922Y3728770D01*
X6863943Y3715156D01*
X6860692Y3701034D01*
X6859320Y3686606D01*
X6859778Y3672128D01*
X6862114Y3657854D01*
X6866229Y3643985D01*
X6872071Y3630726D01*
X6879590Y3618331D01*
X6888632Y3607003D01*
X6899046Y3596944D01*
X6910628Y3588258D01*
X6923278Y3581146D01*
X6936689Y3575710D01*
X6950709Y3572052D01*
X6965035Y3570173D01*
X6979564Y3570173D01*
X6993890Y3572052D01*
X7007910Y3575710D01*
X7021322Y3581146D01*
X7033971Y3588258D01*
X7045553Y3596944D01*
X7055967Y3607003D01*
X7065009Y3618331D01*
X7072528Y3630726D01*
X7078370Y3643985D01*
X7082485Y3657854D01*
X7084822Y3672128D01*
X7085279Y3686606D01*
X7083907Y3701034D01*
X7080656Y3715156D01*
X7075678Y3728770D01*
X7068972Y3741572D01*
X7060692Y3753459D01*
X7050938Y3764178D01*
X7039914Y3773576D01*
X7027773Y3781501D01*
X7014718Y3787800D01*
X7000951Y3792321D01*
X6986778Y3795115D01*
X6972300Y3796029D01*
X6953250Y3794760D01*
X6950100Y3795725D01*
X6947408Y3797655D01*
X6800037Y3944975D01*
X6793026Y3950258D01*
X6785508Y3954018D01*
X6777431Y3956304D01*
X6768642Y3957116D01*
X5925159Y3957116D01*
X5921095Y3957980D01*
X5917692Y3960418D01*
X5915152Y3965143D01*
X5909005Y3977640D01*
X5901232Y3989222D01*
X5892038Y3999737D01*
X5881522Y4008932D01*
X5869940Y4016705D01*
X5857443Y4022851D01*
X5844235Y4027373D01*
X5830519Y4030065D01*
X5816600Y4030979D01*
X5802680Y4030065D01*
X5788964Y4027373D01*
X5775756Y4022851D01*
X5763260Y4016705D01*
X5751677Y4008932D01*
X5741162Y3999737D01*
X5731967Y3989222D01*
X5724194Y3977640D01*
X5718048Y3965143D01*
X5713526Y3951935D01*
X5710834Y3938219D01*
X5709920Y3924300D01*
X5710834Y3910380D01*
X5713526Y3896664D01*
X5718048Y3883456D01*
X5724194Y3870960D01*
X5731967Y3859377D01*
X5741162Y3848862D01*
X5751677Y3839667D01*
X5763260Y3831894D01*
X5776315Y3825443D01*
X5779820Y3822649D01*
X5781751Y3818585D01*
X5781751Y3814114D01*
X5779820Y3810050D01*
X5776315Y3807256D01*
X5763260Y3800805D01*
X5751677Y3793032D01*
X5741162Y3783837D01*
X5731967Y3773322D01*
X5724194Y3761740D01*
X5718048Y3749243D01*
X5713526Y3736035D01*
X5710834Y3722319D01*
X5709920Y3708400D01*
X5710834Y3694480D01*
X5713526Y3680764D01*
X5718048Y3667556D01*
X5724194Y3655060D01*
X5731967Y3643477D01*
X5741162Y3632962D01*
X5751677Y3623767D01*
X5763260Y3615994D01*
X5775756Y3609848D01*
X5788964Y3605326D01*
X5795467Y3604056D01*
X5799124Y3602532D01*
X5801918Y3599738D01*
X5803442Y3596081D01*
X5803442Y3592118D01*
X5801918Y3588461D01*
X5799124Y3585667D01*
X5795467Y3584143D01*
X5788964Y3582873D01*
X5775756Y3578351D01*
X5763260Y3572205D01*
X5751677Y3564432D01*
X5741162Y3555237D01*
X5731967Y3544722D01*
X5724194Y3533140D01*
X5718048Y3520643D01*
X5713526Y3507435D01*
X5710834Y3493719D01*
X5709920Y3479800D01*
X5710834Y3465880D01*
X5713526Y3452164D01*
X5718048Y3438956D01*
X5724194Y3426460D01*
X5731967Y3414877D01*
X5741162Y3404362D01*
X5751677Y3395167D01*
X5763260Y3387394D01*
X5775756Y3381248D01*
X5788964Y3376726D01*
X5802680Y3374034D01*
G37*
G36*
X4250029Y3462629D02*
G01*
X4303776Y3462629D01*
X4299966Y3470503D01*
X4292244Y3482390D01*
X4283049Y3493160D01*
X4272584Y3502660D01*
X4260951Y3510787D01*
X4250029Y3516477D01*
G37*
G36*
X4103522Y3462629D02*
G01*
X4157370Y3462629D01*
X4157370Y3516376D01*
X4152595Y3514242D01*
X4140504Y3506927D01*
X4129430Y3498087D01*
X4119575Y3487928D01*
X4111091Y3476599D01*
X4104132Y3464255D01*
G37*
G36*
X6019038Y3463899D02*
G01*
X6073800Y3463899D01*
X6073800Y3518560D01*
X6065926Y3514801D01*
X6053785Y3506876D01*
X6042761Y3497478D01*
X6033008Y3486759D01*
X6024727Y3474872D01*
G37*
G36*
X6169050Y3463899D02*
G01*
X6223762Y3463899D01*
X6218072Y3474872D01*
X6209792Y3486759D01*
X6200038Y3497478D01*
X6189014Y3506876D01*
X6176873Y3514801D01*
X6169050Y3518560D01*
G37*
G36*
X6869938Y3476599D02*
G01*
X6924700Y3476599D01*
X6924700Y3531260D01*
X6916826Y3527501D01*
X6904685Y3519576D01*
X6893661Y3510178D01*
X6883908Y3499459D01*
X6875627Y3487572D01*
G37*
G36*
X6450838Y3476599D02*
G01*
X6505600Y3476599D01*
X6505600Y3531260D01*
X6497726Y3527501D01*
X6485585Y3519576D01*
X6474561Y3510178D01*
X6464808Y3499459D01*
X6456527Y3487572D01*
G37*
G36*
X7019950Y3476599D02*
G01*
X7074662Y3476599D01*
X7068972Y3487572D01*
X7060692Y3499459D01*
X7050938Y3510178D01*
X7039914Y3519576D01*
X7027773Y3527501D01*
X7019950Y3531260D01*
G37*
G36*
X6600850Y3476599D02*
G01*
X6655562Y3476599D01*
X6649872Y3487572D01*
X6641592Y3499459D01*
X6631838Y3510178D01*
X6620814Y3519576D01*
X6608673Y3527501D01*
X6600850Y3531260D01*
G37*
G36*
X4048150Y3655212D02*
G01*
X4048150Y3705199D01*
X3998163Y3705199D01*
X4001414Y3698290D01*
X4008628Y3686962D01*
X4017264Y3676751D01*
X4027220Y3667760D01*
X4038244Y3660190D01*
G37*
G36*
X4130700Y3655212D02*
G01*
X4140555Y3660190D01*
X4151579Y3667760D01*
X4161536Y3676751D01*
X4170172Y3686962D01*
X4177385Y3698290D01*
X4180636Y3705199D01*
X4130700Y3705199D01*
G37*
G36*
X4130700Y3787749D02*
G01*
X4180789Y3787749D01*
X4180433Y3788714D01*
X4173982Y3800500D01*
X4166006Y3811270D01*
X4156710Y3820922D01*
X4146194Y3829202D01*
X4134662Y3836060D01*
X4130700Y3837736D01*
G37*
G36*
X3998010Y3787749D02*
G01*
X4048150Y3787749D01*
X4048150Y3837736D01*
X4044137Y3836060D01*
X4032605Y3829202D01*
X4022090Y3820922D01*
X4012793Y3811270D01*
X4004818Y3800500D01*
X3998366Y3788714D01*
G37*
G36*
X3288080Y3804920D02*
G01*
X3305911Y3805834D01*
X3323488Y3808628D01*
X3340709Y3813251D01*
X3357321Y3819601D01*
X3373221Y3827729D01*
X3388156Y3837432D01*
X3401974Y3848608D01*
X3414572Y3861206D01*
X3425799Y3875074D01*
X3435502Y3890010D01*
X3443579Y3905859D01*
X3449980Y3922522D01*
X3454552Y3939692D01*
X3457346Y3957320D01*
X3458311Y3975100D01*
X3457346Y3992879D01*
X3454552Y4010507D01*
X3449980Y4027678D01*
X3443579Y4044340D01*
X3435502Y4060190D01*
X3425799Y4075125D01*
X3414572Y4088993D01*
X3401974Y4101592D01*
X3388156Y4112768D01*
X3373221Y4122470D01*
X3357321Y4130598D01*
X3340709Y4136948D01*
X3323488Y4141571D01*
X3305911Y4144365D01*
X3288080Y4145279D01*
X3270300Y4144365D01*
X3252724Y4141571D01*
X3235502Y4136948D01*
X3218891Y4130598D01*
X3202990Y4122470D01*
X3188055Y4112768D01*
X3174238Y4101592D01*
X3161639Y4088993D01*
X3150412Y4075125D01*
X3140710Y4060190D01*
X3132632Y4044340D01*
X3126232Y4027678D01*
X3121609Y4010507D01*
X3118815Y3992879D01*
X3117900Y3975100D01*
X3118815Y3957320D01*
X3121609Y3939692D01*
X3126232Y3922522D01*
X3132632Y3905859D01*
X3140710Y3890010D01*
X3150412Y3875074D01*
X3161639Y3861206D01*
X3174238Y3848608D01*
X3188055Y3837432D01*
X3202990Y3827729D01*
X3218891Y3819601D01*
X3235502Y3813251D01*
X3252724Y3808628D01*
X3270300Y3805834D01*
G37*
G36*
X927100Y3831945D02*
G01*
X942543Y3832860D01*
X957732Y3835552D01*
X972515Y3840073D01*
X986688Y3846322D01*
X999998Y3854196D01*
X1012291Y3863543D01*
X1023366Y3874312D01*
X1033119Y3886352D01*
X1041349Y3899408D01*
X1048003Y3913378D01*
X1052982Y3928008D01*
X1056132Y3943146D01*
X1057503Y3958539D01*
X1057046Y3973982D01*
X1054811Y3989273D01*
X1050696Y4004208D01*
X1044905Y4018534D01*
X1037437Y4032097D01*
X1028446Y4044645D01*
X1017981Y4056024D01*
X1006297Y4066133D01*
X993444Y4074769D01*
X979678Y4081830D01*
X965200Y4087215D01*
X950163Y4090822D01*
X934821Y4092651D01*
X919378Y4092651D01*
X904036Y4090822D01*
X889000Y4087215D01*
X874471Y4081830D01*
X860755Y4074769D01*
X847902Y4066133D01*
X836218Y4056024D01*
X825753Y4044645D01*
X816762Y4032097D01*
X809294Y4018534D01*
X803503Y4004208D01*
X799388Y3989273D01*
X797102Y3973982D01*
X796645Y3958539D01*
X798017Y3943146D01*
X801217Y3928008D01*
X806196Y3913378D01*
X812800Y3899408D01*
X821080Y3886352D01*
X830834Y3874312D01*
X841908Y3863543D01*
X854202Y3854196D01*
X867511Y3846322D01*
X881634Y3840073D01*
X896467Y3835552D01*
X911656Y3832860D01*
G37*
G36*
X4089400Y3900170D02*
G01*
X4102760Y3901084D01*
X4115917Y3903726D01*
X4128566Y3908145D01*
X4140555Y3914190D01*
X4151579Y3921760D01*
X4161536Y3930751D01*
X4170172Y3940962D01*
X4177385Y3952290D01*
X4183024Y3964432D01*
X4186986Y3977233D01*
X4189222Y3990441D01*
X4189679Y4003852D01*
X4188358Y4017213D01*
X4185208Y4030218D01*
X4180433Y4042714D01*
X4173982Y4054500D01*
X4166006Y4065270D01*
X4156710Y4074922D01*
X4146194Y4083202D01*
X4134662Y4090060D01*
X4122318Y4095292D01*
X4109364Y4098848D01*
X4096105Y4100626D01*
X4082694Y4100626D01*
X4069435Y4098848D01*
X4056481Y4095292D01*
X4044137Y4090060D01*
X4032605Y4083202D01*
X4022090Y4074922D01*
X4012793Y4065270D01*
X4004818Y4054500D01*
X3998366Y4042714D01*
X3993591Y4030218D01*
X3990441Y4017213D01*
X3989120Y4003852D01*
X3989578Y3990441D01*
X3991813Y3977233D01*
X3995775Y3964432D01*
X4001414Y3952290D01*
X4008628Y3940962D01*
X4017264Y3930751D01*
X4027220Y3921760D01*
X4038244Y3914190D01*
X4050233Y3908145D01*
X4062882Y3903726D01*
X4076039Y3901084D01*
G37*
G36*
X4089400Y4154170D02*
G01*
X4102760Y4155084D01*
X4115917Y4157726D01*
X4128566Y4162145D01*
X4140555Y4168190D01*
X4151579Y4175760D01*
X4161536Y4184751D01*
X4170172Y4194962D01*
X4176115Y4204309D01*
X4178401Y4206798D01*
X4181348Y4208424D01*
X4184700Y4208983D01*
X4268927Y4209034D01*
X4277614Y4210253D01*
X4285538Y4212894D01*
X4292904Y4217009D01*
X4299712Y4222648D01*
X4491075Y4414062D01*
X4496358Y4421073D01*
X4500118Y4428591D01*
X4502404Y4436668D01*
X4503216Y4445457D01*
X4503216Y4904536D01*
X4503978Y4908448D01*
X4506163Y4911750D01*
X4669688Y5075224D01*
X4673447Y5077612D01*
X4677867Y5078171D01*
X4682083Y5076748D01*
X4685334Y5073700D01*
X4690567Y5065877D01*
X4699762Y5055362D01*
X4710277Y5046167D01*
X4721860Y5038394D01*
X4734356Y5032248D01*
X4747564Y5027726D01*
X4761280Y5025034D01*
X4775200Y5024120D01*
X4789119Y5025034D01*
X4802835Y5027726D01*
X4816043Y5032248D01*
X4828540Y5038394D01*
X4840122Y5046167D01*
X4850638Y5055362D01*
X4859832Y5065877D01*
X4867605Y5077460D01*
X4868672Y5079644D01*
X4870907Y5082641D01*
X4874107Y5084622D01*
X4877765Y5085283D01*
X4888534Y5085283D01*
X4892192Y5084622D01*
X4895392Y5082641D01*
X4897628Y5079644D01*
X4898694Y5077460D01*
X4906467Y5065877D01*
X4915662Y5055362D01*
X4926177Y5046167D01*
X4937760Y5038394D01*
X4950256Y5032248D01*
X4963464Y5027726D01*
X4977180Y5025034D01*
X4991100Y5024120D01*
X5005019Y5025034D01*
X5018735Y5027726D01*
X5031943Y5032248D01*
X5044440Y5038394D01*
X5056022Y5046167D01*
X5066538Y5055362D01*
X5075732Y5065877D01*
X5083505Y5077460D01*
X5089652Y5089956D01*
X5094173Y5103164D01*
X5096865Y5116880D01*
X5097780Y5130800D01*
X5096865Y5144719D01*
X5094173Y5158435D01*
X5089652Y5171643D01*
X5083505Y5184140D01*
X5075732Y5195722D01*
X5066538Y5206238D01*
X5056022Y5215432D01*
X5044440Y5223205D01*
X5031943Y5229352D01*
X5018735Y5233873D01*
X5005019Y5236565D01*
X4991100Y5237480D01*
X4977180Y5236565D01*
X4963464Y5233873D01*
X4950256Y5229352D01*
X4937760Y5223205D01*
X4926177Y5215432D01*
X4915662Y5206238D01*
X4906467Y5195722D01*
X4898694Y5184140D01*
X4897628Y5181955D01*
X4895392Y5178958D01*
X4892192Y5176977D01*
X4888534Y5176316D01*
X4877765Y5176316D01*
X4874107Y5176977D01*
X4870907Y5178958D01*
X4868672Y5181955D01*
X4867605Y5184140D01*
X4859832Y5195722D01*
X4850638Y5206238D01*
X4840122Y5215432D01*
X4828540Y5223205D01*
X4816043Y5229352D01*
X4802835Y5233873D01*
X4789119Y5236565D01*
X4775200Y5237480D01*
X4761280Y5236565D01*
X4747564Y5233873D01*
X4734356Y5229352D01*
X4721860Y5223205D01*
X4710277Y5215432D01*
X4699762Y5206238D01*
X4690567Y5195722D01*
X4682794Y5184140D01*
X4681728Y5181955D01*
X4679492Y5179009D01*
X4676343Y5177028D01*
X4672685Y5176316D01*
X4659071Y5176266D01*
X4650486Y5175046D01*
X4642561Y5172405D01*
X4635195Y5168290D01*
X4628388Y5162651D01*
X4424324Y4958486D01*
X4419041Y4951526D01*
X4415282Y4944008D01*
X4412996Y4935931D01*
X4412183Y4927142D01*
X4412183Y4468063D01*
X4411421Y4464151D01*
X4409236Y4460849D01*
X4251350Y4302963D01*
X4248048Y4300778D01*
X4244136Y4300016D01*
X4184650Y4300016D01*
X4181094Y4300626D01*
X4177995Y4302506D01*
X4175709Y4305300D01*
X4173982Y4308500D01*
X4166006Y4319270D01*
X4156710Y4328922D01*
X4146194Y4337202D01*
X4134662Y4344060D01*
X4122318Y4349292D01*
X4109364Y4352848D01*
X4096105Y4354626D01*
X4082694Y4354626D01*
X4069435Y4352848D01*
X4056481Y4349292D01*
X4044137Y4344060D01*
X4032605Y4337202D01*
X4022090Y4328922D01*
X4012793Y4319270D01*
X4004818Y4308500D01*
X3998366Y4296714D01*
X3993591Y4284218D01*
X3990441Y4271213D01*
X3989120Y4257852D01*
X3989578Y4244441D01*
X3991813Y4231233D01*
X3995775Y4218432D01*
X4001414Y4206290D01*
X4008628Y4194962D01*
X4017264Y4184751D01*
X4027220Y4175760D01*
X4038244Y4168190D01*
X4050233Y4162145D01*
X4062882Y4157726D01*
X4076039Y4155084D01*
G37*
G36*
X5939129Y4326229D02*
G01*
X5992876Y4326229D01*
X5989066Y4334103D01*
X5981344Y4345990D01*
X5972149Y4356760D01*
X5961684Y4366260D01*
X5950051Y4374388D01*
X5939129Y4380077D01*
G37*
G36*
X6650329Y4326229D02*
G01*
X6704075Y4326229D01*
X6700266Y4334103D01*
X6692544Y4345990D01*
X6683349Y4356760D01*
X6672884Y4366260D01*
X6661251Y4374388D01*
X6650329Y4380077D01*
G37*
G36*
X6503822Y4326229D02*
G01*
X6557670Y4326229D01*
X6557670Y4379976D01*
X6552895Y4377842D01*
X6540804Y4370527D01*
X6529730Y4361688D01*
X6519875Y4351528D01*
X6511391Y4340199D01*
X6504431Y4327855D01*
G37*
G36*
X5792622Y4326229D02*
G01*
X5846470Y4326229D01*
X5846470Y4379976D01*
X5841695Y4377842D01*
X5829604Y4370527D01*
X5818530Y4361688D01*
X5808675Y4351528D01*
X5800191Y4340199D01*
X5793232Y4327855D01*
G37*
G36*
X927100Y4339945D02*
G01*
X942543Y4340860D01*
X957732Y4343603D01*
X972515Y4348073D01*
X986688Y4354322D01*
X999998Y4362196D01*
X1012291Y4371594D01*
X1023366Y4382363D01*
X1033119Y4394352D01*
X1041349Y4407408D01*
X1048003Y4421378D01*
X1052982Y4436008D01*
X1056132Y4451146D01*
X1057503Y4466539D01*
X1057046Y4481982D01*
X1054811Y4497273D01*
X1050696Y4512208D01*
X1044905Y4526534D01*
X1037437Y4540097D01*
X1028446Y4552645D01*
X1017981Y4564024D01*
X1006297Y4574133D01*
X993444Y4582769D01*
X979678Y4589830D01*
X965200Y4595215D01*
X950163Y4598873D01*
X934821Y4600702D01*
X919378Y4600702D01*
X904036Y4598873D01*
X889000Y4595215D01*
X874471Y4589830D01*
X860755Y4582769D01*
X847902Y4574133D01*
X836218Y4564024D01*
X825753Y4552645D01*
X816762Y4540097D01*
X809294Y4526534D01*
X803503Y4512208D01*
X799388Y4497273D01*
X797102Y4481982D01*
X796645Y4466539D01*
X798017Y4451146D01*
X801217Y4436008D01*
X806196Y4421378D01*
X812800Y4407408D01*
X821080Y4394352D01*
X830834Y4382363D01*
X841908Y4371594D01*
X854202Y4362196D01*
X867511Y4354322D01*
X881634Y4348073D01*
X896467Y4343603D01*
X911656Y4340860D01*
G37*
G36*
X1868119Y4404868D02*
G01*
X1885899Y4405782D01*
X1903475Y4408576D01*
X1920697Y4413199D01*
X1937308Y4419549D01*
X1953209Y4427677D01*
X1968144Y4437380D01*
X1982012Y4448556D01*
X1994560Y4461154D01*
X2005787Y4475022D01*
X2015489Y4489958D01*
X2023567Y4505807D01*
X2029968Y4522470D01*
X2034590Y4539640D01*
X2037384Y4557268D01*
X2038299Y4575048D01*
X2037384Y4592828D01*
X2034590Y4610455D01*
X2029968Y4627626D01*
X2023567Y4644288D01*
X2015489Y4660138D01*
X2005787Y4675073D01*
X1994560Y4688941D01*
X1982012Y4701540D01*
X1968144Y4712716D01*
X1953209Y4722418D01*
X1937308Y4730546D01*
X1920697Y4736896D01*
X1903475Y4741519D01*
X1885899Y4744313D01*
X1868119Y4745228D01*
X1850339Y4744313D01*
X1832711Y4741519D01*
X1815490Y4736896D01*
X1798878Y4730546D01*
X1783029Y4722418D01*
X1768093Y4712716D01*
X1754225Y4701540D01*
X1741627Y4688941D01*
X1730400Y4675073D01*
X1720697Y4660138D01*
X1712620Y4644288D01*
X1706219Y4627626D01*
X1701647Y4610455D01*
X1698853Y4592828D01*
X1697888Y4575048D01*
X1698853Y4557268D01*
X1701647Y4539640D01*
X1706219Y4522470D01*
X1712620Y4505807D01*
X1720697Y4489958D01*
X1730400Y4475022D01*
X1741627Y4461154D01*
X1754225Y4448556D01*
X1768093Y4437380D01*
X1783029Y4427677D01*
X1798878Y4419549D01*
X1815490Y4413199D01*
X1832711Y4408576D01*
X1850339Y4405782D01*
G37*
G36*
X4020058Y4408119D02*
G01*
X4158742Y4408119D01*
X4165193Y4408779D01*
X4170883Y4410506D01*
X4176166Y4413300D01*
X4180789Y4417110D01*
X4184599Y4421733D01*
X4187393Y4427016D01*
X4189120Y4432706D01*
X4189780Y4439158D01*
X4189780Y4577842D01*
X4189120Y4584293D01*
X4187393Y4589983D01*
X4184599Y4595266D01*
X4180789Y4599889D01*
X4176166Y4603699D01*
X4170883Y4606493D01*
X4165193Y4608220D01*
X4158742Y4608880D01*
X4145076Y4608880D01*
X4141165Y4609642D01*
X4137863Y4611827D01*
X4135678Y4615129D01*
X4134916Y4619040D01*
X4134916Y4780940D01*
X4135780Y4785004D01*
X4138218Y4788408D01*
X4142943Y4790948D01*
X4155440Y4797094D01*
X4167022Y4804867D01*
X4177537Y4814062D01*
X4186732Y4824577D01*
X4194505Y4836160D01*
X4200652Y4848656D01*
X4205173Y4861864D01*
X4207865Y4875580D01*
X4208780Y4889500D01*
X4207865Y4903419D01*
X4205173Y4917135D01*
X4204360Y4919421D01*
X4203852Y4923129D01*
X4204716Y4926736D01*
X4206798Y4929835D01*
X4324959Y5048046D01*
X4330242Y5055057D01*
X4334002Y5062575D01*
X4336288Y5070652D01*
X4337100Y5079441D01*
X4337100Y5116728D01*
X4337862Y5120640D01*
X4340047Y5123891D01*
X4343349Y5126126D01*
X4347260Y5126888D01*
X4361078Y5126888D01*
X4367530Y5127548D01*
X4373270Y5129276D01*
X4378502Y5132070D01*
X4383125Y5135880D01*
X4386935Y5140452D01*
X4389729Y5145735D01*
X4391456Y5151475D01*
X4392117Y5157876D01*
X4392117Y5306872D01*
X4391456Y5313324D01*
X4389729Y5319064D01*
X4386935Y5324297D01*
X4383125Y5328920D01*
X4378502Y5332730D01*
X4373270Y5335524D01*
X4367530Y5337251D01*
X4361078Y5337911D01*
X4347260Y5337911D01*
X4343349Y5338673D01*
X4340047Y5340858D01*
X4337862Y5344160D01*
X4337100Y5348071D01*
X4337050Y5679643D01*
X4335830Y5688330D01*
X4333189Y5696254D01*
X4329074Y5703620D01*
X4323435Y5710428D01*
X4298696Y5735167D01*
X4296613Y5738215D01*
X4295749Y5741873D01*
X4296257Y5745530D01*
X4297883Y5750458D01*
X4300575Y5764377D01*
X4301490Y5778500D01*
X4300575Y5792622D01*
X4297883Y5806541D01*
X4293412Y5819952D01*
X4287266Y5832703D01*
X4279544Y5844590D01*
X4270349Y5855360D01*
X4259884Y5864860D01*
X4248251Y5872988D01*
X4235704Y5879541D01*
X4222445Y5884418D01*
X4208627Y5887567D01*
X4194556Y5888939D01*
X4180382Y5888482D01*
X4166412Y5886196D01*
X4152849Y5882182D01*
X4139895Y5876442D01*
X4127804Y5869127D01*
X4116730Y5860288D01*
X4106875Y5850128D01*
X4098391Y5838799D01*
X4091432Y5826455D01*
X4086148Y5813298D01*
X4082542Y5799632D01*
X4080764Y5785561D01*
X4080764Y5771438D01*
X4082542Y5757367D01*
X4086148Y5743702D01*
X4091432Y5730544D01*
X4098391Y5718200D01*
X4106875Y5706872D01*
X4116730Y5696712D01*
X4127804Y5687872D01*
X4139895Y5680557D01*
X4152849Y5674817D01*
X4166412Y5670804D01*
X4180382Y5668518D01*
X4194556Y5668060D01*
X4208627Y5669432D01*
X4227525Y5673699D01*
X4231284Y5672836D01*
X4234434Y5670702D01*
X4243120Y5662066D01*
X4245305Y5658764D01*
X4246067Y5654852D01*
X4246067Y5348071D01*
X4245305Y5344160D01*
X4243120Y5340858D01*
X4239818Y5338673D01*
X4235907Y5337911D01*
X4222089Y5337911D01*
X4215638Y5337251D01*
X4209948Y5335524D01*
X4204665Y5332730D01*
X4200042Y5328920D01*
X4196283Y5324297D01*
X4193438Y5319064D01*
X4191711Y5313324D01*
X4191101Y5306872D01*
X4191101Y5157876D01*
X4191711Y5151475D01*
X4193438Y5145735D01*
X4196283Y5140452D01*
X4200042Y5135880D01*
X4204665Y5132070D01*
X4209948Y5129276D01*
X4215638Y5127548D01*
X4222089Y5126888D01*
X4235907Y5126888D01*
X4239818Y5126126D01*
X4243120Y5123891D01*
X4245305Y5120640D01*
X4246067Y5116728D01*
X4246067Y5102047D01*
X4245305Y5098135D01*
X4243120Y5094833D01*
X4142435Y4994198D01*
X4139336Y4992116D01*
X4135729Y4991252D01*
X4132021Y4991760D01*
X4129735Y4992573D01*
X4116019Y4995265D01*
X4102100Y4996180D01*
X4088180Y4995265D01*
X4074464Y4992573D01*
X4061256Y4988052D01*
X4048760Y4981905D01*
X4037177Y4974132D01*
X4026662Y4964938D01*
X4017467Y4954422D01*
X4009694Y4942840D01*
X4003548Y4930343D01*
X3999026Y4917135D01*
X3996334Y4903419D01*
X3995420Y4889500D01*
X3996334Y4875580D01*
X3999026Y4861864D01*
X4003548Y4848656D01*
X4009694Y4836160D01*
X4017467Y4824577D01*
X4026662Y4814062D01*
X4037177Y4804867D01*
X4039362Y4803394D01*
X4041800Y4801108D01*
X4043375Y4798212D01*
X4043883Y4794910D01*
X4043883Y4619040D01*
X4043121Y4615129D01*
X4040936Y4611827D01*
X4037634Y4609642D01*
X4033723Y4608880D01*
X4020058Y4608880D01*
X4013606Y4608220D01*
X4007916Y4606493D01*
X4002633Y4603699D01*
X3998010Y4599889D01*
X3994200Y4595266D01*
X3991406Y4589983D01*
X3989679Y4584293D01*
X3989019Y4577842D01*
X3989019Y4439158D01*
X3989679Y4432706D01*
X3991406Y4427016D01*
X3994200Y4421733D01*
X3998010Y4417110D01*
X4002633Y4413300D01*
X4007916Y4410506D01*
X4013606Y4408779D01*
G37*
G36*
X5705500Y4723638D02*
G01*
X5705500Y4778349D01*
X5650839Y4778349D01*
X5654598Y4770526D01*
X5662523Y4758385D01*
X5671921Y4747361D01*
X5682640Y4737608D01*
X5694527Y4729327D01*
G37*
G36*
X6765950Y4723638D02*
G01*
X6776872Y4729327D01*
X6788759Y4737608D01*
X6799478Y4747361D01*
X6808876Y4758385D01*
X6816801Y4770526D01*
X6820560Y4778349D01*
X6765950Y4778349D01*
G37*
G36*
X5800750Y4723739D02*
G01*
X5805373Y4725771D01*
X5817768Y4733290D01*
X5829096Y4742332D01*
X5839155Y4752746D01*
X5847842Y4764328D01*
X5854954Y4776978D01*
X5855512Y4778349D01*
X5800750Y4778349D01*
G37*
G36*
X6670700Y4723739D02*
G01*
X6670700Y4778349D01*
X6615887Y4778349D01*
X6616446Y4776978D01*
X6623558Y4764328D01*
X6632244Y4752746D01*
X6642303Y4742332D01*
X6653631Y4733290D01*
X6666026Y4725771D01*
G37*
G36*
X6765950Y4873599D02*
G01*
X6820560Y4873599D01*
X6816801Y4881473D01*
X6808876Y4893614D01*
X6799478Y4904638D01*
X6788759Y4914392D01*
X6776872Y4922672D01*
X6765950Y4928362D01*
G37*
G36*
X5650839Y4873599D02*
G01*
X5705500Y4873599D01*
X5705500Y4928362D01*
X5694527Y4922672D01*
X5682640Y4914392D01*
X5671921Y4904638D01*
X5662523Y4893614D01*
X5654598Y4881473D01*
G37*
G36*
X6615887Y4873599D02*
G01*
X6670700Y4873599D01*
X6670700Y4928260D01*
X6666026Y4926228D01*
X6653631Y4918710D01*
X6642303Y4909667D01*
X6632244Y4899253D01*
X6623558Y4887671D01*
X6616446Y4875022D01*
G37*
G36*
X5800750Y4873599D02*
G01*
X5855512Y4873599D01*
X5854954Y4875022D01*
X5847842Y4887671D01*
X5839155Y4899253D01*
X5829096Y4909667D01*
X5817768Y4918710D01*
X5805373Y4926228D01*
X5800750Y4928260D01*
G37*
G36*
X3000654Y4880610D02*
G01*
X3016300Y4880610D01*
X3022752Y4881219D01*
X3028442Y4882946D01*
X3033725Y4885791D01*
X3038348Y4889550D01*
X3042107Y4894173D01*
X3044952Y4899456D01*
X3046679Y4905146D01*
X3047288Y4911598D01*
X3047288Y4944770D01*
X3000654Y4944770D01*
G37*
G36*
X3000654Y5037429D02*
G01*
X3047288Y5037429D01*
X3047288Y5070602D01*
X3046679Y5077053D01*
X3044952Y5082743D01*
X3042107Y5088026D01*
X3038348Y5092649D01*
X3033725Y5096408D01*
X3028442Y5099253D01*
X3022752Y5100980D01*
X3016300Y5101590D01*
X3000654Y5101590D01*
G37*
G36*
X3572967Y5126888D02*
G01*
X3601110Y5126888D01*
X3607562Y5127548D01*
X3613251Y5129276D01*
X3618534Y5132070D01*
X3623157Y5135880D01*
X3626916Y5140452D01*
X3629761Y5145735D01*
X3631488Y5151475D01*
X3632098Y5157876D01*
X3632098Y5188559D01*
X3572967Y5188559D01*
G37*
G36*
X3462121Y5126888D02*
G01*
X3490264Y5126888D01*
X3490264Y5188559D01*
X3431082Y5188559D01*
X3431082Y5157876D01*
X3431743Y5151475D01*
X3433470Y5145735D01*
X3436264Y5140452D01*
X3440074Y5135880D01*
X3444697Y5132070D01*
X3449929Y5129276D01*
X3455670Y5127548D01*
G37*
G36*
X2082800Y5163820D02*
G01*
X2096719Y5164734D01*
X2110435Y5167426D01*
X2123643Y5171948D01*
X2136140Y5178094D01*
X2147722Y5185867D01*
X2158238Y5195062D01*
X2167432Y5205577D01*
X2175205Y5217160D01*
X2181352Y5229656D01*
X2185873Y5242864D01*
X2188565Y5256580D01*
X2189480Y5270500D01*
X2188565Y5284419D01*
X2185873Y5298135D01*
X2181352Y5311343D01*
X2175205Y5323840D01*
X2167432Y5335422D01*
X2158238Y5345938D01*
X2147722Y5355132D01*
X2135581Y5363260D01*
X2133193Y5365546D01*
X2131618Y5368442D01*
X2131060Y5372506D01*
X2131618Y5375757D01*
X2133193Y5378653D01*
X2135581Y5380939D01*
X2147722Y5389067D01*
X2158238Y5398262D01*
X2167432Y5408777D01*
X2175205Y5420360D01*
X2179574Y5429250D01*
X2127250Y5429250D01*
X2127250Y5382006D01*
X2126538Y5378246D01*
X2124456Y5374995D01*
X2121357Y5372811D01*
X2117598Y5371846D01*
X2113838Y5372404D01*
X2110435Y5373573D01*
X2096719Y5376265D01*
X2082800Y5377180D01*
X2068880Y5376265D01*
X2055164Y5373573D01*
X2051761Y5372404D01*
X2048002Y5371846D01*
X2044242Y5372811D01*
X2041143Y5374995D01*
X2039061Y5378246D01*
X2038350Y5382006D01*
X2038350Y5429250D01*
X1986025Y5429250D01*
X1990394Y5420360D01*
X1998167Y5408777D01*
X2007362Y5398262D01*
X2017877Y5389067D01*
X2030018Y5380939D01*
X2032406Y5378653D01*
X2033981Y5375757D01*
X2034539Y5371693D01*
X2033981Y5368442D01*
X2032406Y5365546D01*
X2030018Y5363260D01*
X2017877Y5355132D01*
X2007362Y5345938D01*
X1998167Y5335422D01*
X1990394Y5323840D01*
X1984248Y5311343D01*
X1979726Y5298135D01*
X1977034Y5284419D01*
X1976120Y5270500D01*
X1977034Y5256580D01*
X1979726Y5242864D01*
X1984248Y5229656D01*
X1990394Y5217160D01*
X1998167Y5205577D01*
X2007362Y5195062D01*
X2017877Y5185867D01*
X2029460Y5178094D01*
X2041956Y5171948D01*
X2055164Y5167426D01*
X2068880Y5164734D01*
G37*
G36*
X3572967Y5276240D02*
G01*
X3632098Y5276240D01*
X3632098Y5306872D01*
X3631488Y5313324D01*
X3629761Y5319064D01*
X3626916Y5324297D01*
X3623157Y5328920D01*
X3618534Y5332730D01*
X3613251Y5335524D01*
X3607562Y5337251D01*
X3601110Y5337911D01*
X3572967Y5337911D01*
G37*
G36*
X3431082Y5276240D02*
G01*
X3490264Y5276240D01*
X3490264Y5337911D01*
X3462121Y5337911D01*
X3455670Y5337251D01*
X3449929Y5335524D01*
X3444697Y5332730D01*
X3440074Y5328920D01*
X3436264Y5324297D01*
X3433470Y5319064D01*
X3431743Y5313324D01*
X3431082Y5306872D01*
G37*
G36*
X7028637Y5334355D02*
G01*
X7038644Y5339486D01*
X7051497Y5348122D01*
X7063181Y5358231D01*
X7073646Y5369610D01*
X7082637Y5382209D01*
X7090003Y5395518D01*
X7028637Y5395518D01*
G37*
G36*
X6915962Y5334355D02*
G01*
X6915962Y5395518D01*
X6854596Y5395518D01*
X6861962Y5382209D01*
X6870953Y5369610D01*
X6881418Y5358231D01*
X6893102Y5348122D01*
X6905955Y5339486D01*
G37*
G36*
X7028637Y5508193D02*
G01*
X7089749Y5508193D01*
X7086600Y5514848D01*
X7078319Y5527903D01*
X7068566Y5539943D01*
X7057491Y5550712D01*
X7045198Y5560060D01*
X7031888Y5567934D01*
X7028637Y5569356D01*
G37*
G36*
X6854850Y5508193D02*
G01*
X6915962Y5508193D01*
X6915962Y5569356D01*
X6912711Y5567934D01*
X6899402Y5560060D01*
X6887108Y5550712D01*
X6876034Y5539943D01*
X6866280Y5527903D01*
X6858050Y5514848D01*
G37*
G36*
X2127250Y5518150D02*
G01*
X2179574Y5518150D01*
X2175205Y5527040D01*
X2167432Y5538622D01*
X2158238Y5549138D01*
X2147722Y5558332D01*
X2136140Y5566105D01*
X2127250Y5570474D01*
G37*
G36*
X1986025Y5518150D02*
G01*
X2038350Y5518150D01*
X2038350Y5570474D01*
X2029460Y5566105D01*
X2017877Y5558332D01*
X2007362Y5549138D01*
X1998167Y5538622D01*
X1990394Y5527040D01*
G37*
G36*
X3729329Y5678322D02*
G01*
X3740251Y5684012D01*
X3751884Y5692140D01*
X3762349Y5701639D01*
X3771544Y5712409D01*
X3779265Y5724296D01*
X3783076Y5732170D01*
X3729329Y5732170D01*
G37*
G36*
X3636670Y5678424D02*
G01*
X3636670Y5732170D01*
X3582822Y5732170D01*
X3583432Y5730544D01*
X3590391Y5718200D01*
X3598875Y5706872D01*
X3608730Y5696712D01*
X3619804Y5687872D01*
X3631895Y5680557D01*
G37*
G36*
X993902Y5720232D02*
G01*
X1012698Y5720232D01*
X1031392Y5722162D01*
X1049782Y5725922D01*
X1067714Y5731560D01*
X1084986Y5738977D01*
X1101445Y5748070D01*
X1116838Y5758789D01*
X1131112Y5771032D01*
X1144066Y5784697D01*
X1155547Y5799531D01*
X1165504Y5815482D01*
X1173784Y5832348D01*
X1180287Y5849975D01*
X1185011Y5868162D01*
X1187856Y5886754D01*
X1188770Y5905500D01*
X1187856Y5924245D01*
X1185011Y5942838D01*
X1180287Y5961024D01*
X1173784Y5978652D01*
X1165504Y5995517D01*
X1155547Y6011468D01*
X1144066Y6026302D01*
X1131112Y6039967D01*
X1116838Y6052210D01*
X1101445Y6062929D01*
X1084986Y6072022D01*
X1067714Y6079439D01*
X1049782Y6085078D01*
X1031392Y6088837D01*
X1012698Y6090767D01*
X993902Y6090767D01*
X975207Y6088837D01*
X956818Y6085078D01*
X938885Y6079439D01*
X921613Y6072022D01*
X905154Y6062929D01*
X889762Y6052210D01*
X875487Y6039967D01*
X862533Y6026302D01*
X851052Y6011468D01*
X841095Y5995517D01*
X832815Y5978652D01*
X826312Y5961024D01*
X821588Y5942838D01*
X818743Y5924245D01*
X817829Y5905500D01*
X818743Y5886754D01*
X821588Y5868162D01*
X826312Y5849975D01*
X832815Y5832348D01*
X841095Y5815482D01*
X851052Y5799531D01*
X862533Y5784697D01*
X875487Y5771032D01*
X889762Y5758789D01*
X905154Y5748070D01*
X921613Y5738977D01*
X938885Y5731560D01*
X956818Y5725922D01*
X975207Y5722162D01*
G37*
G36*
X4819650Y5796026D02*
G01*
X4828540Y5800394D01*
X4840122Y5808167D01*
X4850638Y5817362D01*
X4859832Y5827877D01*
X4867605Y5839460D01*
X4871974Y5848350D01*
X4819650Y5848350D01*
G37*
G36*
X4730750Y5796026D02*
G01*
X4730750Y5848350D01*
X4678426Y5848350D01*
X4682794Y5839460D01*
X4690567Y5827877D01*
X4699762Y5817362D01*
X4710277Y5808167D01*
X4721860Y5800394D01*
G37*
G36*
X3729329Y5824829D02*
G01*
X3783076Y5824829D01*
X3779265Y5832703D01*
X3771544Y5844590D01*
X3762349Y5855360D01*
X3751884Y5864860D01*
X3740251Y5872988D01*
X3729329Y5878677D01*
G37*
G36*
X3582822Y5824829D02*
G01*
X3636670Y5824829D01*
X3636670Y5878576D01*
X3631895Y5876442D01*
X3619804Y5869127D01*
X3608730Y5860288D01*
X3598875Y5850128D01*
X3590391Y5838799D01*
X3583432Y5826455D01*
G37*

%LPD*%
D10*
X5816600Y3683000D02*
G01*
X5943600Y3810000D01*
X6451600Y3810000D01*
X6553200Y3708400D01*
X6553200Y3683000D01*
D11*
X2844800Y5283200D02*
G01*
X2844800Y5486400D01*
X2844800Y4991100D02*
G01*
X2844800Y5257800D01*
X2832100Y5270500D01*
X3088106Y3375101D02*
G01*
X2717800Y3745407D01*
X2717800Y4991100D01*
D12*
X3088106Y3375101D02*
G01*
X3215004Y3501999D01*
X3644900Y3501999D01*
X3644900Y4372000D02*
G01*
X3641699Y4368800D01*
X3352800Y4368800D01*
X3146501Y4575098D01*
X3088106Y4575098D01*
X5674868Y5977636D02*
G01*
X5594604Y6057900D01*
X4013200Y6057900D01*
X3886200Y5930900D01*
X3886200Y4699000D01*
X3644900Y4457700D01*
X3644900Y4372102D01*
D11*
X3683000Y5778500D02*
G01*
X3531615Y5627115D01*
X3531615Y5232402D01*
X7112000Y4279900D02*
G01*
X6946900Y4114800D01*
X5232400Y4114800D01*
X4851400Y4495800D01*
X4851400Y4508500D01*
X6972300Y4826000D02*
G01*
X6942818Y4796518D01*
X6942818Y4559300D01*
X6362700Y4559300D02*
G01*
X6959600Y4559300D01*
X7112000Y4406900D01*
X7112000Y4279900D01*
X5499100Y4826000D02*
G01*
X5499100Y4394200D01*
X5384800Y4279900D01*
X6108700Y4559300D02*
G01*
X5499100Y4559300D01*
X6324600Y5191099D02*
G01*
X6324600Y5092700D01*
X6108700Y4876800D01*
X6108700Y4559300D01*
D10*
X4851400Y4508500D02*
G01*
X4864100Y4521200D01*
X4864100Y4889500D01*
X4089400Y4254500D02*
G01*
X4267200Y4254500D01*
X4457700Y4445000D01*
X4457700Y4927600D01*
X4660900Y5130800D01*
X4775200Y5130800D01*
X4102100Y4889500D02*
G01*
X4089400Y4876800D01*
X4089400Y4508500D01*
D12*
X6972300Y5952744D02*
G01*
X6432956Y5952744D01*
X6324600Y6061100D01*
X5674885Y5977699D02*
G01*
X5758286Y6061100D01*
X6324600Y6061100D01*
D10*
X4711700Y3416300D02*
G01*
X4660900Y3467100D01*
X4660900Y4394200D01*
X4775200Y4508500D01*
X4851400Y4508500D01*
X4991100Y5892800D02*
G01*
X5156187Y5727712D01*
X5424898Y5727712D01*
X5674868Y5477763D02*
G01*
X5424931Y5727700D01*
X4775200Y5130800D02*
G01*
X4991100Y5130800D01*
X5054600Y3708400D02*
G01*
X5054600Y3733800D01*
X4851400Y3937000D01*
X4851400Y4000500D01*
X5816600Y3479800D02*
G01*
X6007100Y3670300D01*
X6121400Y3670300D01*
X5816600Y3886200D02*
G01*
X5842000Y3911600D01*
X6769100Y3911600D01*
X6972300Y3708400D01*
X6972300Y3683000D01*
X5054600Y3924300D02*
G01*
X5054600Y4051300D01*
X4851400Y4254500D01*
X4851400Y3746500D02*
G01*
X4851400Y3619500D01*
X4991100Y3479800D01*
X5054600Y3479800D01*
X4102100Y4889500D02*
G01*
X4291584Y5078984D01*
X4291584Y5232402D01*
X4191000Y5778500D02*
G01*
X4291584Y5677915D01*
X4291584Y5232402D01*
D13*
G01*
X3531615Y5232400D03*
G01*
X4291584Y5232400D03*
D14*
G01*
X5384800Y4279900D03*
G01*
X5892800Y4279900D03*
G01*
X6604000Y4279900D03*
G01*
X7112000Y4279900D03*
G01*
X4203700Y3416300D03*
G01*
X4711700Y3416300D03*
G01*
X3683000Y5778500D03*
G01*
X4191000Y5778500D03*
D15*
G01*
X5753100Y4826000D03*
D16*
G01*
X5499100Y4826000D03*
D15*
G01*
X6718300Y4826000D03*
D16*
G01*
X6972300Y4826000D03*
D17*
G01*
X6324600Y6061100D03*
G01*
X6324600Y5191099D03*
G01*
X3644900Y3501999D03*
G01*
X3644900Y4372000D03*
D18*
G01*
X927100Y3454400D03*
G01*
X927100Y4470400D03*
G01*
X927100Y3962400D03*
G01*
X6972300Y5451855D03*
G01*
X6972300Y5952744D03*
D19*
G01*
X2717800Y4991100D03*
G01*
X2844800Y4991100D03*
D20*
G01*
X2971800Y4991100D03*
D19*
G01*
X6108700Y4559300D03*
G01*
X6235700Y4559300D03*
D20*
G01*
X6362700Y4559300D03*
D21*
G01*
X2844800Y5473700D03*
G01*
X2082800Y5473700D03*
G01*
X2082800Y5270500D03*
G01*
X2844800Y5270500D03*
G01*
X4102100Y4889500D03*
G01*
X4864100Y4889500D03*
G01*
X5054600Y3924300D03*
G01*
X5816600Y3924300D03*
G01*
X5054600Y3479800D03*
G01*
X5816600Y3479800D03*
G01*
X5054600Y3708400D03*
G01*
X5816600Y3708400D03*
G01*
X4991100Y5130800D03*
G01*
X4991100Y5892800D03*
G01*
X4775200Y5892800D03*
G01*
X4775200Y5130800D03*
D22*
G01*
X1868093Y4575047D03*
G01*
X3288106Y3975100D03*
G01*
X3088106Y3375101D03*
G01*
X3088106Y4575098D03*
G01*
X1868093Y3375152D03*
D21*
G01*
X5424906Y5727700D03*
G01*
X5674893Y5977686D03*
G01*
X5674893Y5477687D03*
D23*
G01*
X4089400Y4508500D03*
D24*
G01*
X4089400Y4254500D03*
G01*
X4089400Y4000500D03*
G01*
X4089400Y3746500D03*
G01*
X4851400Y3746500D03*
G01*
X4851400Y4000500D03*
G01*
X4851400Y4254500D03*
G01*
X4851400Y4508500D03*
D15*
G01*
X6121400Y3670300D03*
G01*
X6121400Y3416300D03*
G01*
X6553200Y3683000D03*
G01*
X6553200Y3429000D03*
G01*
X6972300Y3683000D03*
G01*
X6972300Y3429000D03*
M02*
